%TF.GenerationSoftware,KiCad,Pcbnew,8.0.4*%
%TF.CreationDate,2024-09-13T22:34:42+02:00*%
%TF.ProjectId,WiiRegStripLite,57696952-6567-4537-9472-69704c697465,rev?*%
%TF.SameCoordinates,Original*%
%TF.FileFunction,Legend,Top*%
%TF.FilePolarity,Positive*%
%FSLAX46Y46*%
G04 Gerber Fmt 4.6, Leading zero omitted, Abs format (unit mm)*
G04 Created by KiCad (PCBNEW 8.0.4) date 2024-09-13 22:34:42*
%MOMM*%
%LPD*%
G01*
G04 APERTURE LIST*
G04 Aperture macros list*
%AMRoundRect*
0 Rectangle with rounded corners*
0 $1 Rounding radius*
0 $2 $3 $4 $5 $6 $7 $8 $9 X,Y pos of 4 corners*
0 Add a 4 corners polygon primitive as box body*
4,1,4,$2,$3,$4,$5,$6,$7,$8,$9,$2,$3,0*
0 Add four circle primitives for the rounded corners*
1,1,$1+$1,$2,$3*
1,1,$1+$1,$4,$5*
1,1,$1+$1,$6,$7*
1,1,$1+$1,$8,$9*
0 Add four rect primitives between the rounded corners*
20,1,$1+$1,$2,$3,$4,$5,0*
20,1,$1+$1,$4,$5,$6,$7,0*
20,1,$1+$1,$6,$7,$8,$9,0*
20,1,$1+$1,$8,$9,$2,$3,0*%
%AMFreePoly0*
4,1,14,0.334644,0.085355,0.385355,0.034644,0.400000,-0.000711,0.400000,-0.050000,0.385355,-0.085355,0.350000,-0.100000,-0.350000,-0.100000,-0.385355,-0.085355,-0.400000,-0.050000,-0.400000,0.050000,-0.385355,0.085355,-0.350000,0.100000,0.299289,0.100000,0.334644,0.085355,0.334644,0.085355,$1*%
%AMFreePoly1*
4,1,14,0.385355,0.085355,0.400000,0.050000,0.400000,0.000711,0.385355,-0.034644,0.334644,-0.085355,0.299289,-0.100000,-0.350000,-0.100000,-0.385355,-0.085355,-0.400000,-0.050000,-0.400000,0.050000,-0.385355,0.085355,-0.350000,0.100000,0.350000,0.100000,0.385355,0.085355,0.385355,0.085355,$1*%
%AMFreePoly2*
4,1,14,0.085355,0.385355,0.100000,0.350000,0.100000,-0.350000,0.085355,-0.385355,0.050000,-0.400000,-0.050000,-0.400000,-0.085355,-0.385355,-0.100000,-0.350000,-0.100000,0.299289,-0.085355,0.334644,-0.034644,0.385355,0.000711,0.400000,0.050000,0.400000,0.085355,0.385355,0.085355,0.385355,$1*%
%AMFreePoly3*
4,1,14,0.034644,0.385355,0.085355,0.334644,0.100000,0.299289,0.100000,-0.350000,0.085355,-0.385355,0.050000,-0.400000,-0.050000,-0.400000,-0.085355,-0.385355,-0.100000,-0.350000,-0.100000,0.350000,-0.085355,0.385355,-0.050000,0.400000,-0.000711,0.400000,0.034644,0.385355,0.034644,0.385355,$1*%
%AMFreePoly4*
4,1,14,0.385355,0.085355,0.400000,0.050000,0.400000,-0.050000,0.385355,-0.085355,0.350000,-0.100000,-0.299289,-0.100000,-0.334644,-0.085355,-0.385355,-0.034644,-0.400000,0.000711,-0.400000,0.050000,-0.385355,0.085355,-0.350000,0.100000,0.350000,0.100000,0.385355,0.085355,0.385355,0.085355,$1*%
%AMFreePoly5*
4,1,14,0.385355,0.085355,0.400000,0.050000,0.400000,-0.050000,0.385355,-0.085355,0.350000,-0.100000,-0.350000,-0.100000,-0.385355,-0.085355,-0.400000,-0.050000,-0.400000,-0.000711,-0.385355,0.034644,-0.334644,0.085355,-0.299289,0.100000,0.350000,0.100000,0.385355,0.085355,0.385355,0.085355,$1*%
%AMFreePoly6*
4,1,14,0.085355,0.385355,0.100000,0.350000,0.100000,-0.299289,0.085355,-0.334644,0.034644,-0.385355,-0.000711,-0.400000,-0.050000,-0.400000,-0.085355,-0.385355,-0.100000,-0.350000,-0.100000,0.350000,-0.085355,0.385355,-0.050000,0.400000,0.050000,0.400000,0.085355,0.385355,0.085355,0.385355,$1*%
%AMFreePoly7*
4,1,14,0.085355,0.385355,0.100000,0.350000,0.100000,-0.350000,0.085355,-0.385355,0.050000,-0.400000,0.000711,-0.400000,-0.034644,-0.385355,-0.085355,-0.334644,-0.100000,-0.299289,-0.100000,0.350000,-0.085355,0.385355,-0.050000,0.400000,0.050000,0.400000,0.085355,0.385355,0.085355,0.385355,$1*%
G04 Aperture macros list end*
%ADD10C,0.000000*%
%ADD11C,0.150000*%
%ADD12C,0.300000*%
%ADD13C,0.125000*%
%ADD14C,0.120000*%
%ADD15RoundRect,0.200000X0.200000X0.275000X-0.200000X0.275000X-0.200000X-0.275000X0.200000X-0.275000X0*%
%ADD16RoundRect,0.200000X-0.275000X0.200000X-0.275000X-0.200000X0.275000X-0.200000X0.275000X0.200000X0*%
%ADD17R,1.700000X1.700000*%
%ADD18O,1.700000X1.700000*%
%ADD19RoundRect,0.250000X-0.475000X0.250000X-0.475000X-0.250000X0.475000X-0.250000X0.475000X0.250000X0*%
%ADD20RoundRect,0.250000X0.475000X-0.250000X0.475000X0.250000X-0.475000X0.250000X-0.475000X-0.250000X0*%
%ADD21RoundRect,0.250000X-0.250000X-0.475000X0.250000X-0.475000X0.250000X0.475000X-0.250000X0.475000X0*%
%ADD22RoundRect,0.085000X-0.085000X0.265000X-0.085000X-0.265000X0.085000X-0.265000X0.085000X0.265000X0*%
%ADD23RoundRect,0.112500X-0.112500X0.187500X-0.112500X-0.187500X0.112500X-0.187500X0.112500X0.187500X0*%
%ADD24RoundRect,0.250000X0.250000X0.475000X-0.250000X0.475000X-0.250000X-0.475000X0.250000X-0.475000X0*%
%ADD25RoundRect,0.200000X0.275000X-0.200000X0.275000X0.200000X-0.275000X0.200000X-0.275000X-0.200000X0*%
%ADD26RoundRect,0.085000X0.265000X0.085000X-0.265000X0.085000X-0.265000X-0.085000X0.265000X-0.085000X0*%
%ADD27RoundRect,0.085000X0.085000X-0.265000X0.085000X0.265000X-0.085000X0.265000X-0.085000X-0.265000X0*%
%ADD28RoundRect,0.250000X1.025000X-0.787500X1.025000X0.787500X-1.025000X0.787500X-1.025000X-0.787500X0*%
%ADD29RoundRect,0.200000X-0.200000X-0.275000X0.200000X-0.275000X0.200000X0.275000X-0.200000X0.275000X0*%
%ADD30R,1.500000X1.500000*%
%ADD31RoundRect,0.225000X-0.225000X-0.250000X0.225000X-0.250000X0.225000X0.250000X-0.225000X0.250000X0*%
%ADD32R,3.000000X1.000000*%
%ADD33R,2.200000X2.700000*%
%ADD34R,1.500000X1.200000*%
%ADD35RoundRect,0.225000X0.225000X0.250000X-0.225000X0.250000X-0.225000X-0.250000X0.225000X-0.250000X0*%
%ADD36R,1.200000X1.500000*%
%ADD37R,1.000000X3.000000*%
%ADD38RoundRect,0.250000X-0.787500X-1.025000X0.787500X-1.025000X0.787500X1.025000X-0.787500X1.025000X0*%
%ADD39R,1.000000X1.500000*%
%ADD40C,1.000000*%
%ADD41FreePoly0,90.000000*%
%ADD42RoundRect,0.050000X0.050000X-0.350000X0.050000X0.350000X-0.050000X0.350000X-0.050000X-0.350000X0*%
%ADD43FreePoly1,90.000000*%
%ADD44FreePoly2,90.000000*%
%ADD45RoundRect,0.050000X0.350000X-0.050000X0.350000X0.050000X-0.350000X0.050000X-0.350000X-0.050000X0*%
%ADD46FreePoly3,90.000000*%
%ADD47FreePoly4,90.000000*%
%ADD48FreePoly5,90.000000*%
%ADD49FreePoly6,90.000000*%
%ADD50FreePoly7,90.000000*%
%ADD51RoundRect,0.095000X-0.380000X-0.095000X0.380000X-0.095000X0.380000X0.095000X-0.380000X0.095000X0*%
%ADD52RoundRect,0.095000X0.095000X-0.380000X0.095000X0.380000X-0.095000X0.380000X-0.095000X-0.380000X0*%
%ADD53RoundRect,0.095000X0.380000X0.095000X-0.380000X0.095000X-0.380000X-0.095000X0.380000X-0.095000X0*%
%ADD54RoundRect,0.095000X-0.095000X0.380000X-0.095000X-0.380000X0.095000X-0.380000X0.095000X0.380000X0*%
%ADD55C,0.500000*%
%ADD56RoundRect,0.260400X-1.139600X1.139600X-1.139600X-1.139600X1.139600X-1.139600X1.139600X1.139600X0*%
G04 APERTURE END LIST*
D10*
G36*
X144593146Y-133358513D02*
G01*
X144608708Y-133359247D01*
X144624098Y-133360471D01*
X144639315Y-133362187D01*
X144654363Y-133364391D01*
X144669242Y-133367088D01*
X144683947Y-133370270D01*
X144698480Y-133373947D01*
X144712845Y-133378109D01*
X144727035Y-133382761D01*
X144741060Y-133387906D01*
X144754908Y-133393538D01*
X144768591Y-133399663D01*
X144782104Y-133406278D01*
X144795435Y-133413378D01*
X144808607Y-133420973D01*
X144821492Y-133428834D01*
X144834046Y-133437028D01*
X144846266Y-133445545D01*
X144858147Y-133454391D01*
X144869694Y-133463565D01*
X144880910Y-133473067D01*
X144891789Y-133482893D01*
X144902334Y-133493052D01*
X144912541Y-133503537D01*
X144922418Y-133514353D01*
X144931959Y-133525492D01*
X144941162Y-133536957D01*
X144950034Y-133548755D01*
X144958568Y-133560879D01*
X144966772Y-133573332D01*
X144974635Y-133586108D01*
X144982230Y-133599089D01*
X144989333Y-133612254D01*
X144995945Y-133625602D01*
X145002070Y-133639136D01*
X145007705Y-133652856D01*
X145012847Y-133666757D01*
X145017499Y-133680846D01*
X145021664Y-133695119D01*
X145025341Y-133709578D01*
X145028522Y-133724223D01*
X145031217Y-133739048D01*
X145033421Y-133754060D01*
X145035137Y-133769257D01*
X145036364Y-133784641D01*
X145037095Y-133800208D01*
X145037342Y-133815958D01*
X145037342Y-134172564D01*
X145037098Y-134188319D01*
X145036364Y-134203905D01*
X145035137Y-134219315D01*
X145033423Y-134234556D01*
X145031219Y-134249623D01*
X145028525Y-134264519D01*
X145025341Y-134279243D01*
X145021664Y-134293791D01*
X145017502Y-134308168D01*
X145012849Y-134322373D01*
X145007705Y-134336402D01*
X145002070Y-134350262D01*
X144995945Y-134363948D01*
X144989335Y-134377463D01*
X144982230Y-134390806D01*
X144974637Y-134403976D01*
X144966772Y-134416868D01*
X144958568Y-134429434D01*
X144950034Y-134441679D01*
X144941159Y-134453598D01*
X144931956Y-134465193D01*
X144922415Y-134476465D01*
X144912541Y-134487411D01*
X144902332Y-134498034D01*
X144891789Y-134508333D01*
X144880908Y-134518306D01*
X144869696Y-134527958D01*
X144858147Y-134537281D01*
X144846264Y-134546282D01*
X144834046Y-134554958D01*
X144821496Y-134563314D01*
X144808609Y-134571339D01*
X144795440Y-134578770D01*
X144782101Y-134585723D01*
X144768589Y-134592198D01*
X144754910Y-134598187D01*
X144741060Y-134603699D01*
X144727038Y-134608735D01*
X144712840Y-134613288D01*
X144698483Y-134617366D01*
X144683947Y-134620960D01*
X144669242Y-134624080D01*
X144654365Y-134626714D01*
X144639315Y-134628872D01*
X144624096Y-134630550D01*
X144608708Y-134631750D01*
X144593148Y-134632469D01*
X144577419Y-134632706D01*
X144273482Y-134632708D01*
X144273482Y-134373180D01*
X144577417Y-134373180D01*
X144587752Y-134372951D01*
X144597882Y-134372255D01*
X144607814Y-134371104D01*
X144617544Y-134369484D01*
X144627075Y-134367403D01*
X144636406Y-134364863D01*
X144645532Y-134361860D01*
X144654459Y-134358393D01*
X144663192Y-134354467D01*
X144671719Y-134350078D01*
X144680045Y-134345228D01*
X144688174Y-134339915D01*
X144696100Y-134334140D01*
X144703825Y-134327904D01*
X144711348Y-134321202D01*
X144718675Y-134314044D01*
X144725836Y-134306420D01*
X144732537Y-134298615D01*
X144738771Y-134290626D01*
X144744548Y-134282456D01*
X144749862Y-134274101D01*
X144754712Y-134265562D01*
X144759101Y-134256839D01*
X144763029Y-134247933D01*
X144766489Y-134238846D01*
X144769497Y-134229578D01*
X144772039Y-134220124D01*
X144774113Y-134210484D01*
X144775733Y-134200670D01*
X144776889Y-134190666D01*
X144777579Y-134180478D01*
X144777814Y-134170111D01*
X144777811Y-133818418D01*
X144777582Y-133808059D01*
X144776889Y-133797902D01*
X144775733Y-133787946D01*
X144774117Y-133778195D01*
X144772036Y-133768644D01*
X144769494Y-133759294D01*
X144766493Y-133750151D01*
X144763027Y-133741204D01*
X144759099Y-133732462D01*
X144754712Y-133723923D01*
X144749862Y-133715587D01*
X144744546Y-133707451D01*
X144738771Y-133699518D01*
X144732537Y-133691790D01*
X144725838Y-133684260D01*
X144718675Y-133676933D01*
X144711353Y-133669775D01*
X144703825Y-133663078D01*
X144696100Y-133656837D01*
X144688174Y-133651062D01*
X144680048Y-133645749D01*
X144671716Y-133640898D01*
X144663192Y-133636512D01*
X144654462Y-133632584D01*
X144645532Y-133629119D01*
X144636403Y-133626119D01*
X144627073Y-133623574D01*
X144617546Y-133621498D01*
X144607812Y-133619878D01*
X144597882Y-133618724D01*
X144587750Y-133618031D01*
X144577417Y-133617802D01*
X144125976Y-133617802D01*
X144125974Y-135107589D01*
X143866443Y-135107586D01*
X143866446Y-133617802D01*
X143866743Y-133604531D01*
X143867636Y-133591511D01*
X143869121Y-133578728D01*
X143871202Y-133566193D01*
X143873877Y-133553905D01*
X143877148Y-133541858D01*
X143881011Y-133530055D01*
X143885470Y-133518493D01*
X143890523Y-133507178D01*
X143896172Y-133496111D01*
X143902413Y-133485281D01*
X143909250Y-133474702D01*
X143916681Y-133464361D01*
X143924708Y-133454268D01*
X143933327Y-133444415D01*
X143942542Y-133434814D01*
X143952201Y-133425541D01*
X143962102Y-133416869D01*
X143972244Y-133408801D01*
X143982627Y-133401324D01*
X143993247Y-133394446D01*
X144004114Y-133388169D01*
X144015214Y-133382486D01*
X144026561Y-133377404D01*
X144038142Y-133372921D01*
X144049967Y-133369029D01*
X144062036Y-133365741D01*
X144074343Y-133363054D01*
X144086890Y-133360961D01*
X144099676Y-133359464D01*
X144112707Y-133358566D01*
X144125974Y-133358264D01*
X144577415Y-133358264D01*
X144593146Y-133358513D01*
G37*
G36*
X154990050Y-133599012D02*
G01*
X154998133Y-133599560D01*
X155006059Y-133600477D01*
X155013826Y-133601759D01*
X155021443Y-133603408D01*
X155028900Y-133605419D01*
X155036205Y-133607802D01*
X155043351Y-133610544D01*
X155050345Y-133613656D01*
X155057185Y-133617135D01*
X155063870Y-133620979D01*
X155070396Y-133625192D01*
X155076769Y-133629764D01*
X155082988Y-133634711D01*
X155089050Y-133640015D01*
X155094955Y-133645691D01*
X155100634Y-133651625D01*
X155105940Y-133657711D01*
X155110882Y-133663947D01*
X155115462Y-133670335D01*
X155119670Y-133676875D01*
X155123513Y-133683570D01*
X155126994Y-133690414D01*
X155130104Y-133697408D01*
X155132851Y-133704554D01*
X155135229Y-133711852D01*
X155137243Y-133719300D01*
X155138892Y-133726905D01*
X155140174Y-133734662D01*
X155141089Y-133742563D01*
X155141637Y-133750622D01*
X155141820Y-133758830D01*
X155141639Y-133767041D01*
X155141089Y-133775100D01*
X155140174Y-133783011D01*
X155138892Y-133790773D01*
X155137243Y-133798380D01*
X155135232Y-133805840D01*
X155132849Y-133813150D01*
X155130104Y-133820311D01*
X155126994Y-133827324D01*
X155123511Y-133834183D01*
X155119672Y-133840892D01*
X155115462Y-133847454D01*
X155110882Y-133853863D01*
X155105940Y-133860123D01*
X155100631Y-133866234D01*
X155094958Y-133872195D01*
X155089026Y-133877868D01*
X155082940Y-133883179D01*
X155076704Y-133888121D01*
X155070313Y-133892698D01*
X155063773Y-133896906D01*
X155057081Y-133900750D01*
X155050237Y-133904229D01*
X155043240Y-133907343D01*
X155036097Y-133910086D01*
X155028796Y-133912466D01*
X155021346Y-133914482D01*
X155013744Y-133916128D01*
X155005989Y-133917413D01*
X154998085Y-133918328D01*
X154990026Y-133918873D01*
X154981818Y-133919057D01*
X154973607Y-133918873D01*
X154965549Y-133918328D01*
X154957637Y-133917413D01*
X154949878Y-133916131D01*
X154942266Y-133914482D01*
X154934804Y-133912466D01*
X154927496Y-133910088D01*
X154920338Y-133907341D01*
X154913327Y-133904229D01*
X154906468Y-133900750D01*
X154899754Y-133896904D01*
X154893197Y-133892696D01*
X154886787Y-133888121D01*
X154880525Y-133883179D01*
X154874414Y-133877868D01*
X154868451Y-133872195D01*
X154862778Y-133866258D01*
X154857469Y-133860172D01*
X154852525Y-133853931D01*
X154847952Y-133847538D01*
X154843739Y-133840986D01*
X154839898Y-133834287D01*
X154836420Y-133827433D01*
X154833305Y-133820422D01*
X154830560Y-133813259D01*
X154828180Y-133805946D01*
X154826164Y-133798477D01*
X154824520Y-133790855D01*
X154823238Y-133783079D01*
X154822323Y-133775148D01*
X154821773Y-133767065D01*
X154821591Y-133758830D01*
X154821775Y-133750622D01*
X154822323Y-133742566D01*
X154823238Y-133734662D01*
X154824520Y-133726905D01*
X154826169Y-133719305D01*
X154828180Y-133711852D01*
X154830560Y-133704554D01*
X154833308Y-133697408D01*
X154836420Y-133690411D01*
X154839898Y-133683570D01*
X154843739Y-133676875D01*
X154847952Y-133670337D01*
X154852525Y-133663947D01*
X154857472Y-133657711D01*
X154862778Y-133651625D01*
X154868454Y-133645691D01*
X154874388Y-133640015D01*
X154880477Y-133634706D01*
X154886715Y-133629764D01*
X154893113Y-133625187D01*
X154899662Y-133620979D01*
X154906362Y-133617133D01*
X154913218Y-133613654D01*
X154920227Y-133610542D01*
X154927387Y-133607795D01*
X154934702Y-133605417D01*
X154942172Y-133603401D01*
X154949796Y-133601757D01*
X154957572Y-133600475D01*
X154965498Y-133599560D01*
X154973583Y-133599012D01*
X154981818Y-133598826D01*
X154990050Y-133599012D01*
G37*
G36*
X156121802Y-134106084D02*
G01*
X156137364Y-134106817D01*
X156152755Y-134108044D01*
X156167972Y-134109758D01*
X156183020Y-134111965D01*
X156197894Y-134114654D01*
X156212599Y-134117841D01*
X156227137Y-134121518D01*
X156241502Y-134125680D01*
X156255695Y-134130334D01*
X156269716Y-134135479D01*
X156283569Y-134141111D01*
X156297248Y-134147234D01*
X156310756Y-134153844D01*
X156324097Y-134160951D01*
X156337266Y-134168544D01*
X156350153Y-134176407D01*
X156362705Y-134184594D01*
X156374921Y-134193106D01*
X156386806Y-134201950D01*
X156398353Y-134211114D01*
X156409567Y-134220607D01*
X156420448Y-134230425D01*
X156430988Y-134240567D01*
X156441200Y-134251038D01*
X156451075Y-134261837D01*
X156460616Y-134272959D01*
X156469821Y-134284405D01*
X156478691Y-134296179D01*
X156487225Y-134308279D01*
X156495429Y-134320705D01*
X156503294Y-134333457D01*
X156510887Y-134346460D01*
X156517989Y-134359651D01*
X156524602Y-134373016D01*
X156530727Y-134386567D01*
X156536362Y-134400296D01*
X156541506Y-134414210D01*
X156546161Y-134428304D01*
X156550323Y-134442579D01*
X156553995Y-134457035D01*
X156557179Y-134471673D01*
X156559876Y-134486494D01*
X156562083Y-134501493D01*
X156563794Y-134516674D01*
X156565021Y-134532038D01*
X156565755Y-134547583D01*
X156566001Y-134563307D01*
X156566001Y-134920132D01*
X156565755Y-134935887D01*
X156565021Y-134951471D01*
X156563794Y-134966879D01*
X156562078Y-134982110D01*
X156559876Y-134997175D01*
X156557182Y-135012056D01*
X156553995Y-135026768D01*
X156550323Y-135041304D01*
X156546156Y-135055669D01*
X156541504Y-135069852D01*
X156536362Y-135083867D01*
X156530727Y-135097710D01*
X156524604Y-135111374D01*
X156517989Y-135124865D01*
X156510887Y-135138179D01*
X156503294Y-135151322D01*
X156495429Y-135164241D01*
X156487225Y-135176831D01*
X156478686Y-135189090D01*
X156469819Y-135201028D01*
X156460616Y-135212636D01*
X156451075Y-135223915D01*
X156441200Y-135234871D01*
X156430991Y-135245496D01*
X156420448Y-135255790D01*
X156409565Y-135265756D01*
X156398355Y-135275401D01*
X156386806Y-135284712D01*
X156374923Y-135293698D01*
X156362702Y-135302355D01*
X156350153Y-135310687D01*
X156337264Y-135318687D01*
X156324097Y-135326147D01*
X156310758Y-135333122D01*
X156297246Y-135339619D01*
X156283569Y-135345635D01*
X156269712Y-135351166D01*
X156255692Y-135356219D01*
X156241502Y-135360789D01*
X156227137Y-135364881D01*
X156212601Y-135368488D01*
X156197896Y-135371617D01*
X156183020Y-135374263D01*
X156167972Y-135376428D01*
X156152755Y-135378111D01*
X156137364Y-135379318D01*
X156121802Y-135380035D01*
X156106074Y-135380276D01*
X155802134Y-135380274D01*
X155802136Y-135120524D01*
X156106074Y-135120524D01*
X156116407Y-135120295D01*
X156126542Y-135119607D01*
X156136478Y-135118453D01*
X156146215Y-135116842D01*
X156155754Y-135114771D01*
X156165092Y-135112241D01*
X156174229Y-135109250D01*
X156183174Y-135105797D01*
X156191921Y-135101886D01*
X156200462Y-135097512D01*
X156208811Y-135092681D01*
X156216954Y-135087387D01*
X156224904Y-135081631D01*
X156232656Y-135075422D01*
X156240203Y-135068746D01*
X156247554Y-135061610D01*
X156254686Y-135053986D01*
X156261361Y-135046181D01*
X156267575Y-135038192D01*
X156273331Y-135030025D01*
X156278625Y-135021667D01*
X156283458Y-135013130D01*
X156287825Y-135004408D01*
X156291741Y-134995502D01*
X156295194Y-134986414D01*
X156298185Y-134977144D01*
X156300715Y-134967690D01*
X156302786Y-134958055D01*
X156304399Y-134948236D01*
X156305551Y-134938234D01*
X156306241Y-134928046D01*
X156306468Y-134917677D01*
X156306466Y-134565757D01*
X156306241Y-134555429D01*
X156305551Y-134545299D01*
X156304397Y-134535365D01*
X156302789Y-134525633D01*
X156300715Y-134516104D01*
X156298182Y-134506773D01*
X156295194Y-134497645D01*
X156291741Y-134488717D01*
X156287828Y-134479987D01*
X156283456Y-134471458D01*
X156278622Y-134463134D01*
X156273333Y-134455005D01*
X156267577Y-134447082D01*
X156261366Y-134439354D01*
X156254686Y-134431829D01*
X156247554Y-134424504D01*
X156240203Y-134417341D01*
X156232651Y-134410639D01*
X156224901Y-134404403D01*
X156216959Y-134398631D01*
X156208811Y-134393317D01*
X156200465Y-134388467D01*
X156191921Y-134384078D01*
X156183174Y-134380150D01*
X156174232Y-134376685D01*
X156165094Y-134373685D01*
X156155754Y-134371142D01*
X156146215Y-134369061D01*
X156136478Y-134367449D01*
X156126542Y-134366290D01*
X156116409Y-134365597D01*
X156106076Y-134365368D01*
X155654408Y-134365370D01*
X155654406Y-135854930D01*
X155394880Y-135854930D01*
X155395100Y-134365368D01*
X155395397Y-134352099D01*
X155396290Y-134339074D01*
X155397775Y-134326291D01*
X155399856Y-134313747D01*
X155402533Y-134301454D01*
X155405800Y-134289395D01*
X155409665Y-134277582D01*
X155414124Y-134266006D01*
X155419175Y-134254676D01*
X155424826Y-134243595D01*
X155431069Y-134232750D01*
X155437902Y-134222142D01*
X155445335Y-134211785D01*
X155453362Y-134201665D01*
X155461983Y-134191791D01*
X155471196Y-134182154D01*
X155480858Y-134172914D01*
X155490761Y-134164271D01*
X155500900Y-134156220D01*
X155511284Y-134148767D01*
X155521907Y-134141913D01*
X155532768Y-134135653D01*
X155543873Y-134129987D01*
X155555215Y-134124917D01*
X155566801Y-134120446D01*
X155578624Y-134116571D01*
X155590688Y-134113290D01*
X155602998Y-134110608D01*
X155615544Y-134108522D01*
X155628335Y-134107030D01*
X155641362Y-134106137D01*
X155654633Y-134105840D01*
X156106076Y-134105840D01*
X156121802Y-134106084D01*
G37*
G36*
X151004213Y-134600814D02*
G01*
X151020250Y-134601171D01*
X151035994Y-134602241D01*
X151051445Y-134604020D01*
X151066611Y-134606519D01*
X151081480Y-134609727D01*
X151096062Y-134613653D01*
X151110349Y-134618285D01*
X151124347Y-134623633D01*
X151138052Y-134629695D01*
X151151468Y-134636469D01*
X151164591Y-134643961D01*
X151177428Y-134652162D01*
X151189970Y-134661073D01*
X151202219Y-134670703D01*
X151214179Y-134681041D01*
X151225847Y-134692095D01*
X151237011Y-134703650D01*
X151247455Y-134715494D01*
X151257177Y-134727623D01*
X151266177Y-134740042D01*
X151274460Y-134752750D01*
X151282024Y-134765746D01*
X151288866Y-134779029D01*
X151294986Y-134792601D01*
X151300389Y-134806464D01*
X151305070Y-134820611D01*
X151309029Y-134835048D01*
X151312269Y-134849770D01*
X151314792Y-134864789D01*
X151316593Y-134880090D01*
X151317670Y-134895681D01*
X151318032Y-134911557D01*
X151631846Y-134911557D01*
X151631850Y-135533048D01*
X151318034Y-135533048D01*
X151317670Y-135548926D01*
X151316593Y-135564520D01*
X151314787Y-135579816D01*
X151312269Y-135594830D01*
X151309027Y-135609557D01*
X151305070Y-135623999D01*
X151300386Y-135638142D01*
X151294983Y-135652002D01*
X151288866Y-135665581D01*
X151282024Y-135678862D01*
X151274460Y-135691857D01*
X151266177Y-135704566D01*
X151257177Y-135716987D01*
X151247455Y-135729116D01*
X151237011Y-135740958D01*
X151225847Y-135752512D01*
X151214182Y-135763567D01*
X151202219Y-135773907D01*
X151189970Y-135783532D01*
X151177428Y-135792448D01*
X151164594Y-135800649D01*
X151151468Y-135808138D01*
X151138054Y-135814910D01*
X151124349Y-135820972D01*
X151110349Y-135826322D01*
X151096064Y-135830957D01*
X151081480Y-135834878D01*
X151066608Y-135838089D01*
X151051449Y-135840585D01*
X151035994Y-135842367D01*
X151020250Y-135843436D01*
X151004215Y-135843796D01*
X150533490Y-135843793D01*
X150533487Y-134600810D01*
X151004213Y-134600814D01*
G37*
G36*
X150376578Y-135066931D02*
G01*
X150062764Y-135066931D01*
X150054512Y-135066757D01*
X150046429Y-135066236D01*
X150038513Y-135065359D01*
X150030771Y-135064138D01*
X150023190Y-135062568D01*
X150015783Y-135060649D01*
X150008543Y-135058380D01*
X150001472Y-135055763D01*
X149994567Y-135052798D01*
X149987834Y-135049481D01*
X149981270Y-135045819D01*
X149974872Y-135041804D01*
X149968643Y-135037444D01*
X149962581Y-135032734D01*
X149956688Y-135027671D01*
X149950964Y-135022261D01*
X149945503Y-135016595D01*
X149940390Y-135010757D01*
X149935636Y-135004760D01*
X149931233Y-134998592D01*
X149927177Y-134992257D01*
X149923476Y-134985755D01*
X149920130Y-134979087D01*
X149917134Y-134972253D01*
X149914490Y-134965249D01*
X149912199Y-134958079D01*
X149910260Y-134950744D01*
X149908674Y-134943241D01*
X149907440Y-134935571D01*
X149906559Y-134927732D01*
X149906031Y-134919729D01*
X149905854Y-134911557D01*
X149906031Y-134903390D01*
X149906557Y-134895382D01*
X149907440Y-134887550D01*
X149908677Y-134879878D01*
X149910260Y-134872377D01*
X149912199Y-134865040D01*
X149914488Y-134857867D01*
X149917131Y-134850866D01*
X149920130Y-134844031D01*
X149923478Y-134837361D01*
X149927179Y-134830862D01*
X149931228Y-134824525D01*
X149935634Y-134818356D01*
X149940392Y-134812357D01*
X149945505Y-134806524D01*
X149950969Y-134800856D01*
X149956686Y-134795443D01*
X149962584Y-134790388D01*
X149968643Y-134785677D01*
X149974867Y-134781313D01*
X149981270Y-134777298D01*
X149987834Y-134773633D01*
X149994567Y-134770318D01*
X150001472Y-134767356D01*
X150008545Y-134764737D01*
X150015783Y-134762470D01*
X150023192Y-134760548D01*
X150030771Y-134758979D01*
X150038513Y-134757757D01*
X150046428Y-134756883D01*
X150054514Y-134756362D01*
X150062764Y-134756185D01*
X150376580Y-134756185D01*
X150376578Y-135066931D01*
G37*
G36*
X150741192Y-133358266D02*
G01*
X150741192Y-133616681D01*
X150457118Y-133616684D01*
X150451614Y-133616802D01*
X150446211Y-133617162D01*
X150440902Y-133617763D01*
X150435695Y-133618606D01*
X150430584Y-133619692D01*
X150425569Y-133621015D01*
X150420652Y-133622577D01*
X150415833Y-133624378D01*
X150411111Y-133626428D01*
X150406490Y-133628709D01*
X150401963Y-133631237D01*
X150397535Y-133634006D01*
X150393204Y-133637009D01*
X150388972Y-133640261D01*
X150384837Y-133643750D01*
X150380800Y-133647477D01*
X150377070Y-133651214D01*
X150373579Y-133655053D01*
X150370332Y-133659000D01*
X150367324Y-133663056D01*
X150364557Y-133667216D01*
X150362034Y-133671484D01*
X150359748Y-133675859D01*
X150357701Y-133680337D01*
X150355898Y-133684924D01*
X150354333Y-133689615D01*
X150353010Y-133694417D01*
X150351929Y-133699320D01*
X150351084Y-133704327D01*
X150350482Y-133709448D01*
X150350123Y-133714672D01*
X150350000Y-133720000D01*
X150350002Y-134632708D01*
X150090474Y-134632708D01*
X150090474Y-133715092D01*
X150090662Y-133702862D01*
X150091237Y-133690762D01*
X150092198Y-133678792D01*
X150093543Y-133666962D01*
X150095269Y-133655263D01*
X150097376Y-133643704D01*
X150099870Y-133632275D01*
X150102746Y-133620979D01*
X150106005Y-133609818D01*
X150109650Y-133598790D01*
X150113677Y-133587897D01*
X150118085Y-133577139D01*
X150122880Y-133566514D01*
X150128061Y-133556029D01*
X150133621Y-133545670D01*
X150139570Y-133535453D01*
X150146023Y-133525429D01*
X150152727Y-133515666D01*
X150159678Y-133506164D01*
X150166877Y-133496917D01*
X150174322Y-133487931D01*
X150182011Y-133479204D01*
X150189957Y-133470745D01*
X150198146Y-133462539D01*
X150206583Y-133454594D01*
X150215265Y-133446904D01*
X150224195Y-133439481D01*
X150233374Y-133432313D01*
X150242804Y-133425406D01*
X150252477Y-133418762D01*
X150262400Y-133412374D01*
X150272569Y-133406244D01*
X150283095Y-133400433D01*
X150293758Y-133395001D01*
X150304552Y-133389941D01*
X150315484Y-133385255D01*
X150326548Y-133380943D01*
X150337745Y-133377008D01*
X150349080Y-133373447D01*
X150360547Y-133370260D01*
X150372150Y-133367450D01*
X150383886Y-133365017D01*
X150395754Y-133362952D01*
X150407757Y-133361265D01*
X150419896Y-133359954D01*
X150432170Y-133359020D01*
X150444576Y-133358455D01*
X150457113Y-133358264D01*
X150741192Y-133358266D01*
G37*
G36*
X150376580Y-135688422D02*
G01*
X150062764Y-135688422D01*
X150054514Y-135688248D01*
X150046429Y-135687722D01*
X150038513Y-135686848D01*
X150030771Y-135685631D01*
X150023192Y-135684062D01*
X150015783Y-135682140D01*
X150008545Y-135679873D01*
X150001472Y-135677254D01*
X149994567Y-135674287D01*
X149987836Y-135670974D01*
X149981267Y-135667307D01*
X149974872Y-135663295D01*
X149968641Y-135658930D01*
X149962581Y-135654220D01*
X149956688Y-135649160D01*
X149950966Y-135643752D01*
X149945505Y-135638086D01*
X149940392Y-135632250D01*
X149935634Y-135626249D01*
X149931230Y-135620080D01*
X149927179Y-135613748D01*
X149923476Y-135607244D01*
X149920130Y-135600576D01*
X149917131Y-135593741D01*
X149914488Y-135586738D01*
X149912196Y-135579570D01*
X149910260Y-135572233D01*
X149908677Y-135564732D01*
X149907440Y-135557060D01*
X149906557Y-135549221D01*
X149906033Y-135541220D01*
X149905852Y-135533048D01*
X149906031Y-135524878D01*
X149906559Y-135516875D01*
X149907440Y-135509036D01*
X149908674Y-135501366D01*
X149910260Y-135493863D01*
X149912194Y-135486526D01*
X149914488Y-135479361D01*
X149917134Y-135472357D01*
X149920130Y-135465520D01*
X149923476Y-135458852D01*
X149927177Y-135452348D01*
X149931230Y-135446016D01*
X149935634Y-135439847D01*
X149940392Y-135433848D01*
X149945505Y-135428013D01*
X149950966Y-135422344D01*
X149956688Y-135416936D01*
X149962581Y-135411879D01*
X149968643Y-135407166D01*
X149974872Y-135402804D01*
X149981270Y-135398791D01*
X149987836Y-135395126D01*
X149994567Y-135391812D01*
X150001472Y-135388842D01*
X150008543Y-135386225D01*
X150015781Y-135383956D01*
X150023192Y-135382041D01*
X150030771Y-135380470D01*
X150038513Y-135379246D01*
X150046429Y-135378374D01*
X150054512Y-135377848D01*
X150062764Y-135377679D01*
X150376578Y-135377674D01*
X150376580Y-135688422D01*
G37*
G36*
X146074034Y-133358735D02*
G01*
X146089618Y-133359466D01*
X146105025Y-133360688D01*
X146120261Y-133362397D01*
X146135319Y-133364592D01*
X146150205Y-133367279D01*
X146164915Y-133370449D01*
X146179451Y-133374111D01*
X146193815Y-133378261D01*
X146208003Y-133382899D01*
X146222016Y-133388024D01*
X146235854Y-133393637D01*
X146249518Y-133399740D01*
X146263006Y-133406329D01*
X146276328Y-133413407D01*
X146289469Y-133420976D01*
X146302382Y-133428844D01*
X146314955Y-133437045D01*
X146327200Y-133445584D01*
X146339107Y-133454463D01*
X146350674Y-133463673D01*
X146361905Y-133473224D01*
X146372800Y-133483113D01*
X146383360Y-133493332D01*
X146393582Y-133503892D01*
X146403468Y-133514787D01*
X146413016Y-133526018D01*
X146422231Y-133537587D01*
X146431106Y-133549491D01*
X146439645Y-133561734D01*
X146447851Y-133574312D01*
X146455719Y-133587226D01*
X146463285Y-133600369D01*
X146470363Y-133613685D01*
X146476952Y-133627174D01*
X146483055Y-133640838D01*
X146488668Y-133654679D01*
X146493791Y-133668691D01*
X146498428Y-133682882D01*
X146502579Y-133697239D01*
X146506238Y-133711777D01*
X146509412Y-133726487D01*
X146512098Y-133741373D01*
X146514295Y-133756433D01*
X146516006Y-133771669D01*
X146517226Y-133787077D01*
X146517957Y-133802658D01*
X146518198Y-133818416D01*
X146518201Y-134172564D01*
X146517957Y-134188319D01*
X146517226Y-134203905D01*
X146516006Y-134219320D01*
X146514295Y-134234556D01*
X146512098Y-134249625D01*
X146509413Y-134264521D01*
X146506238Y-134279243D01*
X146502579Y-134293791D01*
X146498431Y-134308168D01*
X146493791Y-134322373D01*
X146488665Y-134336404D01*
X146483055Y-134350267D01*
X146476952Y-134363951D01*
X146470361Y-134377465D01*
X146463285Y-134390809D01*
X146455719Y-134403976D01*
X146447851Y-134416868D01*
X146439645Y-134429434D01*
X146431108Y-134441681D01*
X146422229Y-134453600D01*
X146413016Y-134465193D01*
X146403468Y-134476465D01*
X146393582Y-134487416D01*
X146383357Y-134498036D01*
X146372802Y-134508335D01*
X146361905Y-134518308D01*
X146350674Y-134527958D01*
X146339102Y-134537279D01*
X146327198Y-134546284D01*
X146314960Y-134554961D01*
X146302382Y-134563316D01*
X146289464Y-134571339D01*
X146276326Y-134578772D01*
X146263011Y-134585725D01*
X146249518Y-134592198D01*
X146235854Y-134598190D01*
X146222016Y-134603706D01*
X146208001Y-134608735D01*
X146193815Y-134613293D01*
X146179453Y-134617368D01*
X146164915Y-134620963D01*
X146150205Y-134624080D01*
X146135321Y-134626716D01*
X146120259Y-134628872D01*
X146105023Y-134630550D01*
X146089618Y-134631750D01*
X146074034Y-134632469D01*
X146058279Y-134632708D01*
X145780227Y-134632710D01*
X145764495Y-134632469D01*
X145748933Y-134631750D01*
X145733548Y-134630545D01*
X145718328Y-134628860D01*
X145703281Y-134626694D01*
X145688404Y-134624051D01*
X145673702Y-134620922D01*
X145659166Y-134617313D01*
X145644799Y-134613218D01*
X145630608Y-134608653D01*
X145616586Y-134603600D01*
X145602734Y-134598064D01*
X145589055Y-134592050D01*
X145575542Y-134585554D01*
X145562206Y-134578579D01*
X145549039Y-134571119D01*
X145536145Y-134563142D01*
X145523579Y-134554833D01*
X145511334Y-134546197D01*
X145499412Y-134537226D01*
X145487817Y-134527924D01*
X145476547Y-134518294D01*
X145465599Y-134508330D01*
X145454979Y-134498034D01*
X145444680Y-134487411D01*
X145434707Y-134476453D01*
X145425057Y-134465164D01*
X145415729Y-134453542D01*
X145406728Y-134441592D01*
X145398052Y-134429311D01*
X145389701Y-134416699D01*
X145381674Y-134403754D01*
X145374243Y-134390611D01*
X145367290Y-134377294D01*
X145360815Y-134363803D01*
X145354823Y-134350139D01*
X145349311Y-134336301D01*
X145344275Y-134322286D01*
X145339719Y-134308098D01*
X145335647Y-134293738D01*
X145332049Y-134279202D01*
X145328935Y-134264490D01*
X145326296Y-134249604D01*
X145324138Y-134234544D01*
X145322458Y-134219308D01*
X145321263Y-134203903D01*
X145320541Y-134188319D01*
X145320304Y-134172566D01*
X145320300Y-134170106D01*
X145320300Y-133820868D01*
X145579832Y-133820868D01*
X145579832Y-134170108D01*
X145580064Y-134180475D01*
X145580757Y-134190663D01*
X145581911Y-134200663D01*
X145583526Y-134210484D01*
X145585607Y-134220119D01*
X145588147Y-134229573D01*
X145591153Y-134238844D01*
X145594615Y-134247933D01*
X145598545Y-134256837D01*
X145602934Y-134265559D01*
X145607784Y-134274096D01*
X145613095Y-134282451D01*
X145618873Y-134290624D01*
X145625108Y-134298615D01*
X145631805Y-134306415D01*
X145638966Y-134314039D01*
X145646426Y-134321202D01*
X145654062Y-134327899D01*
X145661887Y-134334140D01*
X145669887Y-134339912D01*
X145678076Y-134345226D01*
X145686446Y-134350076D01*
X145695002Y-134354467D01*
X145703739Y-134358393D01*
X145712660Y-134361860D01*
X145721764Y-134364863D01*
X145731049Y-134367403D01*
X145740518Y-134369481D01*
X145750172Y-134371099D01*
X145760005Y-134372253D01*
X145770024Y-134372946D01*
X145780227Y-134373178D01*
X146058276Y-134373178D01*
X146068636Y-134372946D01*
X146078795Y-134372255D01*
X146088749Y-134371099D01*
X146098502Y-134369484D01*
X146108050Y-134367403D01*
X146117398Y-134364863D01*
X146126543Y-134361856D01*
X146135488Y-134358393D01*
X146144230Y-134354465D01*
X146152771Y-134350076D01*
X146161105Y-134345226D01*
X146169243Y-134339915D01*
X146177171Y-134334135D01*
X146184904Y-134327904D01*
X146192434Y-134321202D01*
X146199756Y-134314039D01*
X146206917Y-134306415D01*
X146213616Y-134298612D01*
X146219852Y-134290624D01*
X146225630Y-134282454D01*
X146230941Y-134274096D01*
X146235793Y-134265557D01*
X146240185Y-134256837D01*
X146244108Y-134247933D01*
X146247575Y-134238846D01*
X146250576Y-134229573D01*
X146253118Y-134220121D01*
X146255199Y-134210484D01*
X146256814Y-134200665D01*
X146257968Y-134190663D01*
X146258661Y-134180473D01*
X146258895Y-134170106D01*
X146258895Y-133820871D01*
X146258661Y-133810504D01*
X146257968Y-133800333D01*
X146256814Y-133790350D01*
X146255196Y-133780561D01*
X146253118Y-133770964D01*
X146250576Y-133761558D01*
X146247572Y-133752343D01*
X146244108Y-133743319D01*
X146240182Y-133734495D01*
X146235793Y-133725852D01*
X146230943Y-133717410D01*
X146225630Y-133709153D01*
X146219855Y-133701092D01*
X146213616Y-133693217D01*
X146206917Y-133685537D01*
X146199759Y-133678051D01*
X146192432Y-133670755D01*
X146184904Y-133663928D01*
X146177169Y-133657571D01*
X146169241Y-133651690D01*
X146161105Y-133646277D01*
X146152771Y-133641333D01*
X146144230Y-133636862D01*
X146135488Y-133632859D01*
X146126545Y-133629332D01*
X146117400Y-133626271D01*
X146108053Y-133623683D01*
X146098500Y-133621563D01*
X146088749Y-133619916D01*
X146078795Y-133618741D01*
X146068638Y-133618036D01*
X146058274Y-133617797D01*
X145780224Y-133617799D01*
X145770024Y-133618033D01*
X145760005Y-133618741D01*
X145750172Y-133619919D01*
X145740520Y-133621563D01*
X145731049Y-133623685D01*
X145721761Y-133626271D01*
X145712657Y-133629332D01*
X145703737Y-133632859D01*
X145695000Y-133636862D01*
X145686449Y-133641335D01*
X145678079Y-133646277D01*
X145669890Y-133651690D01*
X145661882Y-133657571D01*
X145654065Y-133663930D01*
X145646424Y-133670755D01*
X145638971Y-133678051D01*
X145631805Y-133685537D01*
X145625108Y-133693217D01*
X145618873Y-133701092D01*
X145613098Y-133709151D01*
X145607784Y-133717410D01*
X145602934Y-133725855D01*
X145598540Y-133734493D01*
X145594615Y-133743319D01*
X145591153Y-133752346D01*
X145588147Y-133761558D01*
X145585607Y-133770967D01*
X145583528Y-133780561D01*
X145581913Y-133790353D01*
X145580757Y-133800333D01*
X145580062Y-133810507D01*
X145579832Y-133820868D01*
X145320300Y-133820868D01*
X145320300Y-133818416D01*
X145320541Y-133802658D01*
X145321260Y-133787074D01*
X145322460Y-133771667D01*
X145324138Y-133756433D01*
X145326294Y-133741376D01*
X145328933Y-133726487D01*
X145332049Y-133711777D01*
X145335647Y-133697244D01*
X145339719Y-133682882D01*
X145344273Y-133668691D01*
X145349309Y-133654679D01*
X145354823Y-133640840D01*
X145360817Y-133627176D01*
X145367290Y-133613685D01*
X145374240Y-133600369D01*
X145381671Y-133587226D01*
X145389701Y-133574312D01*
X145398052Y-133561734D01*
X145406731Y-133549494D01*
X145415731Y-133537587D01*
X145425055Y-133526018D01*
X145434704Y-133514787D01*
X145444677Y-133503892D01*
X145454979Y-133493332D01*
X145465599Y-133483110D01*
X145476547Y-133473224D01*
X145487815Y-133463671D01*
X145499415Y-133454461D01*
X145511334Y-133445584D01*
X145523579Y-133437045D01*
X145536145Y-133428841D01*
X145549037Y-133420976D01*
X145562206Y-133413407D01*
X145575545Y-133406329D01*
X145589055Y-133399738D01*
X145602736Y-133393637D01*
X145616586Y-133388024D01*
X145630608Y-133382899D01*
X145644804Y-133378261D01*
X145659166Y-133374111D01*
X145673699Y-133370451D01*
X145688407Y-133367279D01*
X145703281Y-133364592D01*
X145718331Y-133362397D01*
X145733545Y-133360688D01*
X145748936Y-133359466D01*
X145764495Y-133358735D01*
X145780227Y-133358491D01*
X146058279Y-133358491D01*
X146074034Y-133358735D01*
G37*
G36*
X148194991Y-134632483D02*
G01*
X147967374Y-134632486D01*
X147572387Y-133964806D01*
X147176511Y-134632708D01*
X146948892Y-134632706D01*
X146727518Y-133358491D01*
X146988169Y-133358269D01*
X147134557Y-134202242D01*
X147449428Y-133664439D01*
X147694229Y-133664437D01*
X148009098Y-134202242D01*
X148155492Y-133358266D01*
X148415020Y-133358266D01*
X148194991Y-134632483D01*
G37*
G36*
X149439754Y-133358269D02*
G01*
X149452451Y-133358464D01*
X149464995Y-133359056D01*
X149477380Y-133360041D01*
X149489613Y-133361417D01*
X149501693Y-133363194D01*
X149513612Y-133365359D01*
X149525379Y-133367921D01*
X149536994Y-133370876D01*
X149548449Y-133374224D01*
X149559753Y-133377969D01*
X149570897Y-133382104D01*
X149581891Y-133386636D01*
X149592726Y-133391561D01*
X149603406Y-133396879D01*
X149613928Y-133402594D01*
X149624304Y-133408702D01*
X149634627Y-133414979D01*
X149644685Y-133421536D01*
X149654467Y-133428373D01*
X149663982Y-133435495D01*
X149673228Y-133442892D01*
X149682199Y-133450570D01*
X149690902Y-133458536D01*
X149699340Y-133466778D01*
X149707503Y-133475300D01*
X149715395Y-133484102D01*
X149723019Y-133493190D01*
X149730370Y-133502552D01*
X149737451Y-133512197D01*
X149744266Y-133522126D01*
X149750809Y-133532329D01*
X149757078Y-133542819D01*
X149763189Y-133553352D01*
X149768901Y-133564023D01*
X149774219Y-133574841D01*
X149779147Y-133585804D01*
X149783676Y-133596907D01*
X149787814Y-133608152D01*
X149791556Y-133619542D01*
X149794904Y-133631075D01*
X149797859Y-133642750D01*
X149800423Y-133654570D01*
X149802589Y-133666530D01*
X149804363Y-133678637D01*
X149805742Y-133690885D01*
X149806724Y-133703272D01*
X149807316Y-133715804D01*
X149807514Y-133728484D01*
X149807511Y-133764187D01*
X149807316Y-133776729D01*
X149806724Y-133789136D01*
X149805742Y-133801410D01*
X149804361Y-133813546D01*
X149802586Y-133825552D01*
X149800421Y-133837420D01*
X149797862Y-133849158D01*
X149794907Y-133860761D01*
X149791558Y-133872228D01*
X149787811Y-133883558D01*
X149783678Y-133894758D01*
X149779142Y-133905825D01*
X149774219Y-133916751D01*
X149768901Y-133927548D01*
X149763189Y-133938209D01*
X149757081Y-133948740D01*
X149750809Y-133958935D01*
X149744264Y-133968874D01*
X149737456Y-133978565D01*
X149730368Y-133988000D01*
X149723019Y-133997181D01*
X149715397Y-134006111D01*
X149707503Y-134014790D01*
X149699338Y-134023216D01*
X149690905Y-134031388D01*
X149682202Y-134039309D01*
X149673226Y-134046974D01*
X149663984Y-134054388D01*
X149654470Y-134061551D01*
X149644682Y-134068456D01*
X149634627Y-134075114D01*
X149624302Y-134081514D01*
X149613906Y-134087487D01*
X149603356Y-134093071D01*
X149592656Y-134098276D01*
X149581807Y-134103092D01*
X149570803Y-134107525D01*
X149559646Y-134111569D01*
X149548341Y-134115229D01*
X149536883Y-134118505D01*
X149525273Y-134121392D01*
X149513511Y-134123898D01*
X149501597Y-134126018D01*
X149489530Y-134127751D01*
X149477312Y-134129098D01*
X149464947Y-134130064D01*
X149452426Y-134130641D01*
X149439754Y-134130834D01*
X149043652Y-134130832D01*
X149043652Y-133872419D01*
X149442207Y-133872419D01*
X149447707Y-133872296D01*
X149453093Y-133871922D01*
X149458375Y-133871299D01*
X149463544Y-133870425D01*
X149468611Y-133869302D01*
X149473568Y-133867931D01*
X149478415Y-133866313D01*
X149483157Y-133864445D01*
X149487790Y-133862323D01*
X149492312Y-133859952D01*
X149496730Y-133857340D01*
X149501034Y-133854469D01*
X149505235Y-133851353D01*
X149509329Y-133847990D01*
X149513310Y-133844376D01*
X149517188Y-133840508D01*
X149521077Y-133836467D01*
X149524720Y-133832319D01*
X149528107Y-133828065D01*
X149531246Y-133823703D01*
X149534133Y-133819234D01*
X149536765Y-133814659D01*
X149539155Y-133809983D01*
X149541289Y-133805198D01*
X149543169Y-133800302D01*
X149544804Y-133795302D01*
X149546182Y-133790198D01*
X149547315Y-133784986D01*
X149548191Y-133779665D01*
X149548819Y-133774243D01*
X149549198Y-133768712D01*
X149549321Y-133763072D01*
X149549323Y-133728486D01*
X149549195Y-133722711D01*
X149548819Y-133717055D01*
X149548193Y-133711514D01*
X149547315Y-133706087D01*
X149546182Y-133700776D01*
X149544804Y-133695578D01*
X149543169Y-133690494D01*
X149541289Y-133685528D01*
X149539155Y-133680675D01*
X149536769Y-133675941D01*
X149534131Y-133671317D01*
X149531246Y-133666813D01*
X149528110Y-133662419D01*
X149524720Y-133658143D01*
X149521077Y-133653981D01*
X149517185Y-133649935D01*
X149513310Y-133646043D01*
X149509327Y-133642402D01*
X149505237Y-133639015D01*
X149501034Y-133635873D01*
X149496725Y-133632987D01*
X149492312Y-133630356D01*
X149487785Y-133627968D01*
X149483157Y-133625836D01*
X149478415Y-133623951D01*
X149473568Y-133622319D01*
X149468611Y-133620938D01*
X149463544Y-133619810D01*
X149458375Y-133618929D01*
X149453093Y-133618301D01*
X149447702Y-133617925D01*
X149442207Y-133617799D01*
X148896146Y-133617799D01*
X148896146Y-134272317D01*
X148896254Y-134277483D01*
X148896585Y-134282563D01*
X148897131Y-134287541D01*
X148897903Y-134292427D01*
X148898891Y-134297219D01*
X148900098Y-134301917D01*
X148901529Y-134306524D01*
X148903176Y-134311036D01*
X148905042Y-134315449D01*
X148907126Y-134319768D01*
X148909436Y-134323998D01*
X148911964Y-134328133D01*
X148914709Y-134332175D01*
X148917673Y-134336117D01*
X148920860Y-134339970D01*
X148924264Y-134343729D01*
X148927854Y-134347292D01*
X148931545Y-134350631D01*
X148935331Y-134353736D01*
X148939213Y-134356614D01*
X148943196Y-134359260D01*
X148947274Y-134361674D01*
X148951453Y-134363864D01*
X148955729Y-134365822D01*
X148960101Y-134367548D01*
X148964572Y-134369040D01*
X148969137Y-134370307D01*
X148973804Y-134371343D01*
X148978567Y-134372149D01*
X148983427Y-134372724D01*
X148988388Y-134373069D01*
X148993441Y-134373180D01*
X149717802Y-134373182D01*
X149717804Y-134632713D01*
X148993216Y-134632713D01*
X148981010Y-134632529D01*
X148968932Y-134631962D01*
X148956986Y-134631025D01*
X148945169Y-134629714D01*
X148933484Y-134628027D01*
X148921932Y-134625968D01*
X148910508Y-134623529D01*
X148899214Y-134620719D01*
X148888051Y-134617532D01*
X148877023Y-134613974D01*
X148866118Y-134610036D01*
X148855348Y-134605727D01*
X148844711Y-134601041D01*
X148834204Y-134595981D01*
X148823826Y-134590546D01*
X148813575Y-134584733D01*
X148803578Y-134578473D01*
X148793841Y-134571959D01*
X148784360Y-134565195D01*
X148775138Y-134558179D01*
X148766174Y-134550912D01*
X148757468Y-134543394D01*
X148749019Y-134535628D01*
X148740830Y-134527608D01*
X148732897Y-134519337D01*
X148725222Y-134510814D01*
X148717805Y-134502041D01*
X148710647Y-134493019D01*
X148703750Y-134483744D01*
X148697103Y-134474217D01*
X148690720Y-134464440D01*
X148684595Y-134454416D01*
X148678784Y-134444030D01*
X148673350Y-134433528D01*
X148668290Y-134422901D01*
X148663604Y-134412153D01*
X148659292Y-134401284D01*
X148655357Y-134390292D01*
X148651798Y-134379177D01*
X148648612Y-134367939D01*
X148645799Y-134356580D01*
X148643361Y-134345098D01*
X148641301Y-134333500D01*
X148639616Y-134321777D01*
X148638303Y-134309928D01*
X148637366Y-134297963D01*
X148636804Y-134285870D01*
X148636615Y-134273657D01*
X148636613Y-133621588D01*
X148636929Y-133608053D01*
X148637863Y-133594770D01*
X148639423Y-133581748D01*
X148641606Y-133568979D01*
X148644416Y-133556476D01*
X148647851Y-133544226D01*
X148651905Y-133532235D01*
X148656591Y-133520504D01*
X148661895Y-133509027D01*
X148667819Y-133497808D01*
X148674376Y-133486852D01*
X148681556Y-133476150D01*
X148689354Y-133465706D01*
X148697782Y-133455523D01*
X148706833Y-133445596D01*
X148716507Y-133435927D01*
X148726616Y-133426521D01*
X148736979Y-133417726D01*
X148747597Y-133409535D01*
X148758461Y-133401952D01*
X148769573Y-133394975D01*
X148780942Y-133388606D01*
X148792559Y-133382838D01*
X148804427Y-133377682D01*
X148816547Y-133373133D01*
X148828920Y-133369186D01*
X148841541Y-133365852D01*
X148854414Y-133363121D01*
X148867540Y-133360997D01*
X148880917Y-133359481D01*
X148894540Y-133358571D01*
X148908420Y-133358266D01*
X149439754Y-133358269D01*
G37*
G36*
X153340735Y-134105840D02*
G01*
X153733264Y-134105842D01*
X153733262Y-134365368D01*
X153340735Y-134365368D01*
X153340735Y-135018545D01*
X153340858Y-135023719D01*
X153341234Y-135028806D01*
X153341862Y-135033808D01*
X153342743Y-135038728D01*
X153343873Y-135043559D01*
X153345252Y-135048303D01*
X153346884Y-135052965D01*
X153348767Y-135057540D01*
X153350901Y-135062030D01*
X153353286Y-135066434D01*
X153355920Y-135070755D01*
X153358807Y-135074987D01*
X153361946Y-135079135D01*
X153365335Y-135083198D01*
X153368974Y-135087176D01*
X153372868Y-135091068D01*
X153377042Y-135094634D01*
X153381320Y-135097973D01*
X153385692Y-135101080D01*
X153390161Y-135103958D01*
X153394729Y-135106604D01*
X153399395Y-135109023D01*
X153404156Y-135111205D01*
X153409018Y-135113163D01*
X153413975Y-135114889D01*
X153419030Y-135116384D01*
X153424187Y-135117651D01*
X153429438Y-135118687D01*
X153434783Y-135119491D01*
X153440232Y-135120065D01*
X153445775Y-135120411D01*
X153451417Y-135120524D01*
X153733262Y-135120529D01*
X153733262Y-135380279D01*
X153447624Y-135380279D01*
X153435111Y-135380093D01*
X153422729Y-135379530D01*
X153410476Y-135378591D01*
X153398362Y-135377280D01*
X153386380Y-135375595D01*
X153374529Y-135373534D01*
X153362805Y-135371095D01*
X153351222Y-135368285D01*
X153339767Y-135365098D01*
X153328446Y-135361540D01*
X153317254Y-135357602D01*
X153306197Y-135353293D01*
X153295275Y-135348607D01*
X153284481Y-135343547D01*
X153273822Y-135338112D01*
X153263299Y-135332304D01*
X153253103Y-135326041D01*
X153243162Y-135319523D01*
X153233474Y-135312753D01*
X153224034Y-135305733D01*
X153214855Y-135298459D01*
X153205923Y-135290934D01*
X153197246Y-135283150D01*
X153188820Y-135275118D01*
X153180648Y-135266833D01*
X153172727Y-135258296D01*
X153165060Y-135249503D01*
X153157648Y-135240460D01*
X153150485Y-135231165D01*
X153143578Y-135221612D01*
X153136922Y-135211813D01*
X153130519Y-135201760D01*
X153124576Y-135191372D01*
X153119011Y-135180848D01*
X153113837Y-135170199D01*
X153109043Y-135159415D01*
X153104629Y-135148495D01*
X153100605Y-135137448D01*
X153096959Y-135126263D01*
X153093695Y-135114950D01*
X153090820Y-135103499D01*
X153088329Y-135091923D01*
X153086219Y-135080209D01*
X153084495Y-135068365D01*
X153083153Y-135056388D01*
X153082192Y-135044278D01*
X153081617Y-135032036D01*
X153081424Y-135019661D01*
X153081426Y-134365370D01*
X152915174Y-134365370D01*
X152915172Y-134105840D01*
X153081204Y-134105842D01*
X153081202Y-133630964D01*
X153340735Y-133630964D01*
X153340735Y-134105840D01*
G37*
D11*
X141401215Y-109818785D02*
X136501215Y-109818785D01*
D10*
G36*
X154617627Y-134364028D02*
G01*
X154333326Y-134364028D01*
X154327822Y-134364146D01*
X154322419Y-134364511D01*
X154317113Y-134365112D01*
X154311905Y-134365954D01*
X154306794Y-134367036D01*
X154301778Y-134368359D01*
X154296860Y-134369921D01*
X154292041Y-134371727D01*
X154287319Y-134373772D01*
X154282698Y-134376058D01*
X154278174Y-134378583D01*
X154273744Y-134381350D01*
X154269415Y-134384358D01*
X154265178Y-134387605D01*
X154261045Y-134391096D01*
X154257006Y-134394823D01*
X154253278Y-134398585D01*
X154249790Y-134402450D01*
X154246543Y-134406417D01*
X154243535Y-134410487D01*
X154240766Y-134414659D01*
X154238243Y-134418937D01*
X154235954Y-134423314D01*
X154233909Y-134427794D01*
X154232108Y-134432379D01*
X154230541Y-134437065D01*
X154229218Y-134441857D01*
X154228137Y-134446751D01*
X154227292Y-134451743D01*
X154226691Y-134456840D01*
X154226333Y-134462045D01*
X154226213Y-134467349D01*
X154226213Y-135380057D01*
X153966680Y-135380057D01*
X153966904Y-134462441D01*
X153967095Y-134450232D01*
X153967670Y-134438159D01*
X153968631Y-134426218D01*
X153969973Y-134414405D01*
X153971701Y-134402730D01*
X153973809Y-134391183D01*
X153976303Y-134379771D01*
X153979178Y-134368492D01*
X153982440Y-134357345D01*
X153986080Y-134346329D01*
X153990110Y-134335448D01*
X153994518Y-134324694D01*
X153999315Y-134314083D01*
X154004494Y-134303598D01*
X154010056Y-134293243D01*
X154015997Y-134283021D01*
X154022429Y-134272997D01*
X154029109Y-134263232D01*
X154036043Y-134253725D01*
X154043222Y-134244471D01*
X154050658Y-134235481D01*
X154058343Y-134226746D01*
X154066281Y-134218270D01*
X154074467Y-134210054D01*
X154082905Y-134202092D01*
X154091594Y-134194391D01*
X154100533Y-134186945D01*
X154109727Y-134179756D01*
X154119166Y-134172829D01*
X154128862Y-134166159D01*
X154138804Y-134159747D01*
X154149001Y-134153595D01*
X154159530Y-134147811D01*
X154170188Y-134142398D01*
X154180985Y-134137362D01*
X154191916Y-134132698D01*
X154202981Y-134128408D01*
X154214178Y-134124492D01*
X154225515Y-134120948D01*
X154236980Y-134117778D01*
X154248583Y-134114980D01*
X154260316Y-134112554D01*
X154272189Y-134110504D01*
X154284192Y-134108826D01*
X154296331Y-134107520D01*
X154308602Y-134106588D01*
X154321012Y-134106026D01*
X154333551Y-134105842D01*
X154617629Y-134105840D01*
X154617627Y-134364028D01*
G37*
D11*
X141901215Y-110318785D02*
X141401215Y-109818785D01*
D10*
G36*
X155112140Y-135380057D02*
G01*
X154851045Y-135380057D01*
X154851272Y-134105840D01*
X155112137Y-134105840D01*
X155112140Y-135380057D01*
G37*
D11*
X136501215Y-109818785D02*
X135676215Y-108993785D01*
D10*
G36*
X152424642Y-133358008D02*
G01*
X152432725Y-133358532D01*
X152440639Y-133359403D01*
X152448386Y-133360623D01*
X152455962Y-133362194D01*
X152463371Y-133364116D01*
X152470611Y-133366383D01*
X152477685Y-133369000D01*
X152484587Y-133371967D01*
X152491320Y-133375282D01*
X152497887Y-133378947D01*
X152504282Y-133382959D01*
X152510516Y-133387324D01*
X152516573Y-133392034D01*
X152522466Y-133397092D01*
X152528190Y-133402502D01*
X152533653Y-133408171D01*
X152538762Y-133414003D01*
X152543520Y-133420005D01*
X152547924Y-133426173D01*
X152551977Y-133432508D01*
X152555681Y-133439010D01*
X152559027Y-133445678D01*
X152562020Y-133452510D01*
X152564664Y-133459516D01*
X152566953Y-133466684D01*
X152568896Y-133474023D01*
X152570480Y-133481522D01*
X152571711Y-133489194D01*
X152572595Y-133497031D01*
X152573123Y-133505034D01*
X152573300Y-133513206D01*
X152573123Y-133521375D01*
X152572595Y-133529381D01*
X152571713Y-133537220D01*
X152570480Y-133544888D01*
X152568896Y-133552391D01*
X152566955Y-133559723D01*
X152564664Y-133566895D01*
X152562023Y-133573897D01*
X152559027Y-133580734D01*
X152555676Y-133587402D01*
X152551980Y-133593906D01*
X152547924Y-133600236D01*
X152543515Y-133606407D01*
X152538762Y-133612406D01*
X152533651Y-133618241D01*
X152528188Y-133623910D01*
X152522463Y-133629315D01*
X152516575Y-133634380D01*
X152510513Y-133639090D01*
X152504282Y-133643453D01*
X152497887Y-133647463D01*
X152491320Y-133651126D01*
X152484584Y-133654445D01*
X152477685Y-133657412D01*
X152470613Y-133660031D01*
X152463373Y-133662296D01*
X152455962Y-133664215D01*
X152448386Y-133665787D01*
X152440641Y-133667011D01*
X152432727Y-133667882D01*
X152424644Y-133668406D01*
X152416393Y-133668580D01*
X151867210Y-133668577D01*
X151855069Y-133668843D01*
X151843154Y-133669640D01*
X151831472Y-133670970D01*
X151820017Y-133672829D01*
X151808793Y-133675219D01*
X151797796Y-133678138D01*
X151787034Y-133681588D01*
X151776496Y-133685571D01*
X151766192Y-133690086D01*
X151756120Y-133695134D01*
X151746275Y-133700708D01*
X151736659Y-133706814D01*
X151727275Y-133713453D01*
X151718118Y-133720623D01*
X151709192Y-133728322D01*
X151700496Y-133736554D01*
X151692182Y-133745163D01*
X151684408Y-133754002D01*
X151677165Y-133763070D01*
X151670461Y-133772362D01*
X151664295Y-133781884D01*
X151658665Y-133791635D01*
X151653569Y-133801608D01*
X151649013Y-133811813D01*
X151644989Y-133822247D01*
X151641502Y-133832906D01*
X151638555Y-133843789D01*
X151636138Y-133854904D01*
X151634265Y-133866246D01*
X151632920Y-133877815D01*
X151632116Y-133889613D01*
X151631846Y-133901636D01*
X151632118Y-133913661D01*
X151632922Y-133925462D01*
X151634262Y-133937031D01*
X151636141Y-133948373D01*
X151638555Y-133959483D01*
X151641500Y-133970371D01*
X151644989Y-133981030D01*
X151649013Y-133991462D01*
X151653569Y-134001664D01*
X151658663Y-134011642D01*
X151664295Y-134021391D01*
X151670463Y-134030912D01*
X151677168Y-134040204D01*
X151684408Y-134049270D01*
X151692182Y-134058106D01*
X151700494Y-134066720D01*
X151709192Y-134074950D01*
X151718118Y-134082654D01*
X151727272Y-134089821D01*
X151736659Y-134096458D01*
X151746275Y-134102568D01*
X151756120Y-134108143D01*
X151766197Y-134113189D01*
X151776498Y-134117703D01*
X151787034Y-134121684D01*
X151797799Y-134125137D01*
X151808793Y-134128060D01*
X151820014Y-134130448D01*
X151831470Y-134132307D01*
X151843154Y-134133632D01*
X151855069Y-134134429D01*
X151867212Y-134134699D01*
X152102576Y-134134697D01*
X152134649Y-134135409D01*
X152166135Y-134137548D01*
X152197042Y-134141114D01*
X152227367Y-134146109D01*
X152257110Y-134152526D01*
X152286266Y-134160367D01*
X152314844Y-134169640D01*
X152342841Y-134180335D01*
X152370255Y-134192459D01*
X152397086Y-134206010D01*
X152423333Y-134220986D01*
X152449001Y-134237388D01*
X152474085Y-134255217D01*
X152498582Y-134274473D01*
X152522505Y-134295153D01*
X152545843Y-134317260D01*
X152568167Y-134340366D01*
X152589052Y-134364052D01*
X152608499Y-134388315D01*
X152626502Y-134413155D01*
X152643066Y-134438567D01*
X152658191Y-134464560D01*
X152671870Y-134491124D01*
X152684114Y-134518272D01*
X152694918Y-134545992D01*
X152704283Y-134574294D01*
X152712204Y-134603163D01*
X152718686Y-134632616D01*
X152723727Y-134662642D01*
X152727329Y-134693247D01*
X152729490Y-134724429D01*
X152730209Y-134756185D01*
X152729490Y-134787944D01*
X152727329Y-134819124D01*
X152723727Y-134849729D01*
X152718688Y-134879757D01*
X152712204Y-134909205D01*
X152704280Y-134938082D01*
X152694918Y-134966379D01*
X152684117Y-134994099D01*
X152671874Y-135021247D01*
X152658191Y-135047813D01*
X152643066Y-135073807D01*
X152626502Y-135099219D01*
X152608496Y-135124056D01*
X152589050Y-135148319D01*
X152568165Y-135172005D01*
X152545843Y-135195114D01*
X152522505Y-135217220D01*
X152498584Y-135237901D01*
X152474083Y-135257156D01*
X152448999Y-135274983D01*
X152423331Y-135291388D01*
X152397086Y-135306363D01*
X152370255Y-135319911D01*
X152342844Y-135332036D01*
X152314844Y-135342733D01*
X152286269Y-135352006D01*
X152257108Y-135359847D01*
X152227365Y-135366267D01*
X152197042Y-135371257D01*
X152166133Y-135374823D01*
X152134647Y-135376962D01*
X152102574Y-135377676D01*
X151788755Y-135377674D01*
X151788755Y-135066931D01*
X152102574Y-135066931D01*
X152118611Y-135066574D01*
X152134357Y-135065504D01*
X152149808Y-135063720D01*
X152164972Y-135061229D01*
X152179841Y-135058018D01*
X152194423Y-135054097D01*
X152208710Y-135049459D01*
X152222707Y-135044109D01*
X152236415Y-135038052D01*
X152249829Y-135031273D01*
X152262952Y-135023786D01*
X152275786Y-135015585D01*
X152288331Y-135006670D01*
X152300578Y-134997042D01*
X152312538Y-134986704D01*
X152324206Y-134975647D01*
X152335372Y-134964095D01*
X152345813Y-134952251D01*
X152355538Y-134940122D01*
X152364538Y-134927701D01*
X152372821Y-134914995D01*
X152380382Y-134901999D01*
X152387224Y-134888716D01*
X152393347Y-134875146D01*
X152398745Y-134861281D01*
X152403428Y-134847136D01*
X152407388Y-134832697D01*
X152410630Y-134817972D01*
X152413150Y-134802958D01*
X152414949Y-134787655D01*
X152416030Y-134772064D01*
X152416393Y-134756188D01*
X152416028Y-134740310D01*
X152414949Y-134724716D01*
X152413150Y-134709415D01*
X152410630Y-134694401D01*
X152407390Y-134679677D01*
X152403426Y-134665237D01*
X152398747Y-134651092D01*
X152393347Y-134637230D01*
X152387224Y-134623657D01*
X152380380Y-134610372D01*
X152372821Y-134597376D01*
X152364540Y-134584670D01*
X152355538Y-134572251D01*
X152345813Y-134560120D01*
X152335372Y-134548276D01*
X152324211Y-134536724D01*
X152312538Y-134525669D01*
X152300578Y-134515329D01*
X152288328Y-134505701D01*
X152275789Y-134496788D01*
X152262955Y-134488587D01*
X152249829Y-134481098D01*
X152236411Y-134474324D01*
X152222707Y-134468264D01*
X152208712Y-134462914D01*
X152194423Y-134458279D01*
X152179843Y-134454356D01*
X152164972Y-134451147D01*
X152149808Y-134448651D01*
X152134355Y-134446867D01*
X152118609Y-134445797D01*
X152102576Y-134445442D01*
X151867210Y-134445440D01*
X151839031Y-134444817D01*
X151811374Y-134442951D01*
X151784236Y-134439839D01*
X151757621Y-134435486D01*
X151731524Y-134429888D01*
X151705947Y-134423046D01*
X151680900Y-134414958D01*
X151656367Y-134405625D01*
X151632353Y-134395050D01*
X151608862Y-134383230D01*
X151585893Y-134370170D01*
X151563446Y-134355858D01*
X151541520Y-134340306D01*
X151520111Y-134323510D01*
X151499226Y-134305469D01*
X151478864Y-134286186D01*
X151459389Y-134266020D01*
X151441169Y-134245338D01*
X151424204Y-134224141D01*
X151408497Y-134202428D01*
X151394050Y-134180200D01*
X151380857Y-134157456D01*
X151368921Y-134134197D01*
X151358240Y-134110422D01*
X151348815Y-134086128D01*
X151340648Y-134061319D01*
X151333739Y-134035994D01*
X151328084Y-134010155D01*
X151323686Y-133983799D01*
X151320545Y-133956931D01*
X151318662Y-133929542D01*
X151318032Y-133901636D01*
X151318659Y-133873732D01*
X151320540Y-133846346D01*
X151323686Y-133819473D01*
X151328082Y-133793119D01*
X151333739Y-133767278D01*
X151340648Y-133741955D01*
X151348818Y-133717149D01*
X151358238Y-133692855D01*
X151368918Y-133669079D01*
X151380857Y-133645819D01*
X151394048Y-133623074D01*
X151408497Y-133600847D01*
X151424206Y-133579136D01*
X151441166Y-133557936D01*
X151459389Y-133537256D01*
X151478862Y-133517090D01*
X151499228Y-133497808D01*
X151520113Y-133479767D01*
X151541518Y-133462966D01*
X151563449Y-133447416D01*
X151585896Y-133433107D01*
X151608865Y-133420044D01*
X151632355Y-133408226D01*
X151656367Y-133397647D01*
X151680898Y-133388316D01*
X151705950Y-133380226D01*
X151731528Y-133373387D01*
X151757621Y-133367786D01*
X151784236Y-133363433D01*
X151811374Y-133360321D01*
X151839033Y-133358455D01*
X151867210Y-133357832D01*
X152416393Y-133357832D01*
X152424642Y-133358008D01*
G37*
D12*
G36*
X143742243Y-136265369D02*
G01*
X144351507Y-136265369D01*
X144351507Y-136875000D01*
X144645331Y-136875000D01*
X144645331Y-135397819D01*
X144351507Y-135397819D01*
X144351507Y-136013677D01*
X143742243Y-136013677D01*
X143742243Y-135397819D01*
X143448419Y-135397819D01*
X143448419Y-136875000D01*
X143742243Y-136875000D01*
X143742243Y-136265369D01*
G37*
G36*
X146293237Y-136875000D02*
G01*
X145978164Y-136875000D01*
X145831252Y-136476395D01*
X145285369Y-136476395D01*
X145138091Y-136875000D01*
X144823384Y-136875000D01*
X145063697Y-136224703D01*
X145379891Y-136224703D01*
X145736730Y-136224703D01*
X145558311Y-135743300D01*
X145379891Y-136224703D01*
X145063697Y-136224703D01*
X145369267Y-135397819D01*
X145747355Y-135397819D01*
X146293237Y-136875000D01*
G37*
G36*
X147059672Y-136875000D02*
G01*
X147584672Y-135397819D01*
X147269598Y-135397819D01*
X146881252Y-136526953D01*
X146870628Y-136526953D01*
X146481915Y-135397819D01*
X146167208Y-135397819D01*
X146692208Y-136875000D01*
X147059672Y-136875000D01*
G37*
G36*
X148970628Y-135649877D02*
G01*
X148970628Y-136623307D01*
X148697686Y-136875000D01*
X147983642Y-136875000D01*
X147710701Y-136623307D01*
X147710701Y-135751360D01*
X148004525Y-135751360D01*
X148004525Y-136521824D01*
X148120296Y-136623307D01*
X148561032Y-136623307D01*
X148676803Y-136521824D01*
X148676803Y-135751360D01*
X148561032Y-135649877D01*
X148120296Y-135649877D01*
X148004525Y-135751360D01*
X147710701Y-135751360D01*
X147710701Y-135649877D01*
X147983642Y-135397819D01*
X148697686Y-135397819D01*
X148970628Y-135649877D01*
G37*
G36*
X150377100Y-136623307D02*
G01*
X149673681Y-136623307D01*
X149557909Y-136517428D01*
X149557909Y-135755757D01*
X149673681Y-135649877D01*
X150377100Y-135649877D01*
X150377100Y-135397819D01*
X149537027Y-135397819D01*
X149264085Y-135649877D01*
X149264085Y-136623307D01*
X149537027Y-136875000D01*
X150377100Y-136875000D01*
X150377100Y-136623307D01*
G37*
D11*
X148369285Y-140928628D02*
X148327618Y-140881009D01*
X148327618Y-140881009D02*
X148238332Y-140833390D01*
X148238332Y-140833390D02*
X148143094Y-140833390D01*
X148143094Y-140833390D02*
X148041904Y-140881009D01*
X148041904Y-140881009D02*
X147988332Y-140928628D01*
X147988332Y-140928628D02*
X147928809Y-141023866D01*
X147928809Y-141023866D02*
X147916904Y-141119104D01*
X147916904Y-141119104D02*
X147952618Y-141214342D01*
X147952618Y-141214342D02*
X147994285Y-141261961D01*
X147994285Y-141261961D02*
X148083571Y-141309580D01*
X148083571Y-141309580D02*
X148178809Y-141309580D01*
X148178809Y-141309580D02*
X148279999Y-141261961D01*
X148279999Y-141261961D02*
X148333571Y-141214342D01*
X148381190Y-140833390D02*
X148333571Y-141214342D01*
X148333571Y-141214342D02*
X148375237Y-141261961D01*
X148375237Y-141261961D02*
X148422856Y-141261961D01*
X148422856Y-141261961D02*
X148524047Y-141214342D01*
X148524047Y-141214342D02*
X148583571Y-141119104D01*
X148583571Y-141119104D02*
X148613332Y-140881009D01*
X148613332Y-140881009D02*
X148535951Y-140738152D01*
X148535951Y-140738152D02*
X148404999Y-140642914D01*
X148404999Y-140642914D02*
X148220475Y-140595295D01*
X148220475Y-140595295D02*
X148024047Y-140642914D01*
X148024047Y-140642914D02*
X147869285Y-140738152D01*
X147869285Y-140738152D02*
X147756190Y-140881009D01*
X147756190Y-140881009D02*
X147684761Y-141071485D01*
X147684761Y-141071485D02*
X147708571Y-141261961D01*
X147708571Y-141261961D02*
X147785951Y-141404819D01*
X147785951Y-141404819D02*
X147916904Y-141500057D01*
X147916904Y-141500057D02*
X148101428Y-141547676D01*
X148101428Y-141547676D02*
X148297856Y-141500057D01*
X148297856Y-141500057D02*
X148452618Y-141404819D01*
X149404999Y-141404819D02*
X149529999Y-140404819D01*
X149410951Y-141357200D02*
X149309761Y-141404819D01*
X149309761Y-141404819D02*
X149119285Y-141404819D01*
X149119285Y-141404819D02*
X149029999Y-141357200D01*
X149029999Y-141357200D02*
X148988332Y-141309580D01*
X148988332Y-141309580D02*
X148952618Y-141214342D01*
X148952618Y-141214342D02*
X148988332Y-140928628D01*
X148988332Y-140928628D02*
X149047856Y-140833390D01*
X149047856Y-140833390D02*
X149101427Y-140785771D01*
X149101427Y-140785771D02*
X149202618Y-140738152D01*
X149202618Y-140738152D02*
X149393094Y-140738152D01*
X149393094Y-140738152D02*
X149482380Y-140785771D01*
X150268094Y-141357200D02*
X150166904Y-141404819D01*
X150166904Y-141404819D02*
X149976427Y-141404819D01*
X149976427Y-141404819D02*
X149887142Y-141357200D01*
X149887142Y-141357200D02*
X149851427Y-141261961D01*
X149851427Y-141261961D02*
X149899047Y-140881009D01*
X149899047Y-140881009D02*
X149958570Y-140785771D01*
X149958570Y-140785771D02*
X150059761Y-140738152D01*
X150059761Y-140738152D02*
X150250237Y-140738152D01*
X150250237Y-140738152D02*
X150339523Y-140785771D01*
X150339523Y-140785771D02*
X150375237Y-140881009D01*
X150375237Y-140881009D02*
X150363332Y-140976247D01*
X150363332Y-140976247D02*
X149875237Y-141071485D01*
X150738332Y-141404819D02*
X150863332Y-140404819D01*
X150881190Y-141023866D02*
X151119285Y-141404819D01*
X151202618Y-140738152D02*
X150774047Y-141119104D01*
X152059761Y-140738152D02*
X151976428Y-141404819D01*
X151631190Y-140738152D02*
X151565714Y-141261961D01*
X151565714Y-141261961D02*
X151601428Y-141357200D01*
X151601428Y-141357200D02*
X151690714Y-141404819D01*
X151690714Y-141404819D02*
X151833571Y-141404819D01*
X151833571Y-141404819D02*
X151934761Y-141357200D01*
X151934761Y-141357200D02*
X151988333Y-141309580D01*
X152535952Y-140738152D02*
X152452618Y-141404819D01*
X152524047Y-140833390D02*
X152577618Y-140785771D01*
X152577618Y-140785771D02*
X152678809Y-140738152D01*
X152678809Y-140738152D02*
X152821666Y-140738152D01*
X152821666Y-140738152D02*
X152910952Y-140785771D01*
X152910952Y-140785771D02*
X152946666Y-140881009D01*
X152946666Y-140881009D02*
X152881190Y-141404819D01*
X153869285Y-140738152D02*
X153785952Y-141404819D01*
X153440714Y-140738152D02*
X153375238Y-141261961D01*
X153375238Y-141261961D02*
X153410952Y-141357200D01*
X153410952Y-141357200D02*
X153500238Y-141404819D01*
X153500238Y-141404819D02*
X153643095Y-141404819D01*
X153643095Y-141404819D02*
X153744285Y-141357200D01*
X153744285Y-141357200D02*
X153797857Y-141309580D01*
X154202619Y-140738152D02*
X154583571Y-140738152D01*
X154387142Y-140404819D02*
X154280000Y-141261961D01*
X154280000Y-141261961D02*
X154315714Y-141357200D01*
X154315714Y-141357200D02*
X154405000Y-141404819D01*
X154405000Y-141404819D02*
X154500238Y-141404819D01*
X143285533Y-113501904D02*
X143285533Y-111978095D01*
X143666485Y-112359047D02*
X143285533Y-111978095D01*
X143285533Y-111978095D02*
X142904580Y-112359047D01*
X144490714Y-139128628D02*
X144449047Y-139081009D01*
X144449047Y-139081009D02*
X144359761Y-139033390D01*
X144359761Y-139033390D02*
X144264523Y-139033390D01*
X144264523Y-139033390D02*
X144163333Y-139081009D01*
X144163333Y-139081009D02*
X144109761Y-139128628D01*
X144109761Y-139128628D02*
X144050238Y-139223866D01*
X144050238Y-139223866D02*
X144038333Y-139319104D01*
X144038333Y-139319104D02*
X144074047Y-139414342D01*
X144074047Y-139414342D02*
X144115714Y-139461961D01*
X144115714Y-139461961D02*
X144205000Y-139509580D01*
X144205000Y-139509580D02*
X144300238Y-139509580D01*
X144300238Y-139509580D02*
X144401428Y-139461961D01*
X144401428Y-139461961D02*
X144455000Y-139414342D01*
X144502619Y-139033390D02*
X144455000Y-139414342D01*
X144455000Y-139414342D02*
X144496666Y-139461961D01*
X144496666Y-139461961D02*
X144544285Y-139461961D01*
X144544285Y-139461961D02*
X144645476Y-139414342D01*
X144645476Y-139414342D02*
X144705000Y-139319104D01*
X144705000Y-139319104D02*
X144734761Y-139081009D01*
X144734761Y-139081009D02*
X144657380Y-138938152D01*
X144657380Y-138938152D02*
X144526428Y-138842914D01*
X144526428Y-138842914D02*
X144341904Y-138795295D01*
X144341904Y-138795295D02*
X144145476Y-138842914D01*
X144145476Y-138842914D02*
X143990714Y-138938152D01*
X143990714Y-138938152D02*
X143877619Y-139081009D01*
X143877619Y-139081009D02*
X143806190Y-139271485D01*
X143806190Y-139271485D02*
X143830000Y-139461961D01*
X143830000Y-139461961D02*
X143907380Y-139604819D01*
X143907380Y-139604819D02*
X144038333Y-139700057D01*
X144038333Y-139700057D02*
X144222857Y-139747676D01*
X144222857Y-139747676D02*
X144419285Y-139700057D01*
X144419285Y-139700057D02*
X144574047Y-139604819D01*
X145240714Y-139604819D02*
X145151428Y-139557200D01*
X145151428Y-139557200D02*
X145115714Y-139461961D01*
X145115714Y-139461961D02*
X145222856Y-138604819D01*
X145764524Y-139604819D02*
X145675238Y-139557200D01*
X145675238Y-139557200D02*
X145633571Y-139509580D01*
X145633571Y-139509580D02*
X145597857Y-139414342D01*
X145597857Y-139414342D02*
X145633571Y-139128628D01*
X145633571Y-139128628D02*
X145693095Y-139033390D01*
X145693095Y-139033390D02*
X145746666Y-138985771D01*
X145746666Y-138985771D02*
X145847857Y-138938152D01*
X145847857Y-138938152D02*
X145990714Y-138938152D01*
X145990714Y-138938152D02*
X146080000Y-138985771D01*
X146080000Y-138985771D02*
X146121666Y-139033390D01*
X146121666Y-139033390D02*
X146157381Y-139128628D01*
X146157381Y-139128628D02*
X146121666Y-139414342D01*
X146121666Y-139414342D02*
X146062143Y-139509580D01*
X146062143Y-139509580D02*
X146008571Y-139557200D01*
X146008571Y-139557200D02*
X145907381Y-139604819D01*
X145907381Y-139604819D02*
X145764524Y-139604819D01*
X146669286Y-139604819D02*
X146580000Y-139557200D01*
X146580000Y-139557200D02*
X146538333Y-139509580D01*
X146538333Y-139509580D02*
X146502619Y-139414342D01*
X146502619Y-139414342D02*
X146538333Y-139128628D01*
X146538333Y-139128628D02*
X146597857Y-139033390D01*
X146597857Y-139033390D02*
X146651428Y-138985771D01*
X146651428Y-138985771D02*
X146752619Y-138938152D01*
X146752619Y-138938152D02*
X146895476Y-138938152D01*
X146895476Y-138938152D02*
X146984762Y-138985771D01*
X146984762Y-138985771D02*
X147026428Y-139033390D01*
X147026428Y-139033390D02*
X147062143Y-139128628D01*
X147062143Y-139128628D02*
X147026428Y-139414342D01*
X147026428Y-139414342D02*
X146966905Y-139509580D01*
X146966905Y-139509580D02*
X146913333Y-139557200D01*
X146913333Y-139557200D02*
X146812143Y-139604819D01*
X146812143Y-139604819D02*
X146669286Y-139604819D01*
X147514524Y-138938152D02*
X147389524Y-139938152D01*
X147508571Y-138985771D02*
X147609762Y-138938152D01*
X147609762Y-138938152D02*
X147800238Y-138938152D01*
X147800238Y-138938152D02*
X147889524Y-138985771D01*
X147889524Y-138985771D02*
X147931190Y-139033390D01*
X147931190Y-139033390D02*
X147966905Y-139128628D01*
X147966905Y-139128628D02*
X147931190Y-139414342D01*
X147931190Y-139414342D02*
X147871667Y-139509580D01*
X147871667Y-139509580D02*
X147818095Y-139557200D01*
X147818095Y-139557200D02*
X147716905Y-139604819D01*
X147716905Y-139604819D02*
X147526428Y-139604819D01*
X147526428Y-139604819D02*
X147437143Y-139557200D01*
X148419286Y-138938152D02*
X148312143Y-139795295D01*
X148312143Y-139795295D02*
X148252619Y-139890533D01*
X148252619Y-139890533D02*
X148151429Y-139938152D01*
X148151429Y-139938152D02*
X148103810Y-139938152D01*
X148460952Y-138604819D02*
X148407381Y-138652438D01*
X148407381Y-138652438D02*
X148449048Y-138700057D01*
X148449048Y-138700057D02*
X148502619Y-138652438D01*
X148502619Y-138652438D02*
X148460952Y-138604819D01*
X148460952Y-138604819D02*
X148449048Y-138700057D01*
G36*
X145143992Y-114984715D02*
G01*
X141439026Y-114984715D01*
X141439026Y-114074937D01*
X141550137Y-114074937D01*
X141552211Y-114104127D01*
X141565298Y-114130302D01*
X141587406Y-114149475D01*
X141615167Y-114158729D01*
X141644357Y-114156655D01*
X141658089Y-114151400D01*
X141753327Y-114103781D01*
X141759626Y-114099816D01*
X141761454Y-114099059D01*
X141763510Y-114097370D01*
X141765770Y-114095949D01*
X141767069Y-114094450D01*
X141772819Y-114089732D01*
X141835262Y-114027289D01*
X141835262Y-114723604D01*
X141624548Y-114723604D01*
X141609916Y-114725045D01*
X141582880Y-114736244D01*
X141562188Y-114756936D01*
X141550989Y-114783972D01*
X141550989Y-114813236D01*
X141562188Y-114840272D01*
X141582880Y-114860964D01*
X141609916Y-114872163D01*
X141624548Y-114873604D01*
X142195976Y-114873604D01*
X142210608Y-114872163D01*
X142237644Y-114860964D01*
X142258336Y-114840272D01*
X142269535Y-114813236D01*
X142269535Y-114783972D01*
X142258336Y-114756936D01*
X142237644Y-114736244D01*
X142210608Y-114725045D01*
X142195976Y-114723604D01*
X141985262Y-114723604D01*
X141985262Y-113807984D01*
X142407280Y-113807984D01*
X142410540Y-113822321D01*
X142743873Y-114822321D01*
X142749867Y-114835746D01*
X142753377Y-114839793D01*
X142755774Y-114844587D01*
X142762882Y-114850752D01*
X142769041Y-114857853D01*
X142773830Y-114860247D01*
X142777881Y-114863761D01*
X142786806Y-114866735D01*
X142795214Y-114870940D01*
X142800558Y-114871319D01*
X142805644Y-114873015D01*
X142815024Y-114872348D01*
X142824404Y-114873015D01*
X142829489Y-114871319D01*
X142834834Y-114870940D01*
X142843244Y-114866734D01*
X142852166Y-114863761D01*
X142856213Y-114860250D01*
X142861007Y-114857854D01*
X142867170Y-114850748D01*
X142874274Y-114844587D01*
X142876669Y-114839795D01*
X142880181Y-114835747D01*
X142886175Y-114822321D01*
X143219508Y-113822321D01*
X143222768Y-113807985D01*
X143221061Y-113783972D01*
X143312894Y-113783972D01*
X143312894Y-113813236D01*
X143324093Y-113840272D01*
X143344785Y-113860964D01*
X143371821Y-113872163D01*
X143386453Y-113873604D01*
X143840218Y-113873604D01*
X143615724Y-114130168D01*
X143611202Y-114136492D01*
X143609807Y-114137888D01*
X143609258Y-114139211D01*
X143607173Y-114142129D01*
X143603271Y-114153666D01*
X143598608Y-114164924D01*
X143598608Y-114167454D01*
X143597798Y-114169850D01*
X143598608Y-114182003D01*
X143598608Y-114194188D01*
X143599575Y-114196524D01*
X143599744Y-114199048D01*
X143605146Y-114209973D01*
X143609807Y-114221224D01*
X143611593Y-114223010D01*
X143612716Y-114225280D01*
X143621888Y-114233305D01*
X143630499Y-114241916D01*
X143632835Y-114242884D01*
X143634740Y-114244550D01*
X143646277Y-114248451D01*
X143657535Y-114253115D01*
X143661105Y-114253466D01*
X143662461Y-114253925D01*
X143664428Y-114253793D01*
X143672167Y-114254556D01*
X143797319Y-114254556D01*
X143865835Y-114288814D01*
X143896242Y-114319221D01*
X143930500Y-114387737D01*
X143930500Y-114590422D01*
X143896241Y-114658938D01*
X143865834Y-114689346D01*
X143797319Y-114723604D01*
X143547015Y-114723604D01*
X143478499Y-114689346D01*
X143439487Y-114650333D01*
X143428121Y-114641005D01*
X143401085Y-114629806D01*
X143371822Y-114629806D01*
X143344786Y-114641004D01*
X143324093Y-114661697D01*
X143312894Y-114688733D01*
X143312894Y-114717996D01*
X143324092Y-114745032D01*
X143333419Y-114756397D01*
X143381038Y-114804017D01*
X143386787Y-114808735D01*
X143388088Y-114810235D01*
X143390347Y-114811657D01*
X143392404Y-114813345D01*
X143394231Y-114814102D01*
X143400531Y-114818067D01*
X143495769Y-114865686D01*
X143509500Y-114870941D01*
X143512189Y-114871132D01*
X143514678Y-114872163D01*
X143529310Y-114873604D01*
X143815024Y-114873604D01*
X143829656Y-114872163D01*
X143832145Y-114871131D01*
X143834833Y-114870941D01*
X143848565Y-114865686D01*
X143943803Y-114818067D01*
X143950102Y-114814102D01*
X143951930Y-114813345D01*
X143953986Y-114811657D01*
X143956246Y-114810235D01*
X143957546Y-114808735D01*
X143963296Y-114804017D01*
X144010914Y-114756398D01*
X144015632Y-114750648D01*
X144017131Y-114749349D01*
X144018552Y-114747090D01*
X144020242Y-114745032D01*
X144020999Y-114743202D01*
X144024963Y-114736906D01*
X144072582Y-114641668D01*
X144077837Y-114627937D01*
X144078028Y-114625247D01*
X144079059Y-114622759D01*
X144080500Y-114608127D01*
X144080500Y-114370032D01*
X144079059Y-114355400D01*
X144078028Y-114352911D01*
X144077837Y-114350222D01*
X144072582Y-114336491D01*
X144045353Y-114282034D01*
X144311803Y-114282034D01*
X144312894Y-114285649D01*
X144312894Y-114289425D01*
X144317088Y-114299550D01*
X144320256Y-114310050D01*
X144322647Y-114312973D01*
X144324093Y-114316462D01*
X144331846Y-114324215D01*
X144338787Y-114332698D01*
X144342113Y-114334482D01*
X144344785Y-114337154D01*
X144354912Y-114341349D01*
X144364574Y-114346532D01*
X144368333Y-114346907D01*
X144371822Y-114348353D01*
X144382783Y-114348353D01*
X144393693Y-114349444D01*
X144397309Y-114348353D01*
X144401084Y-114348353D01*
X144411209Y-114344158D01*
X144421709Y-114340991D01*
X144424632Y-114338599D01*
X144428121Y-114337154D01*
X144439486Y-114327827D01*
X144478499Y-114288814D01*
X144547015Y-114254556D01*
X144749700Y-114254556D01*
X144818216Y-114288814D01*
X144848623Y-114319221D01*
X144882881Y-114387737D01*
X144882881Y-114590422D01*
X144848622Y-114658938D01*
X144818215Y-114689346D01*
X144749700Y-114723604D01*
X144547015Y-114723604D01*
X144478499Y-114689346D01*
X144439487Y-114650333D01*
X144428121Y-114641005D01*
X144401085Y-114629806D01*
X144371822Y-114629806D01*
X144344786Y-114641004D01*
X144324093Y-114661697D01*
X144312894Y-114688733D01*
X144312894Y-114717996D01*
X144324092Y-114745032D01*
X144333419Y-114756397D01*
X144381038Y-114804017D01*
X144386787Y-114808735D01*
X144388088Y-114810235D01*
X144390347Y-114811657D01*
X144392404Y-114813345D01*
X144394231Y-114814102D01*
X144400531Y-114818067D01*
X144495769Y-114865686D01*
X144509500Y-114870941D01*
X144512189Y-114871132D01*
X144514678Y-114872163D01*
X144529310Y-114873604D01*
X144767405Y-114873604D01*
X144782037Y-114872163D01*
X144784526Y-114871131D01*
X144787214Y-114870941D01*
X144800946Y-114865686D01*
X144896184Y-114818067D01*
X144902483Y-114814102D01*
X144904311Y-114813345D01*
X144906367Y-114811657D01*
X144908627Y-114810235D01*
X144909927Y-114808735D01*
X144915677Y-114804017D01*
X144963295Y-114756398D01*
X144968013Y-114750648D01*
X144969512Y-114749349D01*
X144970933Y-114747090D01*
X144972623Y-114745032D01*
X144973380Y-114743202D01*
X144977344Y-114736906D01*
X145024963Y-114641668D01*
X145030218Y-114627937D01*
X145030409Y-114625247D01*
X145031440Y-114622759D01*
X145032881Y-114608127D01*
X145032881Y-114370032D01*
X145031440Y-114355400D01*
X145030409Y-114352911D01*
X145030218Y-114350222D01*
X145024963Y-114336491D01*
X144977344Y-114241253D01*
X144973379Y-114234953D01*
X144972622Y-114233126D01*
X144970933Y-114231069D01*
X144969512Y-114228810D01*
X144968013Y-114227510D01*
X144963295Y-114221761D01*
X144915676Y-114174142D01*
X144909926Y-114169423D01*
X144908627Y-114167925D01*
X144906367Y-114166503D01*
X144904311Y-114164815D01*
X144902483Y-114164057D01*
X144896184Y-114160093D01*
X144800946Y-114112474D01*
X144787214Y-114107219D01*
X144784526Y-114107028D01*
X144782037Y-114105997D01*
X144767405Y-114104556D01*
X144529310Y-114104556D01*
X144514678Y-114105997D01*
X144512189Y-114107027D01*
X144509500Y-114107219D01*
X144495769Y-114112474D01*
X144477127Y-114121794D01*
X144501946Y-113873604D01*
X144910262Y-113873604D01*
X144924894Y-113872163D01*
X144951930Y-113860964D01*
X144972622Y-113840272D01*
X144983821Y-113813236D01*
X144983821Y-113783972D01*
X144972622Y-113756936D01*
X144951930Y-113736244D01*
X144924894Y-113725045D01*
X144910262Y-113723604D01*
X144434072Y-113723604D01*
X144428660Y-113724136D01*
X144426832Y-113723954D01*
X144425045Y-113724492D01*
X144419440Y-113725045D01*
X144409313Y-113729239D01*
X144398816Y-113732407D01*
X144395892Y-113734798D01*
X144392404Y-113736244D01*
X144384650Y-113743997D01*
X144376168Y-113750938D01*
X144374383Y-113754264D01*
X144371712Y-113756936D01*
X144367516Y-113767065D01*
X144362334Y-113776725D01*
X144361226Y-113782249D01*
X144360513Y-113783972D01*
X144360513Y-113785808D01*
X144359444Y-113791141D01*
X144311825Y-114267331D01*
X144311803Y-114282034D01*
X144045353Y-114282034D01*
X144024963Y-114241253D01*
X144020998Y-114234953D01*
X144020241Y-114233126D01*
X144018552Y-114231069D01*
X144017131Y-114228810D01*
X144015632Y-114227510D01*
X144010914Y-114221761D01*
X143963295Y-114174142D01*
X143957545Y-114169423D01*
X143956246Y-114167925D01*
X143953986Y-114166503D01*
X143951930Y-114164815D01*
X143950102Y-114164057D01*
X143943803Y-114160093D01*
X143848565Y-114112474D01*
X143835047Y-114107301D01*
X144061943Y-113847992D01*
X144066464Y-113841667D01*
X144067860Y-113840272D01*
X144068408Y-113838948D01*
X144070494Y-113836031D01*
X144074395Y-113824493D01*
X144079059Y-113813236D01*
X144079059Y-113810705D01*
X144079869Y-113808310D01*
X144079059Y-113796156D01*
X144079059Y-113783972D01*
X144078091Y-113781635D01*
X144077923Y-113779112D01*
X144072520Y-113768186D01*
X144067860Y-113756936D01*
X144066073Y-113755149D01*
X144064951Y-113752880D01*
X144055778Y-113744854D01*
X144047168Y-113736244D01*
X144044831Y-113735275D01*
X144042927Y-113733610D01*
X144031389Y-113729708D01*
X144020132Y-113725045D01*
X144016561Y-113724693D01*
X144015206Y-113724235D01*
X144013238Y-113724366D01*
X144005500Y-113723604D01*
X143386453Y-113723604D01*
X143371821Y-113725045D01*
X143344785Y-113736244D01*
X143324093Y-113756936D01*
X143312894Y-113783972D01*
X143221061Y-113783972D01*
X143220693Y-113778795D01*
X143207607Y-113752621D01*
X143185499Y-113733447D01*
X143157737Y-113724193D01*
X143128547Y-113726268D01*
X143102374Y-113739355D01*
X143083200Y-113761462D01*
X143077206Y-113774887D01*
X142815024Y-114561433D01*
X142552842Y-113774887D01*
X142546848Y-113761461D01*
X142527674Y-113739354D01*
X142501501Y-113726268D01*
X142472311Y-113724193D01*
X142444548Y-113733447D01*
X142422441Y-113752621D01*
X142409355Y-113778794D01*
X142407280Y-113807984D01*
X141985262Y-113807984D01*
X141985262Y-113798604D01*
X141985256Y-113798551D01*
X141985262Y-113798525D01*
X141985246Y-113798448D01*
X141983821Y-113783972D01*
X141980979Y-113777111D01*
X141979523Y-113769830D01*
X141975433Y-113763723D01*
X141972622Y-113756936D01*
X141967373Y-113751687D01*
X141963240Y-113745515D01*
X141957123Y-113741437D01*
X141951930Y-113736244D01*
X141945070Y-113733402D01*
X141938891Y-113729283D01*
X141931682Y-113727857D01*
X141924894Y-113725045D01*
X141917467Y-113725045D01*
X141910183Y-113723604D01*
X141902978Y-113725045D01*
X141895630Y-113725045D01*
X141888769Y-113727886D01*
X141881489Y-113729343D01*
X141875383Y-113733431D01*
X141868594Y-113736244D01*
X141863343Y-113741494D01*
X141857174Y-113745626D01*
X141847953Y-113756884D01*
X141847902Y-113756936D01*
X141847892Y-113756958D01*
X141847858Y-113757001D01*
X141756738Y-113893681D01*
X141675359Y-113975060D01*
X141591007Y-114017236D01*
X141578564Y-114025068D01*
X141559391Y-114047176D01*
X141550137Y-114074937D01*
X141439026Y-114074937D01*
X141439026Y-113612493D01*
X145143992Y-113612493D01*
X145143992Y-114984715D01*
G37*
X184379580Y-129922857D02*
X184427200Y-129970476D01*
X184427200Y-129970476D02*
X184474819Y-130113333D01*
X184474819Y-130113333D02*
X184474819Y-130208571D01*
X184474819Y-130208571D02*
X184427200Y-130351428D01*
X184427200Y-130351428D02*
X184331961Y-130446666D01*
X184331961Y-130446666D02*
X184236723Y-130494285D01*
X184236723Y-130494285D02*
X184046247Y-130541904D01*
X184046247Y-130541904D02*
X183903390Y-130541904D01*
X183903390Y-130541904D02*
X183712914Y-130494285D01*
X183712914Y-130494285D02*
X183617676Y-130446666D01*
X183617676Y-130446666D02*
X183522438Y-130351428D01*
X183522438Y-130351428D02*
X183474819Y-130208571D01*
X183474819Y-130208571D02*
X183474819Y-130113333D01*
X183474819Y-130113333D02*
X183522438Y-129970476D01*
X183522438Y-129970476D02*
X183570057Y-129922857D01*
X184474819Y-128970476D02*
X184474819Y-129541904D01*
X184474819Y-129256190D02*
X183474819Y-129256190D01*
X183474819Y-129256190D02*
X183617676Y-129351428D01*
X183617676Y-129351428D02*
X183712914Y-129446666D01*
X183712914Y-129446666D02*
X183760533Y-129541904D01*
X183903390Y-128399047D02*
X183855771Y-128494285D01*
X183855771Y-128494285D02*
X183808152Y-128541904D01*
X183808152Y-128541904D02*
X183712914Y-128589523D01*
X183712914Y-128589523D02*
X183665295Y-128589523D01*
X183665295Y-128589523D02*
X183570057Y-128541904D01*
X183570057Y-128541904D02*
X183522438Y-128494285D01*
X183522438Y-128494285D02*
X183474819Y-128399047D01*
X183474819Y-128399047D02*
X183474819Y-128208571D01*
X183474819Y-128208571D02*
X183522438Y-128113333D01*
X183522438Y-128113333D02*
X183570057Y-128065714D01*
X183570057Y-128065714D02*
X183665295Y-128018095D01*
X183665295Y-128018095D02*
X183712914Y-128018095D01*
X183712914Y-128018095D02*
X183808152Y-128065714D01*
X183808152Y-128065714D02*
X183855771Y-128113333D01*
X183855771Y-128113333D02*
X183903390Y-128208571D01*
X183903390Y-128208571D02*
X183903390Y-128399047D01*
X183903390Y-128399047D02*
X183951009Y-128494285D01*
X183951009Y-128494285D02*
X183998628Y-128541904D01*
X183998628Y-128541904D02*
X184093866Y-128589523D01*
X184093866Y-128589523D02*
X184284342Y-128589523D01*
X184284342Y-128589523D02*
X184379580Y-128541904D01*
X184379580Y-128541904D02*
X184427200Y-128494285D01*
X184427200Y-128494285D02*
X184474819Y-128399047D01*
X184474819Y-128399047D02*
X184474819Y-128208571D01*
X184474819Y-128208571D02*
X184427200Y-128113333D01*
X184427200Y-128113333D02*
X184379580Y-128065714D01*
X184379580Y-128065714D02*
X184284342Y-128018095D01*
X184284342Y-128018095D02*
X184093866Y-128018095D01*
X184093866Y-128018095D02*
X183998628Y-128065714D01*
X183998628Y-128065714D02*
X183951009Y-128113333D01*
X183951009Y-128113333D02*
X183903390Y-128208571D01*
X185289580Y-108672857D02*
X185337200Y-108720476D01*
X185337200Y-108720476D02*
X185384819Y-108863333D01*
X185384819Y-108863333D02*
X185384819Y-108958571D01*
X185384819Y-108958571D02*
X185337200Y-109101428D01*
X185337200Y-109101428D02*
X185241961Y-109196666D01*
X185241961Y-109196666D02*
X185146723Y-109244285D01*
X185146723Y-109244285D02*
X184956247Y-109291904D01*
X184956247Y-109291904D02*
X184813390Y-109291904D01*
X184813390Y-109291904D02*
X184622914Y-109244285D01*
X184622914Y-109244285D02*
X184527676Y-109196666D01*
X184527676Y-109196666D02*
X184432438Y-109101428D01*
X184432438Y-109101428D02*
X184384819Y-108958571D01*
X184384819Y-108958571D02*
X184384819Y-108863333D01*
X184384819Y-108863333D02*
X184432438Y-108720476D01*
X184432438Y-108720476D02*
X184480057Y-108672857D01*
X184480057Y-108291904D02*
X184432438Y-108244285D01*
X184432438Y-108244285D02*
X184384819Y-108149047D01*
X184384819Y-108149047D02*
X184384819Y-107910952D01*
X184384819Y-107910952D02*
X184432438Y-107815714D01*
X184432438Y-107815714D02*
X184480057Y-107768095D01*
X184480057Y-107768095D02*
X184575295Y-107720476D01*
X184575295Y-107720476D02*
X184670533Y-107720476D01*
X184670533Y-107720476D02*
X184813390Y-107768095D01*
X184813390Y-107768095D02*
X185384819Y-108339523D01*
X185384819Y-108339523D02*
X185384819Y-107720476D01*
X184384819Y-107387142D02*
X184384819Y-106768095D01*
X184384819Y-106768095D02*
X184765771Y-107101428D01*
X184765771Y-107101428D02*
X184765771Y-106958571D01*
X184765771Y-106958571D02*
X184813390Y-106863333D01*
X184813390Y-106863333D02*
X184861009Y-106815714D01*
X184861009Y-106815714D02*
X184956247Y-106768095D01*
X184956247Y-106768095D02*
X185194342Y-106768095D01*
X185194342Y-106768095D02*
X185289580Y-106815714D01*
X185289580Y-106815714D02*
X185337200Y-106863333D01*
X185337200Y-106863333D02*
X185384819Y-106958571D01*
X185384819Y-106958571D02*
X185384819Y-107244285D01*
X185384819Y-107244285D02*
X185337200Y-107339523D01*
X185337200Y-107339523D02*
X185289580Y-107387142D01*
X189824819Y-117268094D02*
X190634342Y-117268094D01*
X190634342Y-117268094D02*
X190729580Y-117220475D01*
X190729580Y-117220475D02*
X190777200Y-117172856D01*
X190777200Y-117172856D02*
X190824819Y-117077618D01*
X190824819Y-117077618D02*
X190824819Y-116887142D01*
X190824819Y-116887142D02*
X190777200Y-116791904D01*
X190777200Y-116791904D02*
X190729580Y-116744285D01*
X190729580Y-116744285D02*
X190634342Y-116696666D01*
X190634342Y-116696666D02*
X189824819Y-116696666D01*
X190824819Y-115696666D02*
X190824819Y-116268094D01*
X190824819Y-115982380D02*
X189824819Y-115982380D01*
X189824819Y-115982380D02*
X189967676Y-116077618D01*
X189967676Y-116077618D02*
X190062914Y-116172856D01*
X190062914Y-116172856D02*
X190110533Y-116268094D01*
X189824819Y-115077618D02*
X189824819Y-114982380D01*
X189824819Y-114982380D02*
X189872438Y-114887142D01*
X189872438Y-114887142D02*
X189920057Y-114839523D01*
X189920057Y-114839523D02*
X190015295Y-114791904D01*
X190015295Y-114791904D02*
X190205771Y-114744285D01*
X190205771Y-114744285D02*
X190443866Y-114744285D01*
X190443866Y-114744285D02*
X190634342Y-114791904D01*
X190634342Y-114791904D02*
X190729580Y-114839523D01*
X190729580Y-114839523D02*
X190777200Y-114887142D01*
X190777200Y-114887142D02*
X190824819Y-114982380D01*
X190824819Y-114982380D02*
X190824819Y-115077618D01*
X190824819Y-115077618D02*
X190777200Y-115172856D01*
X190777200Y-115172856D02*
X190729580Y-115220475D01*
X190729580Y-115220475D02*
X190634342Y-115268094D01*
X190634342Y-115268094D02*
X190443866Y-115315713D01*
X190443866Y-115315713D02*
X190205771Y-115315713D01*
X190205771Y-115315713D02*
X190015295Y-115268094D01*
X190015295Y-115268094D02*
X189920057Y-115220475D01*
X189920057Y-115220475D02*
X189872438Y-115172856D01*
X189872438Y-115172856D02*
X189824819Y-115077618D01*
X182787142Y-128749580D02*
X182739523Y-128797200D01*
X182739523Y-128797200D02*
X182596666Y-128844819D01*
X182596666Y-128844819D02*
X182501428Y-128844819D01*
X182501428Y-128844819D02*
X182358571Y-128797200D01*
X182358571Y-128797200D02*
X182263333Y-128701961D01*
X182263333Y-128701961D02*
X182215714Y-128606723D01*
X182215714Y-128606723D02*
X182168095Y-128416247D01*
X182168095Y-128416247D02*
X182168095Y-128273390D01*
X182168095Y-128273390D02*
X182215714Y-128082914D01*
X182215714Y-128082914D02*
X182263333Y-127987676D01*
X182263333Y-127987676D02*
X182358571Y-127892438D01*
X182358571Y-127892438D02*
X182501428Y-127844819D01*
X182501428Y-127844819D02*
X182596666Y-127844819D01*
X182596666Y-127844819D02*
X182739523Y-127892438D01*
X182739523Y-127892438D02*
X182787142Y-127940057D01*
X183739523Y-128844819D02*
X183168095Y-128844819D01*
X183453809Y-128844819D02*
X183453809Y-127844819D01*
X183453809Y-127844819D02*
X183358571Y-127987676D01*
X183358571Y-127987676D02*
X183263333Y-128082914D01*
X183263333Y-128082914D02*
X183168095Y-128130533D01*
X184072857Y-127844819D02*
X184691904Y-127844819D01*
X184691904Y-127844819D02*
X184358571Y-128225771D01*
X184358571Y-128225771D02*
X184501428Y-128225771D01*
X184501428Y-128225771D02*
X184596666Y-128273390D01*
X184596666Y-128273390D02*
X184644285Y-128321009D01*
X184644285Y-128321009D02*
X184691904Y-128416247D01*
X184691904Y-128416247D02*
X184691904Y-128654342D01*
X184691904Y-128654342D02*
X184644285Y-128749580D01*
X184644285Y-128749580D02*
X184596666Y-128797200D01*
X184596666Y-128797200D02*
X184501428Y-128844819D01*
X184501428Y-128844819D02*
X184215714Y-128844819D01*
X184215714Y-128844819D02*
X184120476Y-128797200D01*
X184120476Y-128797200D02*
X184072857Y-128749580D01*
X186297142Y-132109580D02*
X186249523Y-132157200D01*
X186249523Y-132157200D02*
X186106666Y-132204819D01*
X186106666Y-132204819D02*
X186011428Y-132204819D01*
X186011428Y-132204819D02*
X185868571Y-132157200D01*
X185868571Y-132157200D02*
X185773333Y-132061961D01*
X185773333Y-132061961D02*
X185725714Y-131966723D01*
X185725714Y-131966723D02*
X185678095Y-131776247D01*
X185678095Y-131776247D02*
X185678095Y-131633390D01*
X185678095Y-131633390D02*
X185725714Y-131442914D01*
X185725714Y-131442914D02*
X185773333Y-131347676D01*
X185773333Y-131347676D02*
X185868571Y-131252438D01*
X185868571Y-131252438D02*
X186011428Y-131204819D01*
X186011428Y-131204819D02*
X186106666Y-131204819D01*
X186106666Y-131204819D02*
X186249523Y-131252438D01*
X186249523Y-131252438D02*
X186297142Y-131300057D01*
X187249523Y-132204819D02*
X186678095Y-132204819D01*
X186963809Y-132204819D02*
X186963809Y-131204819D01*
X186963809Y-131204819D02*
X186868571Y-131347676D01*
X186868571Y-131347676D02*
X186773333Y-131442914D01*
X186773333Y-131442914D02*
X186678095Y-131490533D01*
X188106666Y-131538152D02*
X188106666Y-132204819D01*
X187868571Y-131157200D02*
X187630476Y-131871485D01*
X187630476Y-131871485D02*
X188249523Y-131871485D01*
X191014819Y-119752857D02*
X190538628Y-120086190D01*
X191014819Y-120324285D02*
X190014819Y-120324285D01*
X190014819Y-120324285D02*
X190014819Y-119943333D01*
X190014819Y-119943333D02*
X190062438Y-119848095D01*
X190062438Y-119848095D02*
X190110057Y-119800476D01*
X190110057Y-119800476D02*
X190205295Y-119752857D01*
X190205295Y-119752857D02*
X190348152Y-119752857D01*
X190348152Y-119752857D02*
X190443390Y-119800476D01*
X190443390Y-119800476D02*
X190491009Y-119848095D01*
X190491009Y-119848095D02*
X190538628Y-119943333D01*
X190538628Y-119943333D02*
X190538628Y-120324285D01*
X191014819Y-118800476D02*
X191014819Y-119371904D01*
X191014819Y-119086190D02*
X190014819Y-119086190D01*
X190014819Y-119086190D02*
X190157676Y-119181428D01*
X190157676Y-119181428D02*
X190252914Y-119276666D01*
X190252914Y-119276666D02*
X190300533Y-119371904D01*
X190443390Y-118229047D02*
X190395771Y-118324285D01*
X190395771Y-118324285D02*
X190348152Y-118371904D01*
X190348152Y-118371904D02*
X190252914Y-118419523D01*
X190252914Y-118419523D02*
X190205295Y-118419523D01*
X190205295Y-118419523D02*
X190110057Y-118371904D01*
X190110057Y-118371904D02*
X190062438Y-118324285D01*
X190062438Y-118324285D02*
X190014819Y-118229047D01*
X190014819Y-118229047D02*
X190014819Y-118038571D01*
X190014819Y-118038571D02*
X190062438Y-117943333D01*
X190062438Y-117943333D02*
X190110057Y-117895714D01*
X190110057Y-117895714D02*
X190205295Y-117848095D01*
X190205295Y-117848095D02*
X190252914Y-117848095D01*
X190252914Y-117848095D02*
X190348152Y-117895714D01*
X190348152Y-117895714D02*
X190395771Y-117943333D01*
X190395771Y-117943333D02*
X190443390Y-118038571D01*
X190443390Y-118038571D02*
X190443390Y-118229047D01*
X190443390Y-118229047D02*
X190491009Y-118324285D01*
X190491009Y-118324285D02*
X190538628Y-118371904D01*
X190538628Y-118371904D02*
X190633866Y-118419523D01*
X190633866Y-118419523D02*
X190824342Y-118419523D01*
X190824342Y-118419523D02*
X190919580Y-118371904D01*
X190919580Y-118371904D02*
X190967200Y-118324285D01*
X190967200Y-118324285D02*
X191014819Y-118229047D01*
X191014819Y-118229047D02*
X191014819Y-118038571D01*
X191014819Y-118038571D02*
X190967200Y-117943333D01*
X190967200Y-117943333D02*
X190919580Y-117895714D01*
X190919580Y-117895714D02*
X190824342Y-117848095D01*
X190824342Y-117848095D02*
X190633866Y-117848095D01*
X190633866Y-117848095D02*
X190538628Y-117895714D01*
X190538628Y-117895714D02*
X190491009Y-117943333D01*
X190491009Y-117943333D02*
X190443390Y-118038571D01*
X175878365Y-122807761D02*
X175925985Y-122855380D01*
X175925985Y-122855380D02*
X175973604Y-122998237D01*
X175973604Y-122998237D02*
X175973604Y-123093475D01*
X175973604Y-123093475D02*
X175925985Y-123236332D01*
X175925985Y-123236332D02*
X175830746Y-123331570D01*
X175830746Y-123331570D02*
X175735508Y-123379189D01*
X175735508Y-123379189D02*
X175545032Y-123426808D01*
X175545032Y-123426808D02*
X175402175Y-123426808D01*
X175402175Y-123426808D02*
X175211699Y-123379189D01*
X175211699Y-123379189D02*
X175116461Y-123331570D01*
X175116461Y-123331570D02*
X175021223Y-123236332D01*
X175021223Y-123236332D02*
X174973604Y-123093475D01*
X174973604Y-123093475D02*
X174973604Y-122998237D01*
X174973604Y-122998237D02*
X175021223Y-122855380D01*
X175021223Y-122855380D02*
X175068842Y-122807761D01*
X175973604Y-121855380D02*
X175973604Y-122426808D01*
X175973604Y-122141094D02*
X174973604Y-122141094D01*
X174973604Y-122141094D02*
X175116461Y-122236332D01*
X175116461Y-122236332D02*
X175211699Y-122331570D01*
X175211699Y-122331570D02*
X175259318Y-122426808D01*
X175402175Y-121283951D02*
X175354556Y-121379189D01*
X175354556Y-121379189D02*
X175306937Y-121426808D01*
X175306937Y-121426808D02*
X175211699Y-121474427D01*
X175211699Y-121474427D02*
X175164080Y-121474427D01*
X175164080Y-121474427D02*
X175068842Y-121426808D01*
X175068842Y-121426808D02*
X175021223Y-121379189D01*
X175021223Y-121379189D02*
X174973604Y-121283951D01*
X174973604Y-121283951D02*
X174973604Y-121093475D01*
X174973604Y-121093475D02*
X175021223Y-120998237D01*
X175021223Y-120998237D02*
X175068842Y-120950618D01*
X175068842Y-120950618D02*
X175164080Y-120902999D01*
X175164080Y-120902999D02*
X175211699Y-120902999D01*
X175211699Y-120902999D02*
X175306937Y-120950618D01*
X175306937Y-120950618D02*
X175354556Y-120998237D01*
X175354556Y-120998237D02*
X175402175Y-121093475D01*
X175402175Y-121093475D02*
X175402175Y-121283951D01*
X175402175Y-121283951D02*
X175449794Y-121379189D01*
X175449794Y-121379189D02*
X175497413Y-121426808D01*
X175497413Y-121426808D02*
X175592651Y-121474427D01*
X175592651Y-121474427D02*
X175783127Y-121474427D01*
X175783127Y-121474427D02*
X175878365Y-121426808D01*
X175878365Y-121426808D02*
X175925985Y-121379189D01*
X175925985Y-121379189D02*
X175973604Y-121283951D01*
X175973604Y-121283951D02*
X175973604Y-121093475D01*
X175973604Y-121093475D02*
X175925985Y-120998237D01*
X175925985Y-120998237D02*
X175878365Y-120950618D01*
X175878365Y-120950618D02*
X175783127Y-120902999D01*
X175783127Y-120902999D02*
X175592651Y-120902999D01*
X175592651Y-120902999D02*
X175497413Y-120950618D01*
X175497413Y-120950618D02*
X175449794Y-120998237D01*
X175449794Y-120998237D02*
X175402175Y-121093475D01*
X175973604Y-120426808D02*
X175973604Y-120236332D01*
X175973604Y-120236332D02*
X175925985Y-120141094D01*
X175925985Y-120141094D02*
X175878365Y-120093475D01*
X175878365Y-120093475D02*
X175735508Y-119998237D01*
X175735508Y-119998237D02*
X175545032Y-119950618D01*
X175545032Y-119950618D02*
X175164080Y-119950618D01*
X175164080Y-119950618D02*
X175068842Y-119998237D01*
X175068842Y-119998237D02*
X175021223Y-120045856D01*
X175021223Y-120045856D02*
X174973604Y-120141094D01*
X174973604Y-120141094D02*
X174973604Y-120331570D01*
X174973604Y-120331570D02*
X175021223Y-120426808D01*
X175021223Y-120426808D02*
X175068842Y-120474427D01*
X175068842Y-120474427D02*
X175164080Y-120522046D01*
X175164080Y-120522046D02*
X175402175Y-120522046D01*
X175402175Y-120522046D02*
X175497413Y-120474427D01*
X175497413Y-120474427D02*
X175545032Y-120426808D01*
X175545032Y-120426808D02*
X175592651Y-120331570D01*
X175592651Y-120331570D02*
X175592651Y-120141094D01*
X175592651Y-120141094D02*
X175545032Y-120045856D01*
X175545032Y-120045856D02*
X175497413Y-119998237D01*
X175497413Y-119998237D02*
X175402175Y-119950618D01*
X179478333Y-142369580D02*
X179430714Y-142417200D01*
X179430714Y-142417200D02*
X179287857Y-142464819D01*
X179287857Y-142464819D02*
X179192619Y-142464819D01*
X179192619Y-142464819D02*
X179049762Y-142417200D01*
X179049762Y-142417200D02*
X178954524Y-142321961D01*
X178954524Y-142321961D02*
X178906905Y-142226723D01*
X178906905Y-142226723D02*
X178859286Y-142036247D01*
X178859286Y-142036247D02*
X178859286Y-141893390D01*
X178859286Y-141893390D02*
X178906905Y-141702914D01*
X178906905Y-141702914D02*
X178954524Y-141607676D01*
X178954524Y-141607676D02*
X179049762Y-141512438D01*
X179049762Y-141512438D02*
X179192619Y-141464819D01*
X179192619Y-141464819D02*
X179287857Y-141464819D01*
X179287857Y-141464819D02*
X179430714Y-141512438D01*
X179430714Y-141512438D02*
X179478333Y-141560057D01*
X180430714Y-142464819D02*
X179859286Y-142464819D01*
X180145000Y-142464819D02*
X180145000Y-141464819D01*
X180145000Y-141464819D02*
X180049762Y-141607676D01*
X180049762Y-141607676D02*
X179954524Y-141702914D01*
X179954524Y-141702914D02*
X179859286Y-141750533D01*
X182244819Y-140252857D02*
X181768628Y-140586190D01*
X182244819Y-140824285D02*
X181244819Y-140824285D01*
X181244819Y-140824285D02*
X181244819Y-140443333D01*
X181244819Y-140443333D02*
X181292438Y-140348095D01*
X181292438Y-140348095D02*
X181340057Y-140300476D01*
X181340057Y-140300476D02*
X181435295Y-140252857D01*
X181435295Y-140252857D02*
X181578152Y-140252857D01*
X181578152Y-140252857D02*
X181673390Y-140300476D01*
X181673390Y-140300476D02*
X181721009Y-140348095D01*
X181721009Y-140348095D02*
X181768628Y-140443333D01*
X181768628Y-140443333D02*
X181768628Y-140824285D01*
X182244819Y-139300476D02*
X182244819Y-139871904D01*
X182244819Y-139586190D02*
X181244819Y-139586190D01*
X181244819Y-139586190D02*
X181387676Y-139681428D01*
X181387676Y-139681428D02*
X181482914Y-139776666D01*
X181482914Y-139776666D02*
X181530533Y-139871904D01*
X182244819Y-138348095D02*
X182244819Y-138919523D01*
X182244819Y-138633809D02*
X181244819Y-138633809D01*
X181244819Y-138633809D02*
X181387676Y-138729047D01*
X181387676Y-138729047D02*
X181482914Y-138824285D01*
X181482914Y-138824285D02*
X181530533Y-138919523D01*
X189924819Y-135481666D02*
X189924819Y-135957856D01*
X189924819Y-135957856D02*
X188924819Y-135957856D01*
X188924819Y-134672142D02*
X188924819Y-135148332D01*
X188924819Y-135148332D02*
X189401009Y-135195951D01*
X189401009Y-135195951D02*
X189353390Y-135148332D01*
X189353390Y-135148332D02*
X189305771Y-135053094D01*
X189305771Y-135053094D02*
X189305771Y-134814999D01*
X189305771Y-134814999D02*
X189353390Y-134719761D01*
X189353390Y-134719761D02*
X189401009Y-134672142D01*
X189401009Y-134672142D02*
X189496247Y-134624523D01*
X189496247Y-134624523D02*
X189734342Y-134624523D01*
X189734342Y-134624523D02*
X189829580Y-134672142D01*
X189829580Y-134672142D02*
X189877200Y-134719761D01*
X189877200Y-134719761D02*
X189924819Y-134814999D01*
X189924819Y-134814999D02*
X189924819Y-135053094D01*
X189924819Y-135053094D02*
X189877200Y-135148332D01*
X189877200Y-135148332D02*
X189829580Y-135195951D01*
X179472142Y-143709580D02*
X179424523Y-143757200D01*
X179424523Y-143757200D02*
X179281666Y-143804819D01*
X179281666Y-143804819D02*
X179186428Y-143804819D01*
X179186428Y-143804819D02*
X179043571Y-143757200D01*
X179043571Y-143757200D02*
X178948333Y-143661961D01*
X178948333Y-143661961D02*
X178900714Y-143566723D01*
X178900714Y-143566723D02*
X178853095Y-143376247D01*
X178853095Y-143376247D02*
X178853095Y-143233390D01*
X178853095Y-143233390D02*
X178900714Y-143042914D01*
X178900714Y-143042914D02*
X178948333Y-142947676D01*
X178948333Y-142947676D02*
X179043571Y-142852438D01*
X179043571Y-142852438D02*
X179186428Y-142804819D01*
X179186428Y-142804819D02*
X179281666Y-142804819D01*
X179281666Y-142804819D02*
X179424523Y-142852438D01*
X179424523Y-142852438D02*
X179472142Y-142900057D01*
X180424523Y-143804819D02*
X179853095Y-143804819D01*
X180138809Y-143804819D02*
X180138809Y-142804819D01*
X180138809Y-142804819D02*
X180043571Y-142947676D01*
X180043571Y-142947676D02*
X179948333Y-143042914D01*
X179948333Y-143042914D02*
X179853095Y-143090533D01*
X181376904Y-143804819D02*
X180805476Y-143804819D01*
X181091190Y-143804819D02*
X181091190Y-142804819D01*
X181091190Y-142804819D02*
X180995952Y-142947676D01*
X180995952Y-142947676D02*
X180900714Y-143042914D01*
X180900714Y-143042914D02*
X180805476Y-143090533D01*
X192434819Y-112036666D02*
X192434819Y-112512856D01*
X192434819Y-112512856D02*
X191434819Y-112512856D01*
X192434819Y-111655713D02*
X192434819Y-111465237D01*
X192434819Y-111465237D02*
X192387200Y-111369999D01*
X192387200Y-111369999D02*
X192339580Y-111322380D01*
X192339580Y-111322380D02*
X192196723Y-111227142D01*
X192196723Y-111227142D02*
X192006247Y-111179523D01*
X192006247Y-111179523D02*
X191625295Y-111179523D01*
X191625295Y-111179523D02*
X191530057Y-111227142D01*
X191530057Y-111227142D02*
X191482438Y-111274761D01*
X191482438Y-111274761D02*
X191434819Y-111369999D01*
X191434819Y-111369999D02*
X191434819Y-111560475D01*
X191434819Y-111560475D02*
X191482438Y-111655713D01*
X191482438Y-111655713D02*
X191530057Y-111703332D01*
X191530057Y-111703332D02*
X191625295Y-111750951D01*
X191625295Y-111750951D02*
X191863390Y-111750951D01*
X191863390Y-111750951D02*
X191958628Y-111703332D01*
X191958628Y-111703332D02*
X192006247Y-111655713D01*
X192006247Y-111655713D02*
X192053866Y-111560475D01*
X192053866Y-111560475D02*
X192053866Y-111369999D01*
X192053866Y-111369999D02*
X192006247Y-111274761D01*
X192006247Y-111274761D02*
X191958628Y-111227142D01*
X191958628Y-111227142D02*
X191863390Y-111179523D01*
X180429580Y-127912857D02*
X180477200Y-127960476D01*
X180477200Y-127960476D02*
X180524819Y-128103333D01*
X180524819Y-128103333D02*
X180524819Y-128198571D01*
X180524819Y-128198571D02*
X180477200Y-128341428D01*
X180477200Y-128341428D02*
X180381961Y-128436666D01*
X180381961Y-128436666D02*
X180286723Y-128484285D01*
X180286723Y-128484285D02*
X180096247Y-128531904D01*
X180096247Y-128531904D02*
X179953390Y-128531904D01*
X179953390Y-128531904D02*
X179762914Y-128484285D01*
X179762914Y-128484285D02*
X179667676Y-128436666D01*
X179667676Y-128436666D02*
X179572438Y-128341428D01*
X179572438Y-128341428D02*
X179524819Y-128198571D01*
X179524819Y-128198571D02*
X179524819Y-128103333D01*
X179524819Y-128103333D02*
X179572438Y-127960476D01*
X179572438Y-127960476D02*
X179620057Y-127912857D01*
X180524819Y-126960476D02*
X180524819Y-127531904D01*
X180524819Y-127246190D02*
X179524819Y-127246190D01*
X179524819Y-127246190D02*
X179667676Y-127341428D01*
X179667676Y-127341428D02*
X179762914Y-127436666D01*
X179762914Y-127436666D02*
X179810533Y-127531904D01*
X179524819Y-126055714D02*
X179524819Y-126531904D01*
X179524819Y-126531904D02*
X180001009Y-126579523D01*
X180001009Y-126579523D02*
X179953390Y-126531904D01*
X179953390Y-126531904D02*
X179905771Y-126436666D01*
X179905771Y-126436666D02*
X179905771Y-126198571D01*
X179905771Y-126198571D02*
X179953390Y-126103333D01*
X179953390Y-126103333D02*
X180001009Y-126055714D01*
X180001009Y-126055714D02*
X180096247Y-126008095D01*
X180096247Y-126008095D02*
X180334342Y-126008095D01*
X180334342Y-126008095D02*
X180429580Y-126055714D01*
X180429580Y-126055714D02*
X180477200Y-126103333D01*
X180477200Y-126103333D02*
X180524819Y-126198571D01*
X180524819Y-126198571D02*
X180524819Y-126436666D01*
X180524819Y-126436666D02*
X180477200Y-126531904D01*
X180477200Y-126531904D02*
X180429580Y-126579523D01*
X181932142Y-139399819D02*
X181598809Y-138923628D01*
X181360714Y-139399819D02*
X181360714Y-138399819D01*
X181360714Y-138399819D02*
X181741666Y-138399819D01*
X181741666Y-138399819D02*
X181836904Y-138447438D01*
X181836904Y-138447438D02*
X181884523Y-138495057D01*
X181884523Y-138495057D02*
X181932142Y-138590295D01*
X181932142Y-138590295D02*
X181932142Y-138733152D01*
X181932142Y-138733152D02*
X181884523Y-138828390D01*
X181884523Y-138828390D02*
X181836904Y-138876009D01*
X181836904Y-138876009D02*
X181741666Y-138923628D01*
X181741666Y-138923628D02*
X181360714Y-138923628D01*
X182884523Y-139399819D02*
X182313095Y-139399819D01*
X182598809Y-139399819D02*
X182598809Y-138399819D01*
X182598809Y-138399819D02*
X182503571Y-138542676D01*
X182503571Y-138542676D02*
X182408333Y-138637914D01*
X182408333Y-138637914D02*
X182313095Y-138685533D01*
X183503571Y-138399819D02*
X183598809Y-138399819D01*
X183598809Y-138399819D02*
X183694047Y-138447438D01*
X183694047Y-138447438D02*
X183741666Y-138495057D01*
X183741666Y-138495057D02*
X183789285Y-138590295D01*
X183789285Y-138590295D02*
X183836904Y-138780771D01*
X183836904Y-138780771D02*
X183836904Y-139018866D01*
X183836904Y-139018866D02*
X183789285Y-139209342D01*
X183789285Y-139209342D02*
X183741666Y-139304580D01*
X183741666Y-139304580D02*
X183694047Y-139352200D01*
X183694047Y-139352200D02*
X183598809Y-139399819D01*
X183598809Y-139399819D02*
X183503571Y-139399819D01*
X183503571Y-139399819D02*
X183408333Y-139352200D01*
X183408333Y-139352200D02*
X183360714Y-139304580D01*
X183360714Y-139304580D02*
X183313095Y-139209342D01*
X183313095Y-139209342D02*
X183265476Y-139018866D01*
X183265476Y-139018866D02*
X183265476Y-138780771D01*
X183265476Y-138780771D02*
X183313095Y-138590295D01*
X183313095Y-138590295D02*
X183360714Y-138495057D01*
X183360714Y-138495057D02*
X183408333Y-138447438D01*
X183408333Y-138447438D02*
X183503571Y-138399819D01*
X184847142Y-120714819D02*
X184513809Y-120238628D01*
X184275714Y-120714819D02*
X184275714Y-119714819D01*
X184275714Y-119714819D02*
X184656666Y-119714819D01*
X184656666Y-119714819D02*
X184751904Y-119762438D01*
X184751904Y-119762438D02*
X184799523Y-119810057D01*
X184799523Y-119810057D02*
X184847142Y-119905295D01*
X184847142Y-119905295D02*
X184847142Y-120048152D01*
X184847142Y-120048152D02*
X184799523Y-120143390D01*
X184799523Y-120143390D02*
X184751904Y-120191009D01*
X184751904Y-120191009D02*
X184656666Y-120238628D01*
X184656666Y-120238628D02*
X184275714Y-120238628D01*
X185228095Y-119810057D02*
X185275714Y-119762438D01*
X185275714Y-119762438D02*
X185370952Y-119714819D01*
X185370952Y-119714819D02*
X185609047Y-119714819D01*
X185609047Y-119714819D02*
X185704285Y-119762438D01*
X185704285Y-119762438D02*
X185751904Y-119810057D01*
X185751904Y-119810057D02*
X185799523Y-119905295D01*
X185799523Y-119905295D02*
X185799523Y-120000533D01*
X185799523Y-120000533D02*
X185751904Y-120143390D01*
X185751904Y-120143390D02*
X185180476Y-120714819D01*
X185180476Y-120714819D02*
X185799523Y-120714819D01*
X186751904Y-120714819D02*
X186180476Y-120714819D01*
X186466190Y-120714819D02*
X186466190Y-119714819D01*
X186466190Y-119714819D02*
X186370952Y-119857676D01*
X186370952Y-119857676D02*
X186275714Y-119952914D01*
X186275714Y-119952914D02*
X186180476Y-120000533D01*
X143307167Y-110661341D02*
X143259548Y-110708961D01*
X143259548Y-110708961D02*
X143116691Y-110756580D01*
X143116691Y-110756580D02*
X143021453Y-110756580D01*
X143021453Y-110756580D02*
X142878596Y-110708961D01*
X142878596Y-110708961D02*
X142783358Y-110613722D01*
X142783358Y-110613722D02*
X142735739Y-110518484D01*
X142735739Y-110518484D02*
X142688120Y-110328008D01*
X142688120Y-110328008D02*
X142688120Y-110185151D01*
X142688120Y-110185151D02*
X142735739Y-109994675D01*
X142735739Y-109994675D02*
X142783358Y-109899437D01*
X142783358Y-109899437D02*
X142878596Y-109804199D01*
X142878596Y-109804199D02*
X143021453Y-109756580D01*
X143021453Y-109756580D02*
X143116691Y-109756580D01*
X143116691Y-109756580D02*
X143259548Y-109804199D01*
X143259548Y-109804199D02*
X143307167Y-109851818D01*
X144211929Y-109756580D02*
X143735739Y-109756580D01*
X143735739Y-109756580D02*
X143688120Y-110232770D01*
X143688120Y-110232770D02*
X143735739Y-110185151D01*
X143735739Y-110185151D02*
X143830977Y-110137532D01*
X143830977Y-110137532D02*
X144069072Y-110137532D01*
X144069072Y-110137532D02*
X144164310Y-110185151D01*
X144164310Y-110185151D02*
X144211929Y-110232770D01*
X144211929Y-110232770D02*
X144259548Y-110328008D01*
X144259548Y-110328008D02*
X144259548Y-110566103D01*
X144259548Y-110566103D02*
X144211929Y-110661341D01*
X144211929Y-110661341D02*
X144164310Y-110708961D01*
X144164310Y-110708961D02*
X144069072Y-110756580D01*
X144069072Y-110756580D02*
X143830977Y-110756580D01*
X143830977Y-110756580D02*
X143735739Y-110708961D01*
X143735739Y-110708961D02*
X143688120Y-110661341D01*
X144878596Y-109756580D02*
X144973834Y-109756580D01*
X144973834Y-109756580D02*
X145069072Y-109804199D01*
X145069072Y-109804199D02*
X145116691Y-109851818D01*
X145116691Y-109851818D02*
X145164310Y-109947056D01*
X145164310Y-109947056D02*
X145211929Y-110137532D01*
X145211929Y-110137532D02*
X145211929Y-110375627D01*
X145211929Y-110375627D02*
X145164310Y-110566103D01*
X145164310Y-110566103D02*
X145116691Y-110661341D01*
X145116691Y-110661341D02*
X145069072Y-110708961D01*
X145069072Y-110708961D02*
X144973834Y-110756580D01*
X144973834Y-110756580D02*
X144878596Y-110756580D01*
X144878596Y-110756580D02*
X144783358Y-110708961D01*
X144783358Y-110708961D02*
X144735739Y-110661341D01*
X144735739Y-110661341D02*
X144688120Y-110566103D01*
X144688120Y-110566103D02*
X144640501Y-110375627D01*
X144640501Y-110375627D02*
X144640501Y-110137532D01*
X144640501Y-110137532D02*
X144688120Y-109947056D01*
X144688120Y-109947056D02*
X144735739Y-109851818D01*
X144735739Y-109851818D02*
X144783358Y-109804199D01*
X144783358Y-109804199D02*
X144878596Y-109756580D01*
X145830977Y-109756580D02*
X145926215Y-109756580D01*
X145926215Y-109756580D02*
X146021453Y-109804199D01*
X146021453Y-109804199D02*
X146069072Y-109851818D01*
X146069072Y-109851818D02*
X146116691Y-109947056D01*
X146116691Y-109947056D02*
X146164310Y-110137532D01*
X146164310Y-110137532D02*
X146164310Y-110375627D01*
X146164310Y-110375627D02*
X146116691Y-110566103D01*
X146116691Y-110566103D02*
X146069072Y-110661341D01*
X146069072Y-110661341D02*
X146021453Y-110708961D01*
X146021453Y-110708961D02*
X145926215Y-110756580D01*
X145926215Y-110756580D02*
X145830977Y-110756580D01*
X145830977Y-110756580D02*
X145735739Y-110708961D01*
X145735739Y-110708961D02*
X145688120Y-110661341D01*
X145688120Y-110661341D02*
X145640501Y-110566103D01*
X145640501Y-110566103D02*
X145592882Y-110375627D01*
X145592882Y-110375627D02*
X145592882Y-110137532D01*
X145592882Y-110137532D02*
X145640501Y-109947056D01*
X145640501Y-109947056D02*
X145688120Y-109851818D01*
X145688120Y-109851818D02*
X145735739Y-109804199D01*
X145735739Y-109804199D02*
X145830977Y-109756580D01*
X185503333Y-139894580D02*
X185455714Y-139942200D01*
X185455714Y-139942200D02*
X185312857Y-139989819D01*
X185312857Y-139989819D02*
X185217619Y-139989819D01*
X185217619Y-139989819D02*
X185074762Y-139942200D01*
X185074762Y-139942200D02*
X184979524Y-139846961D01*
X184979524Y-139846961D02*
X184931905Y-139751723D01*
X184931905Y-139751723D02*
X184884286Y-139561247D01*
X184884286Y-139561247D02*
X184884286Y-139418390D01*
X184884286Y-139418390D02*
X184931905Y-139227914D01*
X184931905Y-139227914D02*
X184979524Y-139132676D01*
X184979524Y-139132676D02*
X185074762Y-139037438D01*
X185074762Y-139037438D02*
X185217619Y-138989819D01*
X185217619Y-138989819D02*
X185312857Y-138989819D01*
X185312857Y-138989819D02*
X185455714Y-139037438D01*
X185455714Y-139037438D02*
X185503333Y-139085057D01*
X185836667Y-138989819D02*
X186503333Y-138989819D01*
X186503333Y-138989819D02*
X186074762Y-139989819D01*
X187137142Y-144229580D02*
X187089523Y-144277200D01*
X187089523Y-144277200D02*
X186946666Y-144324819D01*
X186946666Y-144324819D02*
X186851428Y-144324819D01*
X186851428Y-144324819D02*
X186708571Y-144277200D01*
X186708571Y-144277200D02*
X186613333Y-144181961D01*
X186613333Y-144181961D02*
X186565714Y-144086723D01*
X186565714Y-144086723D02*
X186518095Y-143896247D01*
X186518095Y-143896247D02*
X186518095Y-143753390D01*
X186518095Y-143753390D02*
X186565714Y-143562914D01*
X186565714Y-143562914D02*
X186613333Y-143467676D01*
X186613333Y-143467676D02*
X186708571Y-143372438D01*
X186708571Y-143372438D02*
X186851428Y-143324819D01*
X186851428Y-143324819D02*
X186946666Y-143324819D01*
X186946666Y-143324819D02*
X187089523Y-143372438D01*
X187089523Y-143372438D02*
X187137142Y-143420057D01*
X188089523Y-144324819D02*
X187518095Y-144324819D01*
X187803809Y-144324819D02*
X187803809Y-143324819D01*
X187803809Y-143324819D02*
X187708571Y-143467676D01*
X187708571Y-143467676D02*
X187613333Y-143562914D01*
X187613333Y-143562914D02*
X187518095Y-143610533D01*
X188470476Y-143420057D02*
X188518095Y-143372438D01*
X188518095Y-143372438D02*
X188613333Y-143324819D01*
X188613333Y-143324819D02*
X188851428Y-143324819D01*
X188851428Y-143324819D02*
X188946666Y-143372438D01*
X188946666Y-143372438D02*
X188994285Y-143420057D01*
X188994285Y-143420057D02*
X189041904Y-143515295D01*
X189041904Y-143515295D02*
X189041904Y-143610533D01*
X189041904Y-143610533D02*
X188994285Y-143753390D01*
X188994285Y-143753390D02*
X188422857Y-144324819D01*
X188422857Y-144324819D02*
X189041904Y-144324819D01*
X190124819Y-126652857D02*
X189648628Y-126986190D01*
X190124819Y-127224285D02*
X189124819Y-127224285D01*
X189124819Y-127224285D02*
X189124819Y-126843333D01*
X189124819Y-126843333D02*
X189172438Y-126748095D01*
X189172438Y-126748095D02*
X189220057Y-126700476D01*
X189220057Y-126700476D02*
X189315295Y-126652857D01*
X189315295Y-126652857D02*
X189458152Y-126652857D01*
X189458152Y-126652857D02*
X189553390Y-126700476D01*
X189553390Y-126700476D02*
X189601009Y-126748095D01*
X189601009Y-126748095D02*
X189648628Y-126843333D01*
X189648628Y-126843333D02*
X189648628Y-127224285D01*
X190124819Y-125700476D02*
X190124819Y-126271904D01*
X190124819Y-125986190D02*
X189124819Y-125986190D01*
X189124819Y-125986190D02*
X189267676Y-126081428D01*
X189267676Y-126081428D02*
X189362914Y-126176666D01*
X189362914Y-126176666D02*
X189410533Y-126271904D01*
X190124819Y-125224285D02*
X190124819Y-125033809D01*
X190124819Y-125033809D02*
X190077200Y-124938571D01*
X190077200Y-124938571D02*
X190029580Y-124890952D01*
X190029580Y-124890952D02*
X189886723Y-124795714D01*
X189886723Y-124795714D02*
X189696247Y-124748095D01*
X189696247Y-124748095D02*
X189315295Y-124748095D01*
X189315295Y-124748095D02*
X189220057Y-124795714D01*
X189220057Y-124795714D02*
X189172438Y-124843333D01*
X189172438Y-124843333D02*
X189124819Y-124938571D01*
X189124819Y-124938571D02*
X189124819Y-125129047D01*
X189124819Y-125129047D02*
X189172438Y-125224285D01*
X189172438Y-125224285D02*
X189220057Y-125271904D01*
X189220057Y-125271904D02*
X189315295Y-125319523D01*
X189315295Y-125319523D02*
X189553390Y-125319523D01*
X189553390Y-125319523D02*
X189648628Y-125271904D01*
X189648628Y-125271904D02*
X189696247Y-125224285D01*
X189696247Y-125224285D02*
X189743866Y-125129047D01*
X189743866Y-125129047D02*
X189743866Y-124938571D01*
X189743866Y-124938571D02*
X189696247Y-124843333D01*
X189696247Y-124843333D02*
X189648628Y-124795714D01*
X189648628Y-124795714D02*
X189553390Y-124748095D01*
X189853333Y-122984819D02*
X189377143Y-122984819D01*
X189377143Y-122984819D02*
X189377143Y-121984819D01*
X190329524Y-122413390D02*
X190234286Y-122365771D01*
X190234286Y-122365771D02*
X190186667Y-122318152D01*
X190186667Y-122318152D02*
X190139048Y-122222914D01*
X190139048Y-122222914D02*
X190139048Y-122175295D01*
X190139048Y-122175295D02*
X190186667Y-122080057D01*
X190186667Y-122080057D02*
X190234286Y-122032438D01*
X190234286Y-122032438D02*
X190329524Y-121984819D01*
X190329524Y-121984819D02*
X190520000Y-121984819D01*
X190520000Y-121984819D02*
X190615238Y-122032438D01*
X190615238Y-122032438D02*
X190662857Y-122080057D01*
X190662857Y-122080057D02*
X190710476Y-122175295D01*
X190710476Y-122175295D02*
X190710476Y-122222914D01*
X190710476Y-122222914D02*
X190662857Y-122318152D01*
X190662857Y-122318152D02*
X190615238Y-122365771D01*
X190615238Y-122365771D02*
X190520000Y-122413390D01*
X190520000Y-122413390D02*
X190329524Y-122413390D01*
X190329524Y-122413390D02*
X190234286Y-122461009D01*
X190234286Y-122461009D02*
X190186667Y-122508628D01*
X190186667Y-122508628D02*
X190139048Y-122603866D01*
X190139048Y-122603866D02*
X190139048Y-122794342D01*
X190139048Y-122794342D02*
X190186667Y-122889580D01*
X190186667Y-122889580D02*
X190234286Y-122937200D01*
X190234286Y-122937200D02*
X190329524Y-122984819D01*
X190329524Y-122984819D02*
X190520000Y-122984819D01*
X190520000Y-122984819D02*
X190615238Y-122937200D01*
X190615238Y-122937200D02*
X190662857Y-122889580D01*
X190662857Y-122889580D02*
X190710476Y-122794342D01*
X190710476Y-122794342D02*
X190710476Y-122603866D01*
X190710476Y-122603866D02*
X190662857Y-122508628D01*
X190662857Y-122508628D02*
X190615238Y-122461009D01*
X190615238Y-122461009D02*
X190520000Y-122413390D01*
X137560952Y-105079580D02*
X137513333Y-105127200D01*
X137513333Y-105127200D02*
X137370476Y-105174819D01*
X137370476Y-105174819D02*
X137275238Y-105174819D01*
X137275238Y-105174819D02*
X137132381Y-105127200D01*
X137132381Y-105127200D02*
X137037143Y-105031961D01*
X137037143Y-105031961D02*
X136989524Y-104936723D01*
X136989524Y-104936723D02*
X136941905Y-104746247D01*
X136941905Y-104746247D02*
X136941905Y-104603390D01*
X136941905Y-104603390D02*
X136989524Y-104412914D01*
X136989524Y-104412914D02*
X137037143Y-104317676D01*
X137037143Y-104317676D02*
X137132381Y-104222438D01*
X137132381Y-104222438D02*
X137275238Y-104174819D01*
X137275238Y-104174819D02*
X137370476Y-104174819D01*
X137370476Y-104174819D02*
X137513333Y-104222438D01*
X137513333Y-104222438D02*
X137560952Y-104270057D01*
X137941905Y-104270057D02*
X137989524Y-104222438D01*
X137989524Y-104222438D02*
X138084762Y-104174819D01*
X138084762Y-104174819D02*
X138322857Y-104174819D01*
X138322857Y-104174819D02*
X138418095Y-104222438D01*
X138418095Y-104222438D02*
X138465714Y-104270057D01*
X138465714Y-104270057D02*
X138513333Y-104365295D01*
X138513333Y-104365295D02*
X138513333Y-104460533D01*
X138513333Y-104460533D02*
X138465714Y-104603390D01*
X138465714Y-104603390D02*
X137894286Y-105174819D01*
X137894286Y-105174819D02*
X138513333Y-105174819D01*
X139132381Y-104174819D02*
X139227619Y-104174819D01*
X139227619Y-104174819D02*
X139322857Y-104222438D01*
X139322857Y-104222438D02*
X139370476Y-104270057D01*
X139370476Y-104270057D02*
X139418095Y-104365295D01*
X139418095Y-104365295D02*
X139465714Y-104555771D01*
X139465714Y-104555771D02*
X139465714Y-104793866D01*
X139465714Y-104793866D02*
X139418095Y-104984342D01*
X139418095Y-104984342D02*
X139370476Y-105079580D01*
X139370476Y-105079580D02*
X139322857Y-105127200D01*
X139322857Y-105127200D02*
X139227619Y-105174819D01*
X139227619Y-105174819D02*
X139132381Y-105174819D01*
X139132381Y-105174819D02*
X139037143Y-105127200D01*
X139037143Y-105127200D02*
X138989524Y-105079580D01*
X138989524Y-105079580D02*
X138941905Y-104984342D01*
X138941905Y-104984342D02*
X138894286Y-104793866D01*
X138894286Y-104793866D02*
X138894286Y-104555771D01*
X138894286Y-104555771D02*
X138941905Y-104365295D01*
X138941905Y-104365295D02*
X138989524Y-104270057D01*
X138989524Y-104270057D02*
X139037143Y-104222438D01*
X139037143Y-104222438D02*
X139132381Y-104174819D01*
X140084762Y-104174819D02*
X140180000Y-104174819D01*
X140180000Y-104174819D02*
X140275238Y-104222438D01*
X140275238Y-104222438D02*
X140322857Y-104270057D01*
X140322857Y-104270057D02*
X140370476Y-104365295D01*
X140370476Y-104365295D02*
X140418095Y-104555771D01*
X140418095Y-104555771D02*
X140418095Y-104793866D01*
X140418095Y-104793866D02*
X140370476Y-104984342D01*
X140370476Y-104984342D02*
X140322857Y-105079580D01*
X140322857Y-105079580D02*
X140275238Y-105127200D01*
X140275238Y-105127200D02*
X140180000Y-105174819D01*
X140180000Y-105174819D02*
X140084762Y-105174819D01*
X140084762Y-105174819D02*
X139989524Y-105127200D01*
X139989524Y-105127200D02*
X139941905Y-105079580D01*
X139941905Y-105079580D02*
X139894286Y-104984342D01*
X139894286Y-104984342D02*
X139846667Y-104793866D01*
X139846667Y-104793866D02*
X139846667Y-104555771D01*
X139846667Y-104555771D02*
X139894286Y-104365295D01*
X139894286Y-104365295D02*
X139941905Y-104270057D01*
X139941905Y-104270057D02*
X139989524Y-104222438D01*
X139989524Y-104222438D02*
X140084762Y-104174819D01*
X175278095Y-142896819D02*
X175849523Y-142896819D01*
X175563809Y-143896819D02*
X175563809Y-142896819D01*
X176182857Y-143896819D02*
X176182857Y-142896819D01*
X176182857Y-142896819D02*
X176563809Y-142896819D01*
X176563809Y-142896819D02*
X176659047Y-142944438D01*
X176659047Y-142944438D02*
X176706666Y-142992057D01*
X176706666Y-142992057D02*
X176754285Y-143087295D01*
X176754285Y-143087295D02*
X176754285Y-143230152D01*
X176754285Y-143230152D02*
X176706666Y-143325390D01*
X176706666Y-143325390D02*
X176659047Y-143373009D01*
X176659047Y-143373009D02*
X176563809Y-143420628D01*
X176563809Y-143420628D02*
X176182857Y-143420628D01*
X177706666Y-143896819D02*
X177135238Y-143896819D01*
X177420952Y-143896819D02*
X177420952Y-142896819D01*
X177420952Y-142896819D02*
X177325714Y-143039676D01*
X177325714Y-143039676D02*
X177230476Y-143134914D01*
X177230476Y-143134914D02*
X177135238Y-143182533D01*
X190794819Y-125291904D02*
X191604342Y-125291904D01*
X191604342Y-125291904D02*
X191699580Y-125244285D01*
X191699580Y-125244285D02*
X191747200Y-125196666D01*
X191747200Y-125196666D02*
X191794819Y-125101428D01*
X191794819Y-125101428D02*
X191794819Y-124910952D01*
X191794819Y-124910952D02*
X191747200Y-124815714D01*
X191747200Y-124815714D02*
X191699580Y-124768095D01*
X191699580Y-124768095D02*
X191604342Y-124720476D01*
X191604342Y-124720476D02*
X190794819Y-124720476D01*
X191794819Y-124196666D02*
X191794819Y-124006190D01*
X191794819Y-124006190D02*
X191747200Y-123910952D01*
X191747200Y-123910952D02*
X191699580Y-123863333D01*
X191699580Y-123863333D02*
X191556723Y-123768095D01*
X191556723Y-123768095D02*
X191366247Y-123720476D01*
X191366247Y-123720476D02*
X190985295Y-123720476D01*
X190985295Y-123720476D02*
X190890057Y-123768095D01*
X190890057Y-123768095D02*
X190842438Y-123815714D01*
X190842438Y-123815714D02*
X190794819Y-123910952D01*
X190794819Y-123910952D02*
X190794819Y-124101428D01*
X190794819Y-124101428D02*
X190842438Y-124196666D01*
X190842438Y-124196666D02*
X190890057Y-124244285D01*
X190890057Y-124244285D02*
X190985295Y-124291904D01*
X190985295Y-124291904D02*
X191223390Y-124291904D01*
X191223390Y-124291904D02*
X191318628Y-124244285D01*
X191318628Y-124244285D02*
X191366247Y-124196666D01*
X191366247Y-124196666D02*
X191413866Y-124101428D01*
X191413866Y-124101428D02*
X191413866Y-123910952D01*
X191413866Y-123910952D02*
X191366247Y-123815714D01*
X191366247Y-123815714D02*
X191318628Y-123768095D01*
X191318628Y-123768095D02*
X191223390Y-123720476D01*
X180909580Y-111132857D02*
X180957200Y-111180476D01*
X180957200Y-111180476D02*
X181004819Y-111323333D01*
X181004819Y-111323333D02*
X181004819Y-111418571D01*
X181004819Y-111418571D02*
X180957200Y-111561428D01*
X180957200Y-111561428D02*
X180861961Y-111656666D01*
X180861961Y-111656666D02*
X180766723Y-111704285D01*
X180766723Y-111704285D02*
X180576247Y-111751904D01*
X180576247Y-111751904D02*
X180433390Y-111751904D01*
X180433390Y-111751904D02*
X180242914Y-111704285D01*
X180242914Y-111704285D02*
X180147676Y-111656666D01*
X180147676Y-111656666D02*
X180052438Y-111561428D01*
X180052438Y-111561428D02*
X180004819Y-111418571D01*
X180004819Y-111418571D02*
X180004819Y-111323333D01*
X180004819Y-111323333D02*
X180052438Y-111180476D01*
X180052438Y-111180476D02*
X180100057Y-111132857D01*
X180100057Y-110751904D02*
X180052438Y-110704285D01*
X180052438Y-110704285D02*
X180004819Y-110609047D01*
X180004819Y-110609047D02*
X180004819Y-110370952D01*
X180004819Y-110370952D02*
X180052438Y-110275714D01*
X180052438Y-110275714D02*
X180100057Y-110228095D01*
X180100057Y-110228095D02*
X180195295Y-110180476D01*
X180195295Y-110180476D02*
X180290533Y-110180476D01*
X180290533Y-110180476D02*
X180433390Y-110228095D01*
X180433390Y-110228095D02*
X181004819Y-110799523D01*
X181004819Y-110799523D02*
X181004819Y-110180476D01*
X180100057Y-109799523D02*
X180052438Y-109751904D01*
X180052438Y-109751904D02*
X180004819Y-109656666D01*
X180004819Y-109656666D02*
X180004819Y-109418571D01*
X180004819Y-109418571D02*
X180052438Y-109323333D01*
X180052438Y-109323333D02*
X180100057Y-109275714D01*
X180100057Y-109275714D02*
X180195295Y-109228095D01*
X180195295Y-109228095D02*
X180290533Y-109228095D01*
X180290533Y-109228095D02*
X180433390Y-109275714D01*
X180433390Y-109275714D02*
X181004819Y-109847142D01*
X181004819Y-109847142D02*
X181004819Y-109228095D01*
X183329580Y-116902857D02*
X183377200Y-116950476D01*
X183377200Y-116950476D02*
X183424819Y-117093333D01*
X183424819Y-117093333D02*
X183424819Y-117188571D01*
X183424819Y-117188571D02*
X183377200Y-117331428D01*
X183377200Y-117331428D02*
X183281961Y-117426666D01*
X183281961Y-117426666D02*
X183186723Y-117474285D01*
X183186723Y-117474285D02*
X182996247Y-117521904D01*
X182996247Y-117521904D02*
X182853390Y-117521904D01*
X182853390Y-117521904D02*
X182662914Y-117474285D01*
X182662914Y-117474285D02*
X182567676Y-117426666D01*
X182567676Y-117426666D02*
X182472438Y-117331428D01*
X182472438Y-117331428D02*
X182424819Y-117188571D01*
X182424819Y-117188571D02*
X182424819Y-117093333D01*
X182424819Y-117093333D02*
X182472438Y-116950476D01*
X182472438Y-116950476D02*
X182520057Y-116902857D01*
X183424819Y-115950476D02*
X183424819Y-116521904D01*
X183424819Y-116236190D02*
X182424819Y-116236190D01*
X182424819Y-116236190D02*
X182567676Y-116331428D01*
X182567676Y-116331428D02*
X182662914Y-116426666D01*
X182662914Y-116426666D02*
X182710533Y-116521904D01*
X183424819Y-115474285D02*
X183424819Y-115283809D01*
X183424819Y-115283809D02*
X183377200Y-115188571D01*
X183377200Y-115188571D02*
X183329580Y-115140952D01*
X183329580Y-115140952D02*
X183186723Y-115045714D01*
X183186723Y-115045714D02*
X182996247Y-114998095D01*
X182996247Y-114998095D02*
X182615295Y-114998095D01*
X182615295Y-114998095D02*
X182520057Y-115045714D01*
X182520057Y-115045714D02*
X182472438Y-115093333D01*
X182472438Y-115093333D02*
X182424819Y-115188571D01*
X182424819Y-115188571D02*
X182424819Y-115379047D01*
X182424819Y-115379047D02*
X182472438Y-115474285D01*
X182472438Y-115474285D02*
X182520057Y-115521904D01*
X182520057Y-115521904D02*
X182615295Y-115569523D01*
X182615295Y-115569523D02*
X182853390Y-115569523D01*
X182853390Y-115569523D02*
X182948628Y-115521904D01*
X182948628Y-115521904D02*
X182996247Y-115474285D01*
X182996247Y-115474285D02*
X183043866Y-115379047D01*
X183043866Y-115379047D02*
X183043866Y-115188571D01*
X183043866Y-115188571D02*
X182996247Y-115093333D01*
X182996247Y-115093333D02*
X182948628Y-115045714D01*
X182948628Y-115045714D02*
X182853390Y-114998095D01*
X178972142Y-145504819D02*
X178638809Y-145028628D01*
X178400714Y-145504819D02*
X178400714Y-144504819D01*
X178400714Y-144504819D02*
X178781666Y-144504819D01*
X178781666Y-144504819D02*
X178876904Y-144552438D01*
X178876904Y-144552438D02*
X178924523Y-144600057D01*
X178924523Y-144600057D02*
X178972142Y-144695295D01*
X178972142Y-144695295D02*
X178972142Y-144838152D01*
X178972142Y-144838152D02*
X178924523Y-144933390D01*
X178924523Y-144933390D02*
X178876904Y-144981009D01*
X178876904Y-144981009D02*
X178781666Y-145028628D01*
X178781666Y-145028628D02*
X178400714Y-145028628D01*
X179924523Y-145504819D02*
X179353095Y-145504819D01*
X179638809Y-145504819D02*
X179638809Y-144504819D01*
X179638809Y-144504819D02*
X179543571Y-144647676D01*
X179543571Y-144647676D02*
X179448333Y-144742914D01*
X179448333Y-144742914D02*
X179353095Y-144790533D01*
X180257857Y-144504819D02*
X180876904Y-144504819D01*
X180876904Y-144504819D02*
X180543571Y-144885771D01*
X180543571Y-144885771D02*
X180686428Y-144885771D01*
X180686428Y-144885771D02*
X180781666Y-144933390D01*
X180781666Y-144933390D02*
X180829285Y-144981009D01*
X180829285Y-144981009D02*
X180876904Y-145076247D01*
X180876904Y-145076247D02*
X180876904Y-145314342D01*
X180876904Y-145314342D02*
X180829285Y-145409580D01*
X180829285Y-145409580D02*
X180781666Y-145457200D01*
X180781666Y-145457200D02*
X180686428Y-145504819D01*
X180686428Y-145504819D02*
X180400714Y-145504819D01*
X180400714Y-145504819D02*
X180305476Y-145457200D01*
X180305476Y-145457200D02*
X180257857Y-145409580D01*
X186607142Y-130344819D02*
X186273809Y-129868628D01*
X186035714Y-130344819D02*
X186035714Y-129344819D01*
X186035714Y-129344819D02*
X186416666Y-129344819D01*
X186416666Y-129344819D02*
X186511904Y-129392438D01*
X186511904Y-129392438D02*
X186559523Y-129440057D01*
X186559523Y-129440057D02*
X186607142Y-129535295D01*
X186607142Y-129535295D02*
X186607142Y-129678152D01*
X186607142Y-129678152D02*
X186559523Y-129773390D01*
X186559523Y-129773390D02*
X186511904Y-129821009D01*
X186511904Y-129821009D02*
X186416666Y-129868628D01*
X186416666Y-129868628D02*
X186035714Y-129868628D01*
X186988095Y-129440057D02*
X187035714Y-129392438D01*
X187035714Y-129392438D02*
X187130952Y-129344819D01*
X187130952Y-129344819D02*
X187369047Y-129344819D01*
X187369047Y-129344819D02*
X187464285Y-129392438D01*
X187464285Y-129392438D02*
X187511904Y-129440057D01*
X187511904Y-129440057D02*
X187559523Y-129535295D01*
X187559523Y-129535295D02*
X187559523Y-129630533D01*
X187559523Y-129630533D02*
X187511904Y-129773390D01*
X187511904Y-129773390D02*
X186940476Y-130344819D01*
X186940476Y-130344819D02*
X187559523Y-130344819D01*
X187940476Y-129440057D02*
X187988095Y-129392438D01*
X187988095Y-129392438D02*
X188083333Y-129344819D01*
X188083333Y-129344819D02*
X188321428Y-129344819D01*
X188321428Y-129344819D02*
X188416666Y-129392438D01*
X188416666Y-129392438D02*
X188464285Y-129440057D01*
X188464285Y-129440057D02*
X188511904Y-129535295D01*
X188511904Y-129535295D02*
X188511904Y-129630533D01*
X188511904Y-129630533D02*
X188464285Y-129773390D01*
X188464285Y-129773390D02*
X187892857Y-130344819D01*
X187892857Y-130344819D02*
X188511904Y-130344819D01*
D13*
X182394047Y-141114809D02*
X182394047Y-141519571D01*
X182394047Y-141519571D02*
X182417857Y-141567190D01*
X182417857Y-141567190D02*
X182441666Y-141591000D01*
X182441666Y-141591000D02*
X182489285Y-141614809D01*
X182489285Y-141614809D02*
X182584523Y-141614809D01*
X182584523Y-141614809D02*
X182632142Y-141591000D01*
X182632142Y-141591000D02*
X182655952Y-141567190D01*
X182655952Y-141567190D02*
X182679761Y-141519571D01*
X182679761Y-141519571D02*
X182679761Y-141114809D01*
X183155952Y-141114809D02*
X182917857Y-141114809D01*
X182917857Y-141114809D02*
X182894048Y-141352904D01*
X182894048Y-141352904D02*
X182917857Y-141329095D01*
X182917857Y-141329095D02*
X182965476Y-141305285D01*
X182965476Y-141305285D02*
X183084524Y-141305285D01*
X183084524Y-141305285D02*
X183132143Y-141329095D01*
X183132143Y-141329095D02*
X183155952Y-141352904D01*
X183155952Y-141352904D02*
X183179762Y-141400523D01*
X183179762Y-141400523D02*
X183179762Y-141519571D01*
X183179762Y-141519571D02*
X183155952Y-141567190D01*
X183155952Y-141567190D02*
X183132143Y-141591000D01*
X183132143Y-141591000D02*
X183084524Y-141614809D01*
X183084524Y-141614809D02*
X182965476Y-141614809D01*
X182965476Y-141614809D02*
X182917857Y-141591000D01*
X182917857Y-141591000D02*
X182894048Y-141567190D01*
D14*
%TO.C,R17*%
X152477258Y-157117500D02*
X152002742Y-157117500D01*
X152477258Y-158162500D02*
X152002742Y-158162500D01*
%TO.C,R14*%
X141617500Y-119472742D02*
X141617500Y-119947258D01*
X142662500Y-119472742D02*
X142662500Y-119947258D01*
%TO.C,J3*%
X175595000Y-158115000D02*
X175595000Y-156785000D01*
X176925000Y-158115000D02*
X175595000Y-158115000D01*
X178195000Y-155455000D02*
X180795000Y-155455000D01*
X178195000Y-158115000D02*
X178195000Y-155455000D01*
X178195000Y-158115000D02*
X180795000Y-158115000D01*
X180795000Y-158115000D02*
X180795000Y-155455000D01*
%TO.C,C18*%
X183065000Y-125888748D02*
X183065000Y-126411252D01*
X184535000Y-125888748D02*
X184535000Y-126411252D01*
%TO.C,C23*%
X186365000Y-108511252D02*
X186365000Y-107988748D01*
X187835000Y-108511252D02*
X187835000Y-107988748D01*
%TO.C,C17*%
X156598748Y-152225000D02*
X157121252Y-152225000D01*
X156598748Y-153695000D02*
X157121252Y-153695000D01*
%TO.C,U10*%
X186300000Y-116850000D02*
X186300000Y-115550000D01*
X188100000Y-116850000D02*
X188100000Y-115750000D01*
X188380000Y-115500000D02*
X188100000Y-115500000D01*
X188100000Y-115220000D01*
X188380000Y-115500000D01*
G36*
X188380000Y-115500000D02*
G01*
X188100000Y-115500000D01*
X188100000Y-115220000D01*
X188380000Y-115500000D01*
G37*
%TO.C,R20*%
X173730000Y-156515242D02*
X173730000Y-156989758D01*
X174775000Y-156515242D02*
X174775000Y-156989758D01*
%TO.C,D1*%
X173120000Y-151980000D02*
X173120000Y-154640000D01*
X174820000Y-151980000D02*
X173120000Y-151980000D01*
X174820000Y-151980000D02*
X174820000Y-154640000D01*
%TO.C,C25*%
X140731252Y-145135000D02*
X140208748Y-145135000D01*
X140731252Y-146605000D02*
X140208748Y-146605000D01*
%TO.C,C13*%
X183168748Y-129335000D02*
X183691252Y-129335000D01*
X183168748Y-130805000D02*
X183691252Y-130805000D01*
%TO.C,C14*%
X187201252Y-129335000D02*
X186678748Y-129335000D01*
X187201252Y-130805000D02*
X186678748Y-130805000D01*
%TO.C,R18*%
X187277500Y-119337258D02*
X187277500Y-118862742D01*
X188322500Y-119337258D02*
X188322500Y-118862742D01*
%TO.C,J1*%
X171370000Y-148380000D02*
X171370000Y-140700000D01*
X174030000Y-140700000D02*
X171370000Y-140700000D01*
X174030000Y-148380000D02*
X171370000Y-148380000D01*
X174030000Y-148380000D02*
X174030000Y-140700000D01*
X174030000Y-149650000D02*
X174030000Y-150980000D01*
X174030000Y-150980000D02*
X172700000Y-150980000D01*
%TO.C,U11*%
X142950000Y-142835000D02*
X144250000Y-142835000D01*
X142950000Y-144635000D02*
X144050000Y-144635000D01*
X144300000Y-144915000D02*
X144300000Y-144635000D01*
X144580000Y-144635000D01*
X144300000Y-144915000D01*
G36*
X144300000Y-144915000D02*
G01*
X144300000Y-144635000D01*
X144580000Y-144635000D01*
X144300000Y-144915000D01*
G37*
%TO.C,C21*%
X160791252Y-152675000D02*
X160268748Y-152675000D01*
X160791252Y-154145000D02*
X160268748Y-154145000D01*
%TO.C,U7*%
X141410000Y-121960000D02*
X141410000Y-123060000D01*
X143210000Y-121960000D02*
X143210000Y-123260000D01*
X141410000Y-123590000D02*
X141130000Y-123310000D01*
X141410000Y-123310000D01*
X141410000Y-123590000D01*
G36*
X141410000Y-123590000D02*
G01*
X141130000Y-123310000D01*
X141410000Y-123310000D01*
X141410000Y-123590000D01*
G37*
%TO.C,C189*%
X174910000Y-124457500D02*
X174910000Y-132517500D01*
X174910000Y-132517500D02*
X179430000Y-132517500D01*
X179430000Y-132517500D02*
X179430000Y-124457500D01*
%TO.C,TH1*%
X157977742Y-135267500D02*
X158452258Y-135267500D01*
X157977742Y-136312500D02*
X158452258Y-136312500D01*
%TO.C,TP2*%
X181500000Y-150880000D02*
X183400000Y-150880000D01*
X181500000Y-152780000D02*
X181500000Y-150880000D01*
X183400000Y-150880000D02*
X183400000Y-152780000D01*
X183400000Y-152780000D02*
X181500000Y-152780000D01*
%TO.C,C1*%
X179504420Y-142930000D02*
X179785580Y-142930000D01*
X179504420Y-143950000D02*
X179785580Y-143950000D01*
%TO.C,R11*%
X179837500Y-139372742D02*
X179837500Y-139847258D01*
X180882500Y-139372742D02*
X180882500Y-139847258D01*
%TO.C,L5*%
X181470000Y-131765000D02*
X181470000Y-138865000D01*
X181470000Y-138865000D02*
X183520000Y-138865000D01*
X183520000Y-131765000D02*
X181470000Y-131765000D01*
X186520000Y-131765000D02*
X188570000Y-131765000D01*
X188570000Y-131765000D02*
X188570000Y-138865000D01*
X188570000Y-138865000D02*
X186520000Y-138865000D01*
%TO.C,U8*%
X154500000Y-156260000D02*
X155800000Y-156260000D01*
X154500000Y-158060000D02*
X155600000Y-158060000D01*
X155850000Y-158340000D02*
X155850000Y-158060000D01*
X156130000Y-158060000D01*
X155850000Y-158340000D01*
G36*
X155850000Y-158340000D02*
G01*
X155850000Y-158060000D01*
X156130000Y-158060000D01*
X155850000Y-158340000D01*
G37*
%TO.C,L6*%
X139786000Y-124206000D02*
X139786000Y-124930000D01*
X139786000Y-127454000D02*
X139786000Y-126730000D01*
X143034000Y-124206000D02*
X139786000Y-124206000D01*
X143034000Y-124930000D02*
X143034000Y-124206000D01*
X143034000Y-126730000D02*
X143034000Y-127454000D01*
X143034000Y-127454000D02*
X139786000Y-127454000D01*
%TO.C,R16*%
X151272742Y-155547500D02*
X151747258Y-155547500D01*
X151272742Y-156592500D02*
X151747258Y-156592500D01*
%TO.C,C11*%
X180255580Y-141410000D02*
X179974420Y-141410000D01*
X180255580Y-142430000D02*
X179974420Y-142430000D01*
%TO.C,C14*%
X154498748Y-154255000D02*
X155021252Y-154255000D01*
X154498748Y-155725000D02*
X155021252Y-155725000D01*
%TO.C,L9*%
X185476000Y-110726000D02*
X186200000Y-110726000D01*
X185476000Y-113974000D02*
X185476000Y-110726000D01*
X186200000Y-113974000D02*
X185476000Y-113974000D01*
X188000000Y-113974000D02*
X188724000Y-113974000D01*
X188724000Y-110726000D02*
X188000000Y-110726000D01*
X188724000Y-113974000D02*
X188724000Y-110726000D01*
%TO.C,R12*%
X179927500Y-148692742D02*
X179927500Y-149167258D01*
X180972500Y-148692742D02*
X180972500Y-149167258D01*
%TO.C,C15*%
X181015000Y-127531252D02*
X181015000Y-127008748D01*
X182485000Y-127531252D02*
X182485000Y-127008748D01*
%TO.C,R10*%
X182337742Y-139852500D02*
X182812258Y-139852500D01*
X182337742Y-140897500D02*
X182812258Y-140897500D01*
%TO.C,R21*%
X185737258Y-118377500D02*
X185262742Y-118377500D01*
X185737258Y-119422500D02*
X185262742Y-119422500D01*
%TO.C,R25*%
X145967500Y-145882742D02*
X145967500Y-146357258D01*
X147012500Y-145882742D02*
X147012500Y-146357258D01*
%TO.C,R27*%
X153787500Y-137457742D02*
X153787500Y-137932258D01*
X154832500Y-137457742D02*
X154832500Y-137932258D01*
%TO.C,C16*%
X143725000Y-122511252D02*
X143725000Y-121988748D01*
X145195000Y-122511252D02*
X145195000Y-121988748D01*
%TO.C,C26*%
X177431252Y-153095000D02*
X176908748Y-153095000D01*
X177431252Y-154565000D02*
X176908748Y-154565000D01*
%TO.C,R24*%
X147502500Y-146377258D02*
X147502500Y-145902742D01*
X148547500Y-146377258D02*
X148547500Y-145902742D01*
%TO.C,C500*%
X136491215Y-104933785D02*
X136491215Y-109453785D01*
X136491215Y-109453785D02*
X144551215Y-109453785D01*
X144551215Y-104933785D02*
X136491215Y-104933785D01*
%TO.C,R23*%
X179567500Y-152237258D02*
X179567500Y-151762742D01*
X180612500Y-152237258D02*
X180612500Y-151762742D01*
%TO.C,C7*%
X185529420Y-140455000D02*
X185810580Y-140455000D01*
X185529420Y-141475000D02*
X185810580Y-141475000D01*
%TO.C,TP3*%
X151190000Y-152860000D02*
G75*
G02*
X149790000Y-152860000I-700000J0D01*
G01*
X149790000Y-152860000D02*
G75*
G02*
X151190000Y-152860000I700000J0D01*
G01*
%TO.C,R26*%
X145227500Y-142857258D02*
X145227500Y-142382742D01*
X146272500Y-142857258D02*
X146272500Y-142382742D01*
%TO.C,C24*%
X143708748Y-145165000D02*
X144231252Y-145165000D01*
X143708748Y-146635000D02*
X144231252Y-146635000D01*
%TO.C,C12*%
X185738748Y-148065000D02*
X186261252Y-148065000D01*
X185738748Y-149535000D02*
X186261252Y-149535000D01*
%TO.C,J2*%
X137250000Y-151150000D02*
X137250000Y-149820000D01*
X138580000Y-151150000D02*
X137250000Y-151150000D01*
X139850000Y-148490000D02*
X150070000Y-148490000D01*
X139850000Y-151150000D02*
X139850000Y-148490000D01*
X139850000Y-151150000D02*
X150070000Y-151150000D01*
X150070000Y-151150000D02*
X150070000Y-148490000D01*
%TO.C,R19*%
X187477500Y-126262258D02*
X187477500Y-125787742D01*
X188522500Y-126262258D02*
X188522500Y-125787742D01*
%TO.C,GND*%
X185540000Y-150850000D02*
X187440000Y-150850000D01*
X185540000Y-152750000D02*
X185540000Y-150850000D01*
X187440000Y-150850000D02*
X187440000Y-152750000D01*
X187440000Y-152750000D02*
X185540000Y-152750000D01*
%TO.C,L8*%
X184576000Y-120976000D02*
X184576000Y-121700000D01*
X184576000Y-124224000D02*
X184576000Y-123500000D01*
X187824000Y-120976000D02*
X184576000Y-120976000D01*
X187824000Y-121700000D02*
X187824000Y-120976000D01*
X187824000Y-123500000D02*
X187824000Y-124224000D01*
X187824000Y-124224000D02*
X184576000Y-124224000D01*
%TO.C,L7*%
X157346000Y-154856000D02*
X160594000Y-154856000D01*
X157346000Y-155580000D02*
X157346000Y-154856000D01*
X157346000Y-157380000D02*
X157346000Y-158104000D01*
X157346000Y-158104000D02*
X160594000Y-158104000D01*
X160594000Y-154856000D02*
X160594000Y-155580000D01*
X160594000Y-158104000D02*
X160594000Y-157380000D01*
%TO.C,C200*%
X134191215Y-106599557D02*
X134191215Y-107122061D01*
X135661215Y-106599557D02*
X135661215Y-107122061D01*
%TO.C,TP1*%
X175590000Y-144140000D02*
X177490000Y-144140000D01*
X175590000Y-146040000D02*
X175590000Y-144140000D01*
X177490000Y-144140000D02*
X177490000Y-146040000D01*
X177490000Y-146040000D02*
X175590000Y-146040000D01*
%TO.C,U9*%
X185100000Y-126492500D02*
X185100000Y-125192500D01*
X186900000Y-126492500D02*
X186900000Y-125392500D01*
X187180000Y-125142500D02*
X186900000Y-125142500D01*
X186900000Y-124862500D01*
X187180000Y-125142500D01*
G36*
X187180000Y-125142500D02*
G01*
X186900000Y-125142500D01*
X186900000Y-124862500D01*
X187180000Y-125142500D01*
G37*
%TO.C,L10*%
X138186000Y-141426000D02*
X138186000Y-142150000D01*
X138186000Y-144674000D02*
X138186000Y-143950000D01*
X141434000Y-141426000D02*
X138186000Y-141426000D01*
X141434000Y-142150000D02*
X141434000Y-141426000D01*
X141434000Y-143950000D02*
X141434000Y-144674000D01*
X141434000Y-144674000D02*
X138186000Y-144674000D01*
%TO.C,R15*%
X141497500Y-116912258D02*
X141497500Y-116437742D01*
X142542500Y-116912258D02*
X142542500Y-116437742D01*
%TO.C,C22*%
X182715000Y-111961252D02*
X182715000Y-111438748D01*
X184185000Y-111961252D02*
X184185000Y-111438748D01*
%TO.C,C19*%
X184315000Y-116138748D02*
X184315000Y-116661252D01*
X185785000Y-116138748D02*
X185785000Y-116661252D01*
%TO.C,R1*%
X182542742Y-147387500D02*
X183017258Y-147387500D01*
X182542742Y-148432500D02*
X183017258Y-148432500D01*
%TO.C,R13*%
X179377742Y-145957500D02*
X179852258Y-145957500D01*
X179377742Y-147002500D02*
X179852258Y-147002500D01*
%TO.C,U6*%
X175460000Y-149080000D02*
X175910000Y-149080000D01*
X175460000Y-149530000D02*
X175460000Y-149080000D01*
X175460000Y-151850000D02*
X175460000Y-152000000D01*
X175910000Y-152300000D02*
X175700000Y-152300000D01*
X178680000Y-149080000D02*
X178230000Y-149080000D01*
X178680000Y-149530000D02*
X178680000Y-149080000D01*
X178680000Y-151850000D02*
X178680000Y-152300000D01*
X178680000Y-152300000D02*
X178230000Y-152300000D01*
X175460000Y-152300000D02*
X175130000Y-152540000D01*
X175130000Y-152060000D01*
X175460000Y-152300000D01*
G36*
X175460000Y-152300000D02*
G01*
X175130000Y-152540000D01*
X175130000Y-152060000D01*
X175460000Y-152300000D01*
G37*
%TO.C,C20*%
X137285000Y-125458748D02*
X137285000Y-125981252D01*
X138755000Y-125458748D02*
X138755000Y-125981252D01*
%TO.C,R22*%
X186937742Y-127777500D02*
X187412258Y-127777500D01*
X186937742Y-128822500D02*
X187412258Y-128822500D01*
%TO.C,U5*%
X181800000Y-146790000D02*
X181800000Y-145790000D01*
X182800000Y-141940000D02*
X181800000Y-141940000D01*
X182800000Y-146790000D02*
X181800000Y-146790000D01*
X185700000Y-146790000D02*
X186700000Y-146790000D01*
X186700000Y-141940000D02*
X185700000Y-141940000D01*
X186700000Y-142890000D02*
X186700000Y-141940000D01*
X186700000Y-146790000D02*
X186700000Y-145790000D01*
%TD*%
%LPC*%
D15*
%TO.C,R17*%
X153065000Y-157640000D03*
X151415000Y-157640000D03*
%TD*%
D16*
%TO.C,R14*%
X142140000Y-118885000D03*
X142140000Y-120535000D03*
%TD*%
D17*
%TO.C,J3*%
X176925000Y-156785000D03*
D18*
X179465000Y-156785000D03*
%TD*%
D19*
%TO.C,C18*%
X183800000Y-125200000D03*
X183800000Y-127100000D03*
%TD*%
D20*
%TO.C,C23*%
X187100000Y-109200000D03*
X187100000Y-107300000D03*
%TD*%
D21*
%TO.C,C17*%
X155910000Y-152960000D03*
X157810000Y-152960000D03*
%TD*%
D22*
%TO.C,U10*%
X187700000Y-115450000D03*
X187200000Y-115450000D03*
X186700000Y-115450000D03*
X186700000Y-116950000D03*
X187200000Y-116950000D03*
X187700000Y-116950000D03*
%TD*%
D16*
%TO.C,R20*%
X174252500Y-155927500D03*
X174252500Y-157577500D03*
%TD*%
D23*
%TO.C,D1*%
X173970000Y-152540000D03*
X173970000Y-154640000D03*
%TD*%
D24*
%TO.C,C25*%
X141420000Y-145870000D03*
X139520000Y-145870000D03*
%TD*%
D21*
%TO.C,C13*%
X182480000Y-130070000D03*
X184380000Y-130070000D03*
%TD*%
D24*
%TO.C,C14*%
X187890000Y-130070000D03*
X185990000Y-130070000D03*
%TD*%
D25*
%TO.C,R18*%
X187800000Y-119925000D03*
X187800000Y-118275000D03*
%TD*%
D17*
%TO.C,J1*%
X172700000Y-149650000D03*
D18*
X172700000Y-147110000D03*
X172700000Y-144570000D03*
X172700000Y-142030000D03*
%TD*%
D26*
%TO.C,U11*%
X144350000Y-144235000D03*
X144350000Y-143735000D03*
X144350000Y-143235000D03*
X142850000Y-143235000D03*
X142850000Y-143735000D03*
X142850000Y-144235000D03*
%TD*%
D24*
%TO.C,C21*%
X161480000Y-153410000D03*
X159580000Y-153410000D03*
%TD*%
D27*
%TO.C,U7*%
X141810000Y-123360000D03*
X142310000Y-123360000D03*
X142810000Y-123360000D03*
X142810000Y-121860000D03*
X142310000Y-121860000D03*
X141810000Y-121860000D03*
%TD*%
D28*
%TO.C,C189*%
X177170000Y-131220000D03*
X177170000Y-124995000D03*
%TD*%
D29*
%TO.C,TH1*%
X157390000Y-135790000D03*
X159040000Y-135790000D03*
%TD*%
D30*
%TO.C,TP2*%
X182450000Y-151830000D03*
%TD*%
D31*
%TO.C,C1*%
X178870000Y-143440000D03*
X180420000Y-143440000D03*
%TD*%
D16*
%TO.C,R11*%
X180360000Y-138785000D03*
X180360000Y-140435000D03*
%TD*%
D32*
%TO.C,TP20*%
X134972776Y-104153785D03*
%TD*%
D33*
%TO.C,L5*%
X185020000Y-132765000D03*
X185020000Y-137865000D03*
%TD*%
D26*
%TO.C,U8*%
X155900000Y-157660000D03*
X155900000Y-157160000D03*
X155900000Y-156660000D03*
X154400000Y-156660000D03*
X154400000Y-157160000D03*
X154400000Y-157660000D03*
%TD*%
D32*
%TO.C,TP5*%
X178886523Y-123309192D03*
%TD*%
D34*
%TO.C,L6*%
X142760000Y-125830000D03*
X140060000Y-125830000D03*
%TD*%
D29*
%TO.C,R16*%
X150685000Y-156070000D03*
X152335000Y-156070000D03*
%TD*%
D35*
%TO.C,C11*%
X180890000Y-141920000D03*
X179340000Y-141920000D03*
%TD*%
D21*
%TO.C,C14*%
X153810000Y-154990000D03*
X155710000Y-154990000D03*
%TD*%
D36*
%TO.C,L9*%
X187100000Y-113700000D03*
X187100000Y-111000000D03*
%TD*%
D16*
%TO.C,R12*%
X180450000Y-148105000D03*
X180450000Y-149755000D03*
%TD*%
D20*
%TO.C,C15*%
X181750000Y-128220000D03*
X181750000Y-126320000D03*
%TD*%
D29*
%TO.C,R10*%
X181750000Y-140375000D03*
X183400000Y-140375000D03*
%TD*%
D15*
%TO.C,R21*%
X186325000Y-118900000D03*
X184675000Y-118900000D03*
%TD*%
D16*
%TO.C,R25*%
X146490000Y-145295000D03*
X146490000Y-146945000D03*
%TD*%
%TO.C,R27*%
X154310000Y-136870000D03*
X154310000Y-138520000D03*
%TD*%
D37*
%TO.C,*%
X171380000Y-156210000D03*
%TD*%
D32*
%TO.C,*%
X178900000Y-113700000D03*
%TD*%
D20*
%TO.C,C16*%
X144460000Y-123200000D03*
X144460000Y-121300000D03*
%TD*%
D24*
%TO.C,C26*%
X178120000Y-153830000D03*
X176220000Y-153830000D03*
%TD*%
D32*
%TO.C,TP40*%
X140799999Y-128148344D03*
%TD*%
D25*
%TO.C,R24*%
X148025000Y-146965000D03*
X148025000Y-145315000D03*
%TD*%
D38*
%TO.C,C500*%
X137788715Y-107193785D03*
X144013715Y-107193785D03*
%TD*%
D37*
%TO.C,TP30*%
X162116215Y-156358525D03*
%TD*%
D25*
%TO.C,R23*%
X180090000Y-152825000D03*
X180090000Y-151175000D03*
%TD*%
D39*
%TO.C,TP10*%
X181520000Y-104300000D03*
%TD*%
D31*
%TO.C,C7*%
X184895000Y-140965000D03*
X186445000Y-140965000D03*
%TD*%
D40*
%TO.C,TP3*%
X150490000Y-152860000D03*
%TD*%
D25*
%TO.C,R26*%
X145750000Y-143445000D03*
X145750000Y-141795000D03*
%TD*%
D40*
%TO.C,TP60*%
X180070000Y-154240000D03*
%TD*%
D21*
%TO.C,C24*%
X143020000Y-145900000D03*
X144920000Y-145900000D03*
%TD*%
%TO.C,C12*%
X185050000Y-148800000D03*
X186950000Y-148800000D03*
%TD*%
D17*
%TO.C,J2*%
X138580000Y-149820000D03*
D18*
X141120000Y-149820000D03*
X143660000Y-149820000D03*
X146200000Y-149820000D03*
X148740000Y-149820000D03*
%TD*%
D25*
%TO.C,R19*%
X188000000Y-126850000D03*
X188000000Y-125200000D03*
%TD*%
D30*
%TO.C,GND*%
X186490000Y-151800000D03*
%TD*%
D34*
%TO.C,L8*%
X187550000Y-122600000D03*
X184850000Y-122600000D03*
%TD*%
%TO.C,L7*%
X157620000Y-156480000D03*
X160320000Y-156480000D03*
%TD*%
D19*
%TO.C,C200*%
X134926215Y-105910809D03*
X134926215Y-107810809D03*
%TD*%
D30*
%TO.C,TP1*%
X176540000Y-145090000D03*
%TD*%
D22*
%TO.C,U9*%
X186500000Y-125092500D03*
X186000000Y-125092500D03*
X185500000Y-125092500D03*
X185500000Y-126592500D03*
X186000000Y-126592500D03*
X186500000Y-126592500D03*
%TD*%
D34*
%TO.C,L10*%
X141160000Y-143050000D03*
X138460000Y-143050000D03*
%TD*%
D25*
%TO.C,R15*%
X142020000Y-117500000D03*
X142020000Y-115850000D03*
%TD*%
D20*
%TO.C,C22*%
X183450000Y-112650000D03*
X183450000Y-110750000D03*
%TD*%
D19*
%TO.C,C19*%
X185050000Y-115450000D03*
X185050000Y-117350000D03*
%TD*%
D29*
%TO.C,R1*%
X181955000Y-147910000D03*
X183605000Y-147910000D03*
%TD*%
%TO.C,R13*%
X178790000Y-146480000D03*
X180440000Y-146480000D03*
%TD*%
D32*
%TO.C,TP7*%
X140799999Y-137800000D03*
%TD*%
D41*
%TO.C,U6*%
X176270000Y-152140000D03*
D42*
X176670000Y-152140000D03*
X177070000Y-152140000D03*
X177470000Y-152140000D03*
D43*
X177870000Y-152140000D03*
D44*
X178520000Y-151490000D03*
D45*
X178520000Y-151090000D03*
X178520000Y-150690000D03*
X178520000Y-150290000D03*
D46*
X178520000Y-149890000D03*
D47*
X177870000Y-149240000D03*
D42*
X177470000Y-149240000D03*
X177070000Y-149240000D03*
X176670000Y-149240000D03*
D48*
X176270000Y-149240000D03*
D49*
X175620000Y-149890000D03*
D45*
X175620000Y-150290000D03*
X175620000Y-150690000D03*
X175620000Y-151090000D03*
D50*
X175620000Y-151490000D03*
D17*
X177070000Y-150690000D03*
%TD*%
D19*
%TO.C,C20*%
X138020000Y-124770000D03*
X138020000Y-126670000D03*
%TD*%
D29*
%TO.C,R22*%
X186350000Y-128300000D03*
X188000000Y-128300000D03*
%TD*%
D51*
%TO.C,U5*%
X182275000Y-143090000D03*
X182275000Y-143590000D03*
X182275000Y-144090000D03*
X182275000Y-144590000D03*
X182275000Y-145090000D03*
X182275000Y-145590000D03*
D52*
X183000000Y-146315000D03*
X183500000Y-146315000D03*
X184000000Y-146315000D03*
X184500000Y-146315000D03*
X185000000Y-146315000D03*
X185500000Y-146315000D03*
D53*
X186225000Y-145590000D03*
X186225000Y-145090000D03*
X186225000Y-144590000D03*
X186225000Y-144090000D03*
X186225000Y-143590000D03*
X186225000Y-143090000D03*
D54*
X185500000Y-142365000D03*
X185000000Y-142365000D03*
X184500000Y-142365000D03*
X184000000Y-142365000D03*
X183500000Y-142365000D03*
X183000000Y-142365000D03*
D55*
X183150000Y-143240000D03*
X183150000Y-144340000D03*
X183150000Y-145440000D03*
X184250000Y-143240000D03*
X184250000Y-144340000D03*
D56*
X184250000Y-144340000D03*
D55*
X184250000Y-145440000D03*
X185350000Y-143240000D03*
X185350000Y-144340000D03*
X185350000Y-145440000D03*
%TD*%
%LPD*%
M02*
