%TF.GenerationSoftware,KiCad,Pcbnew,8.0.4*%
%TF.CreationDate,2024-09-14T14:46:55+02:00*%
%TF.ProjectId,WiiRegStripLite,57696952-6567-4537-9472-69704c697465,rev?*%
%TF.SameCoordinates,Original*%
%TF.FileFunction,Copper,L1,Top*%
%TF.FilePolarity,Positive*%
%FSLAX46Y46*%
G04 Gerber Fmt 4.6, Leading zero omitted, Abs format (unit mm)*
G04 Created by KiCad (PCBNEW 8.0.4) date 2024-09-14 14:46:55*
%MOMM*%
%LPD*%
G01*
G04 APERTURE LIST*
G04 Aperture macros list*
%AMRoundRect*
0 Rectangle with rounded corners*
0 $1 Rounding radius*
0 $2 $3 $4 $5 $6 $7 $8 $9 X,Y pos of 4 corners*
0 Add a 4 corners polygon primitive as box body*
4,1,4,$2,$3,$4,$5,$6,$7,$8,$9,$2,$3,0*
0 Add four circle primitives for the rounded corners*
1,1,$1+$1,$2,$3*
1,1,$1+$1,$4,$5*
1,1,$1+$1,$6,$7*
1,1,$1+$1,$8,$9*
0 Add four rect primitives between the rounded corners*
20,1,$1+$1,$2,$3,$4,$5,0*
20,1,$1+$1,$4,$5,$6,$7,0*
20,1,$1+$1,$6,$7,$8,$9,0*
20,1,$1+$1,$8,$9,$2,$3,0*%
%AMFreePoly0*
4,1,14,0.334644,0.085355,0.385355,0.034644,0.400000,-0.000711,0.400000,-0.050000,0.385355,-0.085355,0.350000,-0.100000,-0.350000,-0.100000,-0.385355,-0.085355,-0.400000,-0.050000,-0.400000,0.050000,-0.385355,0.085355,-0.350000,0.100000,0.299289,0.100000,0.334644,0.085355,0.334644,0.085355,$1*%
%AMFreePoly1*
4,1,14,0.385355,0.085355,0.400000,0.050000,0.400000,0.000711,0.385355,-0.034644,0.334644,-0.085355,0.299289,-0.100000,-0.350000,-0.100000,-0.385355,-0.085355,-0.400000,-0.050000,-0.400000,0.050000,-0.385355,0.085355,-0.350000,0.100000,0.350000,0.100000,0.385355,0.085355,0.385355,0.085355,$1*%
%AMFreePoly2*
4,1,14,0.085355,0.385355,0.100000,0.350000,0.100000,-0.350000,0.085355,-0.385355,0.050000,-0.400000,-0.050000,-0.400000,-0.085355,-0.385355,-0.100000,-0.350000,-0.100000,0.299289,-0.085355,0.334644,-0.034644,0.385355,0.000711,0.400000,0.050000,0.400000,0.085355,0.385355,0.085355,0.385355,$1*%
%AMFreePoly3*
4,1,14,0.034644,0.385355,0.085355,0.334644,0.100000,0.299289,0.100000,-0.350000,0.085355,-0.385355,0.050000,-0.400000,-0.050000,-0.400000,-0.085355,-0.385355,-0.100000,-0.350000,-0.100000,0.350000,-0.085355,0.385355,-0.050000,0.400000,-0.000711,0.400000,0.034644,0.385355,0.034644,0.385355,$1*%
%AMFreePoly4*
4,1,14,0.385355,0.085355,0.400000,0.050000,0.400000,-0.050000,0.385355,-0.085355,0.350000,-0.100000,-0.299289,-0.100000,-0.334644,-0.085355,-0.385355,-0.034644,-0.400000,0.000711,-0.400000,0.050000,-0.385355,0.085355,-0.350000,0.100000,0.350000,0.100000,0.385355,0.085355,0.385355,0.085355,$1*%
%AMFreePoly5*
4,1,14,0.385355,0.085355,0.400000,0.050000,0.400000,-0.050000,0.385355,-0.085355,0.350000,-0.100000,-0.350000,-0.100000,-0.385355,-0.085355,-0.400000,-0.050000,-0.400000,-0.000711,-0.385355,0.034644,-0.334644,0.085355,-0.299289,0.100000,0.350000,0.100000,0.385355,0.085355,0.385355,0.085355,$1*%
%AMFreePoly6*
4,1,14,0.085355,0.385355,0.100000,0.350000,0.100000,-0.299289,0.085355,-0.334644,0.034644,-0.385355,-0.000711,-0.400000,-0.050000,-0.400000,-0.085355,-0.385355,-0.100000,-0.350000,-0.100000,0.350000,-0.085355,0.385355,-0.050000,0.400000,0.050000,0.400000,0.085355,0.385355,0.085355,0.385355,$1*%
%AMFreePoly7*
4,1,14,0.085355,0.385355,0.100000,0.350000,0.100000,-0.350000,0.085355,-0.385355,0.050000,-0.400000,0.000711,-0.400000,-0.034644,-0.385355,-0.085355,-0.334644,-0.100000,-0.299289,-0.100000,0.350000,-0.085355,0.385355,-0.050000,0.400000,0.050000,0.400000,0.085355,0.385355,0.085355,0.385355,$1*%
G04 Aperture macros list end*
%TA.AperFunction,SMDPad,CuDef*%
%ADD10RoundRect,0.200000X0.200000X0.275000X-0.200000X0.275000X-0.200000X-0.275000X0.200000X-0.275000X0*%
%TD*%
%TA.AperFunction,SMDPad,CuDef*%
%ADD11RoundRect,0.200000X-0.275000X0.200000X-0.275000X-0.200000X0.275000X-0.200000X0.275000X0.200000X0*%
%TD*%
%TA.AperFunction,SMDPad,CuDef*%
%ADD12R,1.700000X1.700000*%
%TD*%
%TA.AperFunction,SMDPad,CuDef*%
%ADD13O,1.700000X1.700000*%
%TD*%
%TA.AperFunction,SMDPad,CuDef*%
%ADD14RoundRect,0.250000X-0.475000X0.250000X-0.475000X-0.250000X0.475000X-0.250000X0.475000X0.250000X0*%
%TD*%
%TA.AperFunction,SMDPad,CuDef*%
%ADD15RoundRect,0.250000X0.475000X-0.250000X0.475000X0.250000X-0.475000X0.250000X-0.475000X-0.250000X0*%
%TD*%
%TA.AperFunction,SMDPad,CuDef*%
%ADD16RoundRect,0.250000X-0.250000X-0.475000X0.250000X-0.475000X0.250000X0.475000X-0.250000X0.475000X0*%
%TD*%
%TA.AperFunction,SMDPad,CuDef*%
%ADD17RoundRect,0.085000X-0.085000X0.265000X-0.085000X-0.265000X0.085000X-0.265000X0.085000X0.265000X0*%
%TD*%
%TA.AperFunction,SMDPad,CuDef*%
%ADD18RoundRect,0.112500X-0.112500X0.187500X-0.112500X-0.187500X0.112500X-0.187500X0.112500X0.187500X0*%
%TD*%
%TA.AperFunction,SMDPad,CuDef*%
%ADD19RoundRect,0.250000X0.250000X0.475000X-0.250000X0.475000X-0.250000X-0.475000X0.250000X-0.475000X0*%
%TD*%
%TA.AperFunction,SMDPad,CuDef*%
%ADD20RoundRect,0.200000X0.275000X-0.200000X0.275000X0.200000X-0.275000X0.200000X-0.275000X-0.200000X0*%
%TD*%
%TA.AperFunction,SMDPad,CuDef*%
%ADD21RoundRect,0.085000X0.265000X0.085000X-0.265000X0.085000X-0.265000X-0.085000X0.265000X-0.085000X0*%
%TD*%
%TA.AperFunction,SMDPad,CuDef*%
%ADD22RoundRect,0.085000X0.085000X-0.265000X0.085000X0.265000X-0.085000X0.265000X-0.085000X-0.265000X0*%
%TD*%
%TA.AperFunction,SMDPad,CuDef*%
%ADD23RoundRect,0.250000X1.025000X-0.787500X1.025000X0.787500X-1.025000X0.787500X-1.025000X-0.787500X0*%
%TD*%
%TA.AperFunction,SMDPad,CuDef*%
%ADD24RoundRect,0.200000X-0.200000X-0.275000X0.200000X-0.275000X0.200000X0.275000X-0.200000X0.275000X0*%
%TD*%
%TA.AperFunction,SMDPad,CuDef*%
%ADD25R,1.500000X1.500000*%
%TD*%
%TA.AperFunction,SMDPad,CuDef*%
%ADD26RoundRect,0.225000X-0.225000X-0.250000X0.225000X-0.250000X0.225000X0.250000X-0.225000X0.250000X0*%
%TD*%
%TA.AperFunction,SMDPad,CuDef*%
%ADD27R,3.000000X1.000000*%
%TD*%
%TA.AperFunction,SMDPad,CuDef*%
%ADD28R,2.200000X2.700000*%
%TD*%
%TA.AperFunction,SMDPad,CuDef*%
%ADD29R,1.500000X1.200000*%
%TD*%
%TA.AperFunction,SMDPad,CuDef*%
%ADD30RoundRect,0.225000X0.225000X0.250000X-0.225000X0.250000X-0.225000X-0.250000X0.225000X-0.250000X0*%
%TD*%
%TA.AperFunction,SMDPad,CuDef*%
%ADD31R,1.200000X1.500000*%
%TD*%
%TA.AperFunction,SMDPad,CuDef*%
%ADD32R,1.000000X3.000000*%
%TD*%
%TA.AperFunction,SMDPad,CuDef*%
%ADD33RoundRect,0.250000X-0.787500X-1.025000X0.787500X-1.025000X0.787500X1.025000X-0.787500X1.025000X0*%
%TD*%
%TA.AperFunction,SMDPad,CuDef*%
%ADD34R,1.000000X1.500000*%
%TD*%
%TA.AperFunction,SMDPad,CuDef*%
%ADD35C,1.000000*%
%TD*%
%TA.AperFunction,SMDPad,CuDef*%
%ADD36FreePoly0,90.000000*%
%TD*%
%TA.AperFunction,SMDPad,CuDef*%
%ADD37RoundRect,0.050000X0.050000X-0.350000X0.050000X0.350000X-0.050000X0.350000X-0.050000X-0.350000X0*%
%TD*%
%TA.AperFunction,SMDPad,CuDef*%
%ADD38FreePoly1,90.000000*%
%TD*%
%TA.AperFunction,SMDPad,CuDef*%
%ADD39FreePoly2,90.000000*%
%TD*%
%TA.AperFunction,SMDPad,CuDef*%
%ADD40RoundRect,0.050000X0.350000X-0.050000X0.350000X0.050000X-0.350000X0.050000X-0.350000X-0.050000X0*%
%TD*%
%TA.AperFunction,SMDPad,CuDef*%
%ADD41FreePoly3,90.000000*%
%TD*%
%TA.AperFunction,SMDPad,CuDef*%
%ADD42FreePoly4,90.000000*%
%TD*%
%TA.AperFunction,SMDPad,CuDef*%
%ADD43FreePoly5,90.000000*%
%TD*%
%TA.AperFunction,SMDPad,CuDef*%
%ADD44FreePoly6,90.000000*%
%TD*%
%TA.AperFunction,SMDPad,CuDef*%
%ADD45FreePoly7,90.000000*%
%TD*%
%TA.AperFunction,HeatsinkPad*%
%ADD46R,1.700000X1.700000*%
%TD*%
%TA.AperFunction,SMDPad,CuDef*%
%ADD47RoundRect,0.070000X-0.355000X-0.070000X0.355000X-0.070000X0.355000X0.070000X-0.355000X0.070000X0*%
%TD*%
%TA.AperFunction,SMDPad,CuDef*%
%ADD48RoundRect,0.070000X0.070000X-0.355000X0.070000X0.355000X-0.070000X0.355000X-0.070000X-0.355000X0*%
%TD*%
%TA.AperFunction,SMDPad,CuDef*%
%ADD49RoundRect,0.070000X0.355000X0.070000X-0.355000X0.070000X-0.355000X-0.070000X0.355000X-0.070000X0*%
%TD*%
%TA.AperFunction,SMDPad,CuDef*%
%ADD50RoundRect,0.070000X-0.070000X0.355000X-0.070000X-0.355000X0.070000X-0.355000X0.070000X0.355000X0*%
%TD*%
%TA.AperFunction,ComponentPad*%
%ADD51C,0.500000*%
%TD*%
%TA.AperFunction,SMDPad,CuDef*%
%ADD52RoundRect,0.251100X-1.098900X1.098900X-1.098900X-1.098900X1.098900X-1.098900X1.098900X1.098900X0*%
%TD*%
%TA.AperFunction,ViaPad*%
%ADD53C,0.600000*%
%TD*%
%TA.AperFunction,ViaPad*%
%ADD54C,0.500000*%
%TD*%
%TA.AperFunction,ViaPad*%
%ADD55C,0.400000*%
%TD*%
%TA.AperFunction,ViaPad*%
%ADD56C,0.800000*%
%TD*%
%TA.AperFunction,Conductor*%
%ADD57C,0.200000*%
%TD*%
%TA.AperFunction,Conductor*%
%ADD58C,0.500000*%
%TD*%
%TA.AperFunction,Conductor*%
%ADD59C,1.270000*%
%TD*%
%TA.AperFunction,Conductor*%
%ADD60C,0.635000*%
%TD*%
%TA.AperFunction,Conductor*%
%ADD61C,0.150000*%
%TD*%
%TA.AperFunction,Conductor*%
%ADD62C,0.508000*%
%TD*%
%TA.AperFunction,Conductor*%
%ADD63C,0.381000*%
%TD*%
G04 APERTURE END LIST*
D10*
%TO.P,R28,1*%
%TO.N,GND*%
X178480000Y-140040000D03*
%TO.P,R28,2*%
%TO.N,EN*%
X176830000Y-140040000D03*
%TD*%
%TO.P,R17,1*%
%TO.N,Net-(U8-FB)*%
X153065000Y-157640000D03*
%TO.P,R17,2*%
%TO.N,GND*%
X151415000Y-157640000D03*
%TD*%
D11*
%TO.P,R14,1*%
%TO.N,1V*%
X142140000Y-118885000D03*
%TO.P,R14,2*%
%TO.N,Net-(U7-FB)*%
X142140000Y-120535000D03*
%TD*%
D12*
%TO.P,J3,1,Pin_1*%
%TO.N,GND*%
X176925000Y-156785000D03*
D13*
%TO.P,J3,2,Pin_2*%
%TO.N,PA4*%
X179465000Y-156785000D03*
%TD*%
D14*
%TO.P,C18,1*%
%TO.N,VIN*%
X183800000Y-125200000D03*
%TO.P,C18,2*%
%TO.N,GND*%
X183800000Y-127100000D03*
%TD*%
D15*
%TO.P,C23,1*%
%TO.N,3V*%
X187100000Y-109200000D03*
%TO.P,C23,2*%
%TO.N,GND*%
X187100000Y-107300000D03*
%TD*%
D16*
%TO.P,C17,1*%
%TO.N,VIN*%
X155910000Y-152960000D03*
%TO.P,C17,2*%
%TO.N,GND*%
X157810000Y-152960000D03*
%TD*%
D17*
%TO.P,U10,1,GND*%
%TO.N,GND*%
X187700000Y-115450000D03*
%TO.P,U10,2,SW*%
%TO.N,/Inductor3vIn*%
X187200000Y-115450000D03*
%TO.P,U10,3,VIN*%
%TO.N,VIN*%
X186700000Y-115450000D03*
%TO.P,U10,4,EN*%
%TO.N,EN*%
X186700000Y-116950000D03*
%TO.P,U10,5,FB*%
%TO.N,Net-(U10-FB)*%
X187200000Y-116950000D03*
%TO.P,U10,6,NC*%
%TO.N,unconnected-(U10-NC-Pad6)*%
X187700000Y-116950000D03*
%TD*%
D11*
%TO.P,R20,1*%
%TO.N,Net-(D1-A)*%
X174252500Y-155927500D03*
%TO.P,R20,2*%
%TO.N,UPDI*%
X174252500Y-157577500D03*
%TD*%
D18*
%TO.P,D1,1,K*%
%TO.N,Net-(D1-K)*%
X173970000Y-152540000D03*
%TO.P,D1,2,A*%
%TO.N,Net-(D1-A)*%
X173970000Y-154640000D03*
%TD*%
D19*
%TO.P,C25,1*%
%TO.N,5V*%
X141420000Y-145870000D03*
%TO.P,C25,2*%
%TO.N,GND*%
X139520000Y-145870000D03*
%TD*%
D16*
%TO.P,C13,1*%
%TO.N,GND*%
X182480000Y-130070000D03*
%TO.P,C13,2*%
%TO.N,VIN*%
X184380000Y-130070000D03*
%TD*%
D19*
%TO.P,C14,1*%
%TO.N,GND*%
X187890000Y-130070000D03*
%TO.P,C14,2*%
%TO.N,VIN*%
X185990000Y-130070000D03*
%TD*%
D20*
%TO.P,R18,1*%
%TO.N,3V*%
X187800000Y-119925000D03*
%TO.P,R18,2*%
%TO.N,Net-(U10-FB)*%
X187800000Y-118275000D03*
%TD*%
D12*
%TO.P,J1,1,Pin_1*%
%TO.N,GND*%
X172700000Y-149650000D03*
D13*
%TO.P,J1,2,Pin_2*%
%TO.N,VIN*%
X172700000Y-147110000D03*
%TO.P,J1,3,Pin_3*%
%TO.N,Net-(D1-K)*%
X172700000Y-144570000D03*
%TO.P,J1,4,Pin_4*%
%TO.N,Net-(D1-A)*%
X172700000Y-142030000D03*
%TD*%
D21*
%TO.P,U11,1,FB*%
%TO.N,Net-(U11-FB)*%
X144350000Y-144235000D03*
%TO.P,U11,2,EN*%
%TO.N,Net-(U11-EN)*%
X144350000Y-143735000D03*
%TO.P,U11,3,VIN*%
%TO.N,VIN*%
X144350000Y-143235000D03*
%TO.P,U11,4,GND*%
%TO.N,GND*%
X142850000Y-143235000D03*
%TO.P,U11,5,SW*%
%TO.N,/L5v*%
X142850000Y-143735000D03*
%TO.P,U11,6,VOUT*%
%TO.N,5V*%
X142850000Y-144235000D03*
%TD*%
D19*
%TO.P,C21,1*%
%TO.N,1V08*%
X161480000Y-153410000D03*
%TO.P,C21,2*%
%TO.N,GND*%
X159580000Y-153410000D03*
%TD*%
D22*
%TO.P,U7,1,GND*%
%TO.N,GND*%
X141810000Y-123360000D03*
%TO.P,U7,2,SW*%
%TO.N,/L1v*%
X142310000Y-123360000D03*
%TO.P,U7,3,VIN*%
%TO.N,VIN*%
X142810000Y-123360000D03*
%TO.P,U7,4,EN*%
%TO.N,EN*%
X142810000Y-121860000D03*
%TO.P,U7,5,FB*%
%TO.N,Net-(U7-FB)*%
X142310000Y-121860000D03*
%TO.P,U7,6,NC*%
%TO.N,unconnected-(U7-NC-Pad6)*%
X141810000Y-121860000D03*
%TD*%
D23*
%TO.P,C189,1*%
%TO.N,3V*%
X177170000Y-131220000D03*
%TO.P,C189,2*%
%TO.N,GND*%
X177170000Y-124995000D03*
%TD*%
D24*
%TO.P,TH1,1*%
%TO.N,PA1*%
X157390000Y-135790000D03*
%TO.P,TH1,2*%
%TO.N,GND*%
X159040000Y-135790000D03*
%TD*%
D25*
%TO.P,TP2,1,1*%
%TO.N,Net-(C12-Pad1)*%
X182450000Y-151830000D03*
%TD*%
D26*
%TO.P,C1,1*%
%TO.N,GND*%
X178870000Y-143440000D03*
%TO.P,C1,2*%
%TO.N,Net-(U5-VBUS)*%
X180420000Y-143440000D03*
%TD*%
D11*
%TO.P,R11,1*%
%TO.N,GND*%
X179880000Y-138775000D03*
%TO.P,R11,2*%
%TO.N,Net-(U5-TS)*%
X179880000Y-140425000D03*
%TD*%
D27*
%TO.P,TP20,1,1*%
%TO.N,1V35*%
X134972776Y-104153785D03*
%TD*%
D28*
%TO.P,L5,1,1*%
%TO.N,VIN*%
X185020000Y-132765000D03*
%TO.P,L5,2,2*%
%TO.N,/LBQ*%
X185020000Y-137865000D03*
%TD*%
D21*
%TO.P,U8,1,GND*%
%TO.N,GND*%
X155900000Y-157660000D03*
%TO.P,U8,2,SW*%
%TO.N,/L1v08*%
X155900000Y-157160000D03*
%TO.P,U8,3,VIN*%
%TO.N,VIN*%
X155900000Y-156660000D03*
%TO.P,U8,4,EN*%
%TO.N,EN*%
X154400000Y-156660000D03*
%TO.P,U8,5,FB*%
%TO.N,Net-(U8-FB)*%
X154400000Y-157160000D03*
%TO.P,U8,6,NC*%
%TO.N,unconnected-(U8-NC-Pad6)*%
X154400000Y-157660000D03*
%TD*%
D27*
%TO.P,TP5,1,1*%
%TO.N,GND*%
X178886523Y-123309192D03*
%TD*%
D29*
%TO.P,L6,1,1*%
%TO.N,/L1v*%
X142760000Y-125830000D03*
%TO.P,L6,2,2*%
%TO.N,1V*%
X140060000Y-125830000D03*
%TD*%
D24*
%TO.P,R16,1*%
%TO.N,1V08*%
X150685000Y-156070000D03*
%TO.P,R16,2*%
%TO.N,Net-(U8-FB)*%
X152335000Y-156070000D03*
%TD*%
D30*
%TO.P,C11,1*%
%TO.N,Net-(U5-REGN)*%
X180890000Y-141920000D03*
%TO.P,C11,2*%
%TO.N,GND*%
X179340000Y-141920000D03*
%TD*%
D16*
%TO.P,C14,1*%
%TO.N,GND*%
X153810000Y-154990000D03*
%TO.P,C14,2*%
%TO.N,VIN*%
X155710000Y-154990000D03*
%TD*%
D31*
%TO.P,L9,1,1*%
%TO.N,/Inductor3vIn*%
X187100000Y-113700000D03*
%TO.P,L9,2,2*%
%TO.N,3V*%
X187100000Y-111000000D03*
%TD*%
D11*
%TO.P,R12,1*%
%TO.N,SDA*%
X180450000Y-148105000D03*
%TO.P,R12,2*%
%TO.N,VIN*%
X180450000Y-149755000D03*
%TD*%
D15*
%TO.P,C15,1*%
%TO.N,GND*%
X181750000Y-128220000D03*
%TO.P,C15,2*%
%TO.N,VIN*%
X181750000Y-126320000D03*
%TD*%
D24*
%TO.P,R10,1*%
%TO.N,Net-(U5-TS)*%
X181270000Y-140365000D03*
%TO.P,R10,2*%
%TO.N,Net-(U5-REGN)*%
X182920000Y-140365000D03*
%TD*%
D10*
%TO.P,R21,1*%
%TO.N,Net-(U10-FB)*%
X186325000Y-118900000D03*
%TO.P,R21,2*%
%TO.N,GND*%
X184675000Y-118900000D03*
%TD*%
D11*
%TO.P,R25,1*%
%TO.N,Net-(U11-FB)*%
X146490000Y-145295000D03*
%TO.P,R25,2*%
%TO.N,GND*%
X146490000Y-146945000D03*
%TD*%
%TO.P,R27,1*%
%TO.N,PA1*%
X154310000Y-136870000D03*
%TO.P,R27,2*%
%TO.N,VIN*%
X154310000Y-138520000D03*
%TD*%
D32*
%TO.P,,1,1*%
%TO.N,GND*%
X171380000Y-156210000D03*
%TD*%
D27*
%TO.P,,1,1*%
%TO.N,1V35*%
X178900000Y-113700000D03*
%TD*%
D15*
%TO.P,C16,1*%
%TO.N,VIN*%
X144460000Y-123200000D03*
%TO.P,C16,2*%
%TO.N,GND*%
X144460000Y-121300000D03*
%TD*%
D19*
%TO.P,C26,1*%
%TO.N,GND*%
X178120000Y-153830000D03*
%TO.P,C26,2*%
%TO.N,VIN*%
X176220000Y-153830000D03*
%TD*%
D27*
%TO.P,TP40,1,1*%
%TO.N,1V*%
X140799999Y-128148344D03*
%TD*%
D20*
%TO.P,R24,1*%
%TO.N,5V*%
X148025000Y-146965000D03*
%TO.P,R24,2*%
%TO.N,Net-(U11-FB)*%
X148025000Y-145315000D03*
%TD*%
D33*
%TO.P,C500,1*%
%TO.N,1V35*%
X137788715Y-107193785D03*
%TO.P,C500,2*%
%TO.N,GND*%
X144013715Y-107193785D03*
%TD*%
D32*
%TO.P,TP30,1,1*%
%TO.N,1V08*%
X162116215Y-156358525D03*
%TD*%
D20*
%TO.P,R23,1*%
%TO.N,NeoPixelDIN*%
X180090000Y-152825000D03*
%TO.P,R23,2*%
%TO.N,PA7*%
X180090000Y-151175000D03*
%TD*%
D34*
%TO.P,TP10,1,1*%
%TO.N,3V*%
X181520000Y-104300000D03*
%TD*%
D26*
%TO.P,C7,1*%
%TO.N,Net-(U5-BTST)*%
X184330000Y-140470000D03*
%TO.P,C7,2*%
%TO.N,/LBQ*%
X185880000Y-140470000D03*
%TD*%
D35*
%TO.P,TP3,1,1*%
%TO.N,VIN*%
X150490000Y-152860000D03*
%TD*%
D20*
%TO.P,R26,1*%
%TO.N,Net-(U11-EN)*%
X145750000Y-143445000D03*
%TO.P,R26,2*%
%TO.N,EN*%
X145750000Y-141795000D03*
%TD*%
D35*
%TO.P,TP60,1,1*%
%TO.N,NeoPixelDIN*%
X180070000Y-154240000D03*
%TD*%
D16*
%TO.P,C24,1*%
%TO.N,5V*%
X143020000Y-145900000D03*
%TO.P,C24,2*%
%TO.N,GND*%
X144920000Y-145900000D03*
%TD*%
%TO.P,C12,1*%
%TO.N,Net-(C12-Pad1)*%
X185050000Y-148800000D03*
%TO.P,C12,2*%
%TO.N,GND*%
X186950000Y-148800000D03*
%TD*%
D12*
%TO.P,J2,1,Pin_1*%
%TO.N,GND*%
X138580000Y-149820000D03*
D13*
%TO.P,J2,2,Pin_2*%
%TO.N,5V*%
X141120000Y-149820000D03*
%TO.P,J2,3,Pin_3*%
%TO.N,TX*%
X143660000Y-149820000D03*
%TO.P,J2,4,Pin_4*%
%TO.N,RX*%
X146200000Y-149820000D03*
%TO.P,J2,5,Pin_5*%
%TO.N,BTN*%
X148740000Y-149820000D03*
%TD*%
D20*
%TO.P,R19,1*%
%TO.N,Net-(U9-FB)*%
X188000000Y-126850000D03*
%TO.P,R19,2*%
%TO.N,GND*%
X188000000Y-125200000D03*
%TD*%
D25*
%TO.P,GND,1,1*%
%TO.N,GND*%
X186490000Y-151800000D03*
%TD*%
D29*
%TO.P,L8,1,1*%
%TO.N,/L1v35*%
X187550000Y-122600000D03*
%TO.P,L8,2,2*%
%TO.N,1V35*%
X184850000Y-122600000D03*
%TD*%
%TO.P,L7,1,1*%
%TO.N,/L1v08*%
X157620000Y-156480000D03*
%TO.P,L7,2,2*%
%TO.N,1V08*%
X160320000Y-156480000D03*
%TD*%
D14*
%TO.P,C200,1*%
%TO.N,1V35*%
X134926215Y-105910809D03*
%TO.P,C200,2*%
%TO.N,GND*%
X134926215Y-107810809D03*
%TD*%
D25*
%TO.P,CHG,1,1*%
%TO.N,Net-(U5-VBUS)*%
X176540000Y-145090000D03*
%TD*%
D17*
%TO.P,U9,1,GND*%
%TO.N,GND*%
X186500000Y-125092500D03*
%TO.P,U9,2,SW*%
%TO.N,/L1v35*%
X186000000Y-125092500D03*
%TO.P,U9,3,VIN*%
%TO.N,VIN*%
X185500000Y-125092500D03*
%TO.P,U9,4,EN*%
%TO.N,EN*%
X185500000Y-126592500D03*
%TO.P,U9,5,FB*%
%TO.N,Net-(U9-FB)*%
X186000000Y-126592500D03*
%TO.P,U9,6,NC*%
%TO.N,unconnected-(U9-NC-Pad6)*%
X186500000Y-126592500D03*
%TD*%
D29*
%TO.P,L10,1,1*%
%TO.N,/L5v*%
X141160000Y-143050000D03*
%TO.P,L10,2,2*%
%TO.N,VIN*%
X138460000Y-143050000D03*
%TD*%
D20*
%TO.P,R15,1*%
%TO.N,Net-(U7-FB)*%
X142020000Y-117500000D03*
%TO.P,R15,2*%
%TO.N,GND*%
X142020000Y-115850000D03*
%TD*%
D15*
%TO.P,C22,1*%
%TO.N,1V35*%
X183450000Y-112650000D03*
%TO.P,C22,2*%
%TO.N,GND*%
X183450000Y-110750000D03*
%TD*%
D14*
%TO.P,C19,1*%
%TO.N,VIN*%
X185050000Y-115450000D03*
%TO.P,C19,2*%
%TO.N,GND*%
X185050000Y-117350000D03*
%TD*%
D24*
%TO.P,R1,1*%
%TO.N,GND*%
X181955000Y-147910000D03*
%TO.P,R1,2*%
%TO.N,Net-(U5-ILIM)*%
X183605000Y-147910000D03*
%TD*%
%TO.P,R13,1*%
%TO.N,VIN*%
X178790000Y-146480000D03*
%TO.P,R13,2*%
%TO.N,SCL*%
X180440000Y-146480000D03*
%TD*%
D27*
%TO.P,TP7,1,1*%
%TO.N,GND*%
X140799999Y-137800000D03*
%TD*%
D36*
%TO.P,U6,1,PA2*%
%TO.N,EN*%
X176270000Y-152140000D03*
D37*
%TO.P,U6,2,PA3*%
%TO.N,PA3*%
X176670000Y-152140000D03*
%TO.P,U6,3,GND*%
%TO.N,GND*%
X177070000Y-152140000D03*
%TO.P,U6,4,VCC*%
%TO.N,VIN*%
X177470000Y-152140000D03*
D38*
%TO.P,U6,5,PA4*%
%TO.N,PA4*%
X177870000Y-152140000D03*
D39*
%TO.P,U6,6,PA5*%
%TO.N,BTN*%
X178520000Y-151490000D03*
D40*
%TO.P,U6,7,PA6*%
%TO.N,PA6*%
X178520000Y-151090000D03*
%TO.P,U6,8,PA7*%
%TO.N,PA7*%
X178520000Y-150690000D03*
%TO.P,U6,9,PB5*%
%TO.N,unconnected-(U6-PB5-Pad9)*%
X178520000Y-150290000D03*
D41*
%TO.P,U6,10,PB4*%
%TO.N,unconnected-(U6-PB4-Pad10)*%
X178520000Y-149890000D03*
D42*
%TO.P,U6,11,PB3*%
%TO.N,RX*%
X177870000Y-149240000D03*
D37*
%TO.P,U6,12,PB2*%
%TO.N,TX*%
X177470000Y-149240000D03*
%TO.P,U6,13,PB1*%
%TO.N,SDA*%
X177070000Y-149240000D03*
%TO.P,U6,14,PB0*%
%TO.N,SCL*%
X176670000Y-149240000D03*
D43*
%TO.P,U6,15,PC0*%
%TO.N,unconnected-(U6-PC0-Pad15)*%
X176270000Y-149240000D03*
D44*
%TO.P,U6,16,PC1*%
%TO.N,unconnected-(U6-PC1-Pad16)*%
X175620000Y-149890000D03*
D40*
%TO.P,U6,17,PC2*%
%TO.N,unconnected-(U6-PC2-Pad17)*%
X175620000Y-150290000D03*
%TO.P,U6,18,PC3*%
%TO.N,unconnected-(U6-PC3-Pad18)*%
X175620000Y-150690000D03*
%TO.P,U6,19,~{RESET}/PA0*%
%TO.N,UPDI*%
X175620000Y-151090000D03*
D45*
%TO.P,U6,20,PA1*%
%TO.N,PA1*%
X175620000Y-151490000D03*
D46*
%TO.P,U6,21,GND*%
%TO.N,GND*%
X177070000Y-150690000D03*
%TD*%
D14*
%TO.P,C20,1*%
%TO.N,1V*%
X138020000Y-124770000D03*
%TO.P,C20,2*%
%TO.N,GND*%
X138020000Y-126670000D03*
%TD*%
D24*
%TO.P,R22,1*%
%TO.N,1V35*%
X186350000Y-128300000D03*
%TO.P,R22,2*%
%TO.N,Net-(U9-FB)*%
X188000000Y-128300000D03*
%TD*%
D47*
%TO.P,U5,1,VBUS*%
%TO.N,Net-(U5-VBUS)*%
X182275000Y-143090000D03*
%TO.P,U5,2,D+*%
%TO.N,unconnected-(U5-D+-Pad2)*%
X182275000Y-143590000D03*
%TO.P,U5,3,D-*%
%TO.N,unconnected-(U5-D--Pad3)*%
X182275000Y-144090000D03*
%TO.P,U5,4,STAT*%
%TO.N,unconnected-(U5-STAT-Pad4)*%
X182275000Y-144590000D03*
%TO.P,U5,5,SCL*%
%TO.N,SCL*%
X182275000Y-145090000D03*
%TO.P,U5,6,SDA*%
%TO.N,SDA*%
X182275000Y-145590000D03*
D48*
%TO.P,U5,7,INT*%
%TO.N,unconnected-(U5-INT-Pad7)*%
X183000000Y-146315000D03*
%TO.P,U5,8,OTG*%
%TO.N,GND*%
X183500000Y-146315000D03*
%TO.P,U5,9,~{CE}*%
X184000000Y-146315000D03*
%TO.P,U5,10,ILIM*%
%TO.N,Net-(U5-ILIM)*%
X184500000Y-146315000D03*
%TO.P,U5,11,TS*%
%TO.N,Net-(U5-TS)*%
X185000000Y-146315000D03*
%TO.P,U5,12,~{QON}*%
%TO.N,unconnected-(U5-~{QON}-Pad12)*%
X185500000Y-146315000D03*
D49*
%TO.P,U5,13,BAT*%
%TO.N,Net-(C12-Pad1)*%
X186225000Y-145590000D03*
%TO.P,U5,14,BAT*%
X186225000Y-145090000D03*
%TO.P,U5,15,SYS*%
%TO.N,VIN*%
X186225000Y-144590000D03*
%TO.P,U5,16,SYS*%
X186225000Y-144090000D03*
%TO.P,U5,17,PGND*%
%TO.N,GND*%
X186225000Y-143590000D03*
%TO.P,U5,18,PGND*%
X186225000Y-143090000D03*
D50*
%TO.P,U5,19,SW*%
%TO.N,/LBQ*%
X185500000Y-142365000D03*
%TO.P,U5,20,SW*%
X185000000Y-142365000D03*
%TO.P,U5,21,BTST*%
%TO.N,Net-(U5-BTST)*%
X184500000Y-142365000D03*
%TO.P,U5,22,REGN*%
%TO.N,Net-(U5-REGN)*%
X184000000Y-142365000D03*
%TO.P,U5,23,PMID*%
%TO.N,unconnected-(U5-PMID-Pad23)*%
X183500000Y-142365000D03*
%TO.P,U5,24,DSEL*%
%TO.N,unconnected-(U5-DSEL-Pad24)*%
X183000000Y-142365000D03*
D51*
%TO.P,U5,25,PGND*%
%TO.N,GND*%
X183150000Y-143240000D03*
X183150000Y-144340000D03*
X183150000Y-145440000D03*
X184250000Y-143240000D03*
X184250000Y-144340000D03*
D52*
X184250000Y-144340000D03*
D51*
X184250000Y-145440000D03*
X185350000Y-143240000D03*
X185350000Y-144340000D03*
X185350000Y-145440000D03*
%TD*%
D53*
%TO.N,GND*%
X144810000Y-136840000D03*
D54*
X145650000Y-147210000D03*
D53*
X187060000Y-129460000D03*
X184800000Y-110900000D03*
X184800000Y-110300000D03*
X187600000Y-105500000D03*
X144850000Y-135930000D03*
X172160000Y-149690000D03*
D55*
X156970000Y-157690000D03*
D53*
X175800000Y-126960000D03*
D55*
X158590000Y-153290000D03*
D53*
X142130000Y-138870000D03*
X142500000Y-142230000D03*
D55*
X137990000Y-127620000D03*
D53*
X187600000Y-106200000D03*
X142920000Y-138880000D03*
X188500000Y-115400000D03*
X175510000Y-125340000D03*
X171520000Y-153250000D03*
X143850000Y-135910000D03*
X183810000Y-127960000D03*
X185040000Y-118120000D03*
X178670000Y-137170000D03*
D55*
X144510000Y-118350000D03*
X158590000Y-152870000D03*
X158800000Y-157680000D03*
D53*
X183830000Y-128600000D03*
X185500000Y-110300000D03*
X145150000Y-138860000D03*
D55*
X138000000Y-128190000D03*
D53*
X188000000Y-125900000D03*
X176900000Y-123870000D03*
X159301473Y-135520000D03*
X180270000Y-137230000D03*
X151860863Y-154672594D03*
X176670000Y-127000000D03*
X144940000Y-145900000D03*
D55*
X143530000Y-118360000D03*
X158330000Y-157700000D03*
X145030000Y-118890000D03*
D53*
X143820000Y-139020000D03*
X179440000Y-137250000D03*
X177090000Y-150690000D03*
X187100000Y-125100000D03*
D55*
X157890000Y-157690000D03*
D53*
X173230000Y-149700000D03*
D54*
X144960000Y-147170000D03*
D55*
X158560000Y-152450000D03*
D53*
X185500000Y-110900000D03*
X181130000Y-137230000D03*
D55*
X144060000Y-118930000D03*
D53*
X141790000Y-141590000D03*
X175760000Y-123850000D03*
D55*
X141520000Y-125330000D03*
D53*
X152600000Y-154730000D03*
X141400000Y-138920000D03*
X143900000Y-136840000D03*
X151011724Y-154550000D03*
X172380000Y-153250000D03*
X187100000Y-125800000D03*
X186900000Y-106200000D03*
X186730000Y-150170000D03*
X181800000Y-138040000D03*
X187400000Y-150170000D03*
D55*
X141480000Y-124420000D03*
D53*
X187100000Y-130700000D03*
X173551421Y-138188579D03*
X188100000Y-116000000D03*
D55*
X144070000Y-119430000D03*
D53*
X172930000Y-155990000D03*
X184350000Y-118110000D03*
D55*
X138560000Y-128190000D03*
X144520000Y-118910000D03*
D53*
X144600000Y-138320000D03*
X172930000Y-156660000D03*
X140670000Y-138960000D03*
X187080000Y-130080000D03*
X143860000Y-138330000D03*
X143210000Y-141580000D03*
D55*
X145010000Y-118350000D03*
D53*
X186040000Y-150220000D03*
D55*
X143540000Y-118940000D03*
X138600000Y-127630000D03*
D53*
X186900000Y-105500000D03*
X139920000Y-138950000D03*
D56*
X178120000Y-153830000D03*
D53*
X138810000Y-138230000D03*
X143180000Y-142260000D03*
D55*
X144520000Y-119400000D03*
D53*
X144490000Y-138990000D03*
D55*
X145010000Y-119400000D03*
D53*
X139160000Y-138950000D03*
D55*
X158590000Y-153740000D03*
X137420000Y-127630000D03*
X141490000Y-124890000D03*
D53*
X184800000Y-111500000D03*
X176920000Y-156810000D03*
D55*
X157430000Y-157690000D03*
D53*
X146490000Y-146960000D03*
D55*
X144030000Y-118350000D03*
X143560000Y-119420000D03*
D53*
X142440000Y-141550000D03*
D55*
X140970000Y-124610000D03*
D53*
X183800000Y-127220000D03*
%TO.N,VIN*%
X179615000Y-146480000D03*
X180450000Y-148930000D03*
X172680000Y-147140000D03*
X175830000Y-155080000D03*
%TO.N,1V35*%
X181530000Y-113430000D03*
X184800000Y-121780000D03*
X185491282Y-128388874D03*
X178240000Y-112720000D03*
X184850000Y-122600000D03*
X177470000Y-112740000D03*
X184210000Y-121320000D03*
X182150000Y-112770000D03*
X178980000Y-112700000D03*
%TO.N,3V*%
X187800000Y-119900000D03*
X187100000Y-112100000D03*
D55*
%TO.N,1V*%
X141865000Y-119648946D03*
X137990000Y-124640000D03*
%TO.N,1V08*%
X151500000Y-156080000D03*
X160250000Y-157680000D03*
D53*
%TO.N,Net-(D1-K)*%
X172730000Y-144560000D03*
X174460000Y-150440000D03*
%TO.N,Net-(U5-TS)*%
X185100000Y-147180000D03*
X180630000Y-140380000D03*
%TO.N,SDA*%
X180500000Y-148040000D03*
%TO.N,SCL*%
X180500000Y-146470000D03*
%TO.N,EN*%
X185240000Y-127520000D03*
X174965000Y-141110000D03*
X186400000Y-120200000D03*
X149977333Y-154735861D03*
X177720000Y-141110000D03*
X153430000Y-156470000D03*
X185220000Y-123960000D03*
X148740000Y-137960000D03*
X186600000Y-117800000D03*
X175160000Y-154000000D03*
X150450000Y-139020000D03*
X147530000Y-142090000D03*
D55*
X144330000Y-122300000D03*
D53*
%TO.N,RX*%
X178640000Y-149130000D03*
X147420000Y-142950000D03*
%TO.N,TX*%
X146730000Y-144300000D03*
X179470000Y-148950000D03*
%TO.N,PA1*%
X175510000Y-152052796D03*
X155260000Y-135840000D03*
%TO.N,BTN*%
X148730000Y-149820000D03*
X179170000Y-151650000D03*
%TO.N,PA4*%
X179470000Y-156810000D03*
X178640000Y-152260000D03*
%TD*%
D57*
%TO.N,EN*%
X176830000Y-140040000D02*
X176830000Y-140220000D01*
X176830000Y-140220000D02*
X177720000Y-141110000D01*
%TO.N,GND*%
X185770000Y-143590000D02*
X185700000Y-143590000D01*
X179315000Y-152412352D02*
X179852352Y-151875000D01*
D58*
X145615000Y-147245000D02*
X145650000Y-147210000D01*
D57*
X186225000Y-143590000D02*
X186405000Y-143410000D01*
X187060000Y-129460000D02*
X187160000Y-129560000D01*
X173551421Y-138188579D02*
X174147842Y-138785000D01*
X185790000Y-143380000D02*
X185770000Y-143380000D01*
X186005000Y-143370000D02*
X186165000Y-143370000D01*
X181955000Y-149725000D02*
X181955000Y-147910000D01*
X185700000Y-143590000D02*
X185350000Y-143240000D01*
X177070000Y-152140000D02*
X177090000Y-150690000D01*
X186225000Y-143590000D02*
X186402500Y-143412500D01*
D59*
X183800000Y-127970000D02*
X183810000Y-127960000D01*
D57*
X186225000Y-143590000D02*
X185770000Y-143590000D01*
X149985000Y-156610000D02*
X151015000Y-157640000D01*
D60*
X177990000Y-124767500D02*
X177526215Y-125231285D01*
D57*
X179852352Y-151875000D02*
X180577648Y-151875000D01*
D59*
X183800000Y-127220000D02*
X183800000Y-127100000D01*
D57*
X146475000Y-146960000D02*
X146490000Y-146960000D01*
D58*
X139920000Y-142860000D02*
X139920000Y-142340000D01*
X140670000Y-141590000D02*
X141790000Y-141590000D01*
D57*
X187160000Y-129560000D02*
X187200000Y-129560000D01*
X144920000Y-145900000D02*
X144920000Y-145900000D01*
X186225000Y-143590000D02*
X186005000Y-143370000D01*
X186005000Y-143370000D02*
X185650000Y-143370000D01*
X151011724Y-154550000D02*
X149985000Y-155576724D01*
X159040000Y-135790000D02*
X159040000Y-135781473D01*
X185640000Y-143240000D02*
X185650000Y-143250000D01*
D59*
X183800000Y-128370000D02*
X183830000Y-128400000D01*
D58*
X139920000Y-145470000D02*
X139920000Y-142860000D01*
D57*
X151011724Y-154550000D02*
X151141724Y-154680000D01*
D58*
X144940000Y-147120000D02*
X144960000Y-147140000D01*
D57*
X149985000Y-155576724D02*
X149985000Y-156610000D01*
X146490000Y-146945000D02*
X146490000Y-146945000D01*
D59*
X183800000Y-127950000D02*
X183800000Y-127220000D01*
D57*
X177090000Y-150690000D02*
X177070000Y-150690000D01*
D60*
X178886523Y-123309192D02*
X178590808Y-123309192D01*
D58*
X139920000Y-142340000D02*
X140670000Y-141590000D01*
X139520000Y-145870000D02*
X139920000Y-145470000D01*
D57*
X185350000Y-143820000D02*
X185790000Y-143380000D01*
D58*
X145650000Y-147210000D02*
X145685000Y-147245000D01*
D57*
X144940000Y-145900000D02*
X144920000Y-145900000D01*
X186065000Y-143250000D02*
X185770000Y-143250000D01*
X186225000Y-143090000D02*
X186402500Y-143267500D01*
X186165000Y-143370000D02*
X186225000Y-143310000D01*
X186405000Y-143410000D02*
X186580000Y-143410000D01*
D59*
X184030000Y-128600000D02*
X183830000Y-128400000D01*
X183830000Y-128400000D02*
X183830000Y-128600000D01*
D57*
X186225000Y-143310000D02*
X186225000Y-143090000D01*
X179315000Y-152635000D02*
X179315000Y-152412352D01*
D60*
X178130000Y-124720000D02*
X177990000Y-124767500D01*
D57*
X185350000Y-143240000D02*
X185640000Y-143240000D01*
X180865000Y-150815000D02*
X181955000Y-149725000D01*
X159040000Y-135781473D02*
X159301473Y-135520000D01*
D59*
X183800000Y-128370000D02*
X183800000Y-127970000D01*
D57*
X151677406Y-154672594D02*
X151670000Y-154680000D01*
X146190000Y-147245000D02*
X146475000Y-146960000D01*
X146490000Y-146960000D02*
X146490000Y-146945000D01*
X184675000Y-117725000D02*
X185050000Y-117350000D01*
X159301473Y-135520000D02*
X158981473Y-135840000D01*
X186225000Y-143090000D02*
X186065000Y-143250000D01*
X186402500Y-143267500D02*
X186402500Y-143412500D01*
X151015000Y-157640000D02*
X151415000Y-157640000D01*
X186402500Y-143412500D02*
X186565000Y-143250000D01*
D58*
X144960000Y-147170000D02*
X144990000Y-147170000D01*
X144960000Y-147140000D02*
X144960000Y-147170000D01*
D59*
X183810000Y-127960000D02*
X183800000Y-127950000D01*
D57*
X185500000Y-143090000D02*
X184250000Y-144340000D01*
X186015000Y-143380000D02*
X185790000Y-143380000D01*
D59*
X183830000Y-128600000D02*
X184030000Y-128600000D01*
D57*
X151141724Y-154680000D02*
X151853457Y-154680000D01*
X180577648Y-151875000D02*
X180865000Y-151587648D01*
X180865000Y-151587648D02*
X180865000Y-150815000D01*
X174147842Y-138785000D02*
X180360000Y-138785000D01*
X186225000Y-143090000D02*
X185500000Y-143090000D01*
X187220000Y-130580000D02*
X187250000Y-130580000D01*
X159301473Y-135520000D02*
X159090000Y-135520000D01*
X151853457Y-154680000D02*
X151860863Y-154672594D01*
X178120000Y-153830000D02*
X179315000Y-152635000D01*
X187100000Y-130700000D02*
X187220000Y-130580000D01*
X185350000Y-144340000D02*
X185350000Y-143820000D01*
X186565000Y-143250000D02*
X186570000Y-143250000D01*
X159090000Y-135520000D02*
X158980000Y-135630000D01*
X151860863Y-154672594D02*
X151677406Y-154672594D01*
D61*
%TO.N,VIN*%
X175830000Y-155040000D02*
X175830000Y-155080000D01*
X176220000Y-153830000D02*
X176265000Y-153830000D01*
X176220000Y-154650000D02*
X175830000Y-155040000D01*
D57*
X152700000Y-136910000D02*
X152700000Y-136160000D01*
X180450000Y-149755000D02*
X180450000Y-148930000D01*
D61*
X175830000Y-155080000D02*
X175790000Y-155080000D01*
X176265000Y-153830000D02*
X177470000Y-152625000D01*
D57*
X154310000Y-138520000D02*
X152700000Y-136910000D01*
D61*
X177470000Y-152625000D02*
X177470000Y-152140000D01*
X176220000Y-153830000D02*
X176220000Y-154650000D01*
D57*
X178790000Y-146480000D02*
X179615000Y-146480000D01*
%TO.N,1V35*%
X186350000Y-128300000D02*
X185580156Y-128300000D01*
X185580156Y-128300000D02*
X185790000Y-128300000D01*
X185491282Y-128388874D02*
X185580156Y-128300000D01*
D62*
%TO.N,3V*%
X177534692Y-126486500D02*
X178493534Y-126486500D01*
D63*
X181880000Y-123310000D02*
X182250000Y-122940000D01*
D62*
X184920000Y-113790000D02*
X186610000Y-112100000D01*
X186610000Y-112100000D02*
X187100000Y-112100000D01*
D63*
X182250000Y-114230000D02*
X182360000Y-114120000D01*
D62*
X177526215Y-131456285D02*
X177526215Y-126494977D01*
X187100000Y-111600000D02*
X187100000Y-111000000D01*
X182360000Y-114120000D02*
X182690000Y-113790000D01*
X186920000Y-112100000D02*
X187260000Y-111760000D01*
X177526215Y-126494977D02*
X177534692Y-126486500D01*
X180926808Y-124263192D02*
X181880000Y-123310000D01*
X186610000Y-112100000D02*
X186920000Y-112100000D01*
X178899000Y-126081034D02*
X178899000Y-125122192D01*
X187260000Y-111760000D02*
X187100000Y-111600000D01*
X178899000Y-125122192D02*
X179758000Y-124263192D01*
D63*
X182250000Y-122940000D02*
X182250000Y-114230000D01*
D62*
X182690000Y-113790000D02*
X184920000Y-113790000D01*
D57*
X187100000Y-112100000D02*
X187100000Y-111000000D01*
D62*
X179758000Y-124263192D02*
X180926808Y-124263192D01*
X178493534Y-126486500D02*
X178899000Y-126081034D01*
D57*
%TO.N,1V*%
X142140000Y-119373946D02*
X142140000Y-118885000D01*
X141865000Y-119648946D02*
X142140000Y-119373946D01*
X141865000Y-119648946D02*
X141866054Y-119650000D01*
%TO.N,1V08*%
X151500000Y-156080000D02*
X151500000Y-156100000D01*
X151480000Y-156080000D02*
X151500000Y-156080000D01*
X150685000Y-156070000D02*
X151470000Y-156070000D01*
X151500000Y-156100000D02*
X151510000Y-156110000D01*
X151470000Y-156070000D02*
X151480000Y-156080000D01*
%TO.N,5V*%
X146940000Y-148050000D02*
X143900000Y-148050000D01*
X148025000Y-146965000D02*
X146940000Y-148050000D01*
X143010000Y-147160000D02*
X143020000Y-147150000D01*
X143020000Y-147150000D02*
X143020000Y-145900000D01*
X143900000Y-148050000D02*
X143010000Y-147160000D01*
D61*
%TO.N,Net-(D1-A)*%
X171450000Y-143280000D02*
X172700000Y-142030000D01*
X174252500Y-154922500D02*
X173970000Y-154640000D01*
X171930000Y-151130000D02*
X171450000Y-150650000D01*
X173470000Y-154050000D02*
X173470000Y-151130000D01*
X173970000Y-154550000D02*
X173470000Y-154050000D01*
X171450000Y-150650000D02*
X171450000Y-143280000D01*
X174252500Y-155927500D02*
X174252500Y-154922500D01*
X173970000Y-154640000D02*
X173970000Y-154550000D01*
X173470000Y-151130000D02*
X171930000Y-151130000D01*
D57*
%TO.N,Net-(D1-K)*%
X174460000Y-150440000D02*
X174480000Y-150440000D01*
X173970000Y-150950000D02*
X174460000Y-150460000D01*
X174480000Y-150440000D02*
X174480000Y-150440000D01*
X173970000Y-152540000D02*
X173970000Y-150950000D01*
X174460000Y-150460000D02*
X174460000Y-150440000D01*
%TO.N,NeoPixelDIN*%
X180090000Y-154220000D02*
X180070000Y-154240000D01*
X180090000Y-152825000D02*
X180090000Y-154220000D01*
%TO.N,Net-(U5-ILIM)*%
X184500000Y-146315000D02*
X184500000Y-147565000D01*
X184325000Y-147740000D02*
X183580000Y-147740000D01*
X184500000Y-147565000D02*
X184325000Y-147740000D01*
D62*
%TO.N,Net-(U5-TS)*%
X180420000Y-140375000D02*
X180360000Y-140435000D01*
D57*
X185000000Y-147080000D02*
X185100000Y-147180000D01*
X185000000Y-146315000D02*
X185000000Y-147080000D01*
D62*
X181110000Y-140390000D02*
X181095000Y-140375000D01*
X181270000Y-140365000D02*
X180645000Y-140365000D01*
X181125000Y-140375000D02*
X181110000Y-140390000D01*
X180615000Y-140365000D02*
X179940000Y-140365000D01*
D57*
%TO.N,SDA*%
X177235000Y-148105000D02*
X180450000Y-148105000D01*
X182275000Y-145880000D02*
X182275000Y-145590000D01*
X180450000Y-148105000D02*
X180450000Y-148090000D01*
X177070000Y-149240000D02*
X177070000Y-148270000D01*
X180500000Y-148040000D02*
X180450000Y-147990000D01*
X177070000Y-148270000D02*
X177235000Y-148105000D01*
X180450000Y-148090000D02*
X180500000Y-148040000D01*
X180450000Y-147705000D02*
X182275000Y-145880000D01*
X180450000Y-147990000D02*
X180450000Y-147705000D01*
D61*
%TO.N,SCL*%
X180500000Y-146470000D02*
X180500000Y-146389670D01*
X180500000Y-146389670D02*
X181799670Y-145090000D01*
X181799670Y-145090000D02*
X182275000Y-145090000D01*
X179190000Y-147730000D02*
X176970000Y-147730000D01*
X180440000Y-146480000D02*
X179190000Y-147730000D01*
X180440000Y-146480000D02*
X180440000Y-146449670D01*
X176970000Y-147730000D02*
X176670000Y-148030000D01*
X180419670Y-146470000D02*
X180500000Y-146470000D01*
X176670000Y-148030000D02*
X176670000Y-149240000D01*
X180440000Y-146449670D02*
X180419670Y-146470000D01*
D57*
%TO.N,Net-(U7-FB)*%
X142020000Y-120545000D02*
X141365000Y-119890000D01*
X141365000Y-119890000D02*
X141365000Y-118155000D01*
X141365000Y-118155000D02*
X142020000Y-117500000D01*
X142310000Y-120905000D02*
X141940000Y-120535000D01*
X142310000Y-121860000D02*
X142310000Y-120905000D01*
%TO.N,Net-(U8-FB)*%
X152335000Y-156910000D02*
X153065000Y-157640000D01*
X152335000Y-156070000D02*
X152335000Y-156910000D01*
X154400000Y-157160000D02*
X153545000Y-157160000D01*
X153545000Y-157160000D02*
X153065000Y-157640000D01*
%TO.N,Net-(U10-FB)*%
X186325000Y-118900000D02*
X187175000Y-118900000D01*
X187200000Y-117675000D02*
X187800000Y-118275000D01*
X187200000Y-116950000D02*
X187200000Y-117675000D01*
X187175000Y-118900000D02*
X187800000Y-118275000D01*
%TO.N,Net-(U9-FB)*%
X188000000Y-128300000D02*
X188000000Y-127400000D01*
X186000000Y-126592500D02*
X186000000Y-126989328D01*
X186410672Y-127400000D02*
X188000000Y-127400000D01*
X186000000Y-126989328D02*
X186410672Y-127400000D01*
X188000000Y-127400000D02*
X188000000Y-126850000D01*
D61*
%TO.N,UPDI*%
X175146776Y-151090000D02*
X174585000Y-151651776D01*
X174585000Y-154805000D02*
X175002500Y-155222500D01*
X175002500Y-155222500D02*
X175002500Y-156827500D01*
X175002500Y-156827500D02*
X174252500Y-157577500D01*
X175620000Y-151090000D02*
X175146776Y-151090000D01*
X174585000Y-151651776D02*
X174585000Y-154805000D01*
D57*
%TO.N,PA7*%
X180090000Y-151175000D02*
X179605000Y-150690000D01*
X178520000Y-150690000D02*
X179016360Y-150690000D01*
X179605000Y-150690000D02*
X178520000Y-150690000D01*
%TO.N,Net-(U11-FB)*%
X146510000Y-145315000D02*
X146490000Y-145295000D01*
X145430000Y-144235000D02*
X146490000Y-145295000D01*
X148025000Y-145315000D02*
X146510000Y-145315000D01*
X144350000Y-144235000D02*
X145430000Y-144235000D01*
%TO.N,EN*%
X184200000Y-120200000D02*
X183610000Y-120790000D01*
X148570000Y-142090000D02*
X147530000Y-142090000D01*
X184270000Y-123970000D02*
X185180000Y-123970000D01*
X149890000Y-143410000D02*
X148570000Y-142090000D01*
X149977333Y-153478704D02*
X149690000Y-153191371D01*
X185500000Y-126592500D02*
X185500000Y-127260000D01*
X185200000Y-123970000D02*
X185190000Y-123970000D01*
X186700000Y-117700000D02*
X186600000Y-117800000D01*
X154400000Y-156660000D02*
X153650000Y-156660000D01*
X186700000Y-116950000D02*
X186700000Y-117700000D01*
X183610000Y-123310000D02*
X184270000Y-123970000D01*
X183610000Y-120790000D02*
X183610000Y-123310000D01*
X150560000Y-151658629D02*
X150560000Y-148200000D01*
X143250000Y-122300000D02*
X142810000Y-121860000D01*
X153430000Y-156440000D02*
X153465000Y-156475000D01*
X146045000Y-142090000D02*
X145750000Y-141795000D01*
X147530000Y-142090000D02*
X146045000Y-142090000D01*
X149977333Y-154735861D02*
X149977333Y-153478704D01*
X185220000Y-123960000D02*
X185200000Y-123970000D01*
X186400000Y-120200000D02*
X184200000Y-120200000D01*
X175310000Y-153850000D02*
X175310000Y-153100000D01*
X150560000Y-148200000D02*
X149890000Y-147530000D01*
X153650000Y-156660000D02*
X153460000Y-156470000D01*
X175310000Y-153100000D02*
X176270000Y-152140000D01*
X185180000Y-123970000D02*
X185220000Y-123960000D01*
X149890000Y-147530000D02*
X149890000Y-143410000D01*
X149690000Y-153191371D02*
X149690000Y-152528629D01*
X174965000Y-141110000D02*
X177720000Y-141110000D01*
X153460000Y-156470000D02*
X153430000Y-156470000D01*
X175160000Y-154000000D02*
X175310000Y-153850000D01*
X185500000Y-127260000D02*
X185240000Y-127520000D01*
X149690000Y-152528629D02*
X150560000Y-151658629D01*
X149800000Y-139020000D02*
X148740000Y-137960000D01*
X150450000Y-139020000D02*
X149800000Y-139020000D01*
X153430000Y-156470000D02*
X153430000Y-156440000D01*
X144330000Y-122300000D02*
X143250000Y-122300000D01*
%TO.N,Net-(U11-EN)*%
X145750000Y-143445000D02*
X145460000Y-143735000D01*
X145460000Y-143735000D02*
X144350000Y-143735000D01*
D61*
%TO.N,RX*%
X177870000Y-149240000D02*
X177990000Y-149120000D01*
X178640000Y-149130000D02*
X178650000Y-149120000D01*
X177990000Y-149120000D02*
X178640000Y-149130000D01*
D57*
X147350000Y-150970000D02*
X149330000Y-150970000D01*
X148560000Y-142950000D02*
X147420000Y-142950000D01*
X150160000Y-148980000D02*
X149490000Y-148310000D01*
X150160000Y-150140000D02*
X150160000Y-148980000D01*
X147420000Y-142950000D02*
X147430000Y-142950000D01*
X146200000Y-149820000D02*
X147350000Y-150970000D01*
X149330000Y-150970000D02*
X150160000Y-150140000D01*
X149490000Y-148310000D02*
X149490000Y-143880000D01*
X149490000Y-143880000D02*
X148560000Y-142950000D01*
D61*
%TO.N,TX*%
X179470000Y-148740000D02*
X179470000Y-148950000D01*
X146730000Y-144030000D02*
X146990000Y-143770000D01*
X179470000Y-148950000D02*
X179470000Y-148920000D01*
D57*
X148800000Y-144830000D02*
X147740000Y-143770000D01*
X147570000Y-148670000D02*
X148800000Y-147440000D01*
X143660000Y-149820000D02*
X144810000Y-148670000D01*
D61*
X177470000Y-149240000D02*
X177470000Y-148750000D01*
X177740000Y-148480000D02*
X179050000Y-148480000D01*
X146730000Y-144300000D02*
X146730000Y-144030000D01*
X179210000Y-148480000D02*
X179460000Y-148730000D01*
X179460000Y-148730000D02*
X179470000Y-148740000D01*
X177470000Y-148750000D02*
X177740000Y-148480000D01*
D57*
X144810000Y-148670000D02*
X147570000Y-148670000D01*
X147740000Y-143770000D02*
X146990000Y-143770000D01*
D61*
X179050000Y-148480000D02*
X179210000Y-148480000D01*
D57*
X148800000Y-147440000D02*
X148800000Y-144830000D01*
%TO.N,PA1*%
X155260000Y-135840000D02*
X155260000Y-135920000D01*
X175510000Y-152052796D02*
X175509108Y-152053688D01*
X155740000Y-135840000D02*
X155790000Y-135790000D01*
X155260000Y-135840000D02*
X155740000Y-135840000D01*
X155260000Y-135920000D02*
X154310000Y-136870000D01*
X175509108Y-152053688D02*
X175509108Y-152220892D01*
X175537204Y-152052796D02*
X175620000Y-151970000D01*
X175620000Y-151970000D02*
X175620000Y-151490000D01*
X155790000Y-135790000D02*
X157390000Y-135790000D01*
X175510000Y-152052796D02*
X175537204Y-152052796D01*
%TO.N,BTN*%
X148740000Y-149820000D02*
X148740000Y-149820000D01*
X179150000Y-151650000D02*
X179170000Y-151650000D01*
X148740000Y-149820000D02*
X148730000Y-149820000D01*
X179170000Y-151670000D02*
X179280000Y-151780000D01*
X179170000Y-151650000D02*
X179170000Y-151670000D01*
X178520000Y-151490000D02*
X178990000Y-151490000D01*
X148730000Y-149820000D02*
X148730000Y-149830000D01*
X178990000Y-151490000D02*
X179150000Y-151650000D01*
X148730000Y-149830000D02*
X148800000Y-149760000D01*
%TO.N,PA4*%
X177870000Y-152140000D02*
X178010000Y-152280000D01*
X178010000Y-152280000D02*
X178640000Y-152260000D01*
X178640000Y-152260000D02*
X178660000Y-152280000D01*
%TD*%
%TA.AperFunction,Conductor*%
%TO.N,VIN*%
G36*
X152500000Y-136660000D02*
G01*
X154696863Y-138183158D01*
X154740739Y-138237532D01*
X154750208Y-138284661D01*
X154794877Y-152168366D01*
X154794878Y-152168368D01*
X154800000Y-153760000D01*
X150610000Y-153730000D01*
X150516037Y-152161352D01*
X150525139Y-152151706D01*
X150533100Y-152117043D01*
X150553548Y-152090051D01*
X150800460Y-151843140D01*
X150840021Y-151774618D01*
X150860500Y-151698191D01*
X150860500Y-148160438D01*
X150840021Y-148084011D01*
X150840017Y-148084004D01*
X150800464Y-148015495D01*
X150800458Y-148015487D01*
X150226819Y-147441848D01*
X150193334Y-147380525D01*
X150190500Y-147354167D01*
X150190500Y-143370439D01*
X150188909Y-143364500D01*
X150170021Y-143294011D01*
X150144900Y-143250500D01*
X150130464Y-143225495D01*
X150130458Y-143225487D01*
X148754512Y-141849541D01*
X148754507Y-141849537D01*
X148728567Y-141834561D01*
X148728567Y-141834560D01*
X148728565Y-141834560D01*
X148685994Y-141809981D01*
X148685993Y-141809980D01*
X148676960Y-141807559D01*
X148609562Y-141789500D01*
X148609560Y-141789500D01*
X147988501Y-141789500D01*
X147921462Y-141769815D01*
X147894789Y-141746704D01*
X147863769Y-141710905D01*
X147840355Y-141670410D01*
X147590000Y-140950000D01*
X147589999Y-140950000D01*
X144734908Y-141003723D01*
X144734908Y-141003724D01*
X143870000Y-141020000D01*
X143850024Y-139671685D01*
X143850021Y-139668311D01*
X143850581Y-139623912D01*
X143871109Y-139557128D01*
X143924486Y-139512043D01*
X143939625Y-139506504D01*
X144030053Y-139479953D01*
X144058075Y-139461943D01*
X144124519Y-139442258D01*
X144234370Y-139441730D01*
X144270816Y-139449568D01*
X144271437Y-139447454D01*
X144279946Y-139449952D01*
X144279947Y-139449953D01*
X144320785Y-139461944D01*
X144418038Y-139490500D01*
X144418039Y-139490500D01*
X144561961Y-139490500D01*
X144700053Y-139449953D01*
X144700053Y-139449952D01*
X144708563Y-139447454D01*
X144708808Y-139448289D01*
X144749861Y-139439252D01*
X145400029Y-139436127D01*
X145449147Y-139429927D01*
X145506666Y-139415466D01*
X145506671Y-139415464D01*
X145506677Y-139415463D01*
X145510992Y-139414196D01*
X145522095Y-139410938D01*
X145600113Y-139363215D01*
X145650109Y-139314407D01*
X145666992Y-139295776D01*
X145706821Y-139213448D01*
X145722491Y-139145358D01*
X145727364Y-139087073D01*
X145660349Y-137960000D01*
X148234353Y-137960000D01*
X148254834Y-138102456D01*
X148291690Y-138183158D01*
X148314623Y-138233373D01*
X148408872Y-138342143D01*
X148529947Y-138419953D01*
X148529950Y-138419954D01*
X148529949Y-138419954D01*
X148637107Y-138451417D01*
X148665280Y-138459690D01*
X148668036Y-138460499D01*
X148668038Y-138460500D01*
X148764167Y-138460500D01*
X148831206Y-138480185D01*
X148851848Y-138496819D01*
X149559540Y-139204511D01*
X149615489Y-139260460D01*
X149615491Y-139260461D01*
X149615495Y-139260464D01*
X149672493Y-139293371D01*
X149684011Y-139300021D01*
X149760438Y-139320500D01*
X149991499Y-139320500D01*
X150058538Y-139340185D01*
X150085211Y-139363296D01*
X150118872Y-139402143D01*
X150239947Y-139479953D01*
X150239950Y-139479954D01*
X150239949Y-139479954D01*
X150378036Y-139520499D01*
X150378038Y-139520500D01*
X150378039Y-139520500D01*
X150521962Y-139520500D01*
X150521962Y-139520499D01*
X150660053Y-139479953D01*
X150781128Y-139402143D01*
X150875377Y-139293373D01*
X150935165Y-139162457D01*
X150955647Y-139020000D01*
X150935165Y-138877543D01*
X150875377Y-138746627D01*
X150781128Y-138637857D01*
X150660053Y-138560047D01*
X150660051Y-138560046D01*
X150660049Y-138560045D01*
X150660050Y-138560045D01*
X150521963Y-138519500D01*
X150521961Y-138519500D01*
X150378039Y-138519500D01*
X150378036Y-138519500D01*
X150239949Y-138560045D01*
X150118873Y-138637856D01*
X150085212Y-138676703D01*
X150026433Y-138714477D01*
X149991499Y-138719500D01*
X149975833Y-138719500D01*
X149908794Y-138699815D01*
X149888152Y-138683181D01*
X149279395Y-138074424D01*
X149245910Y-138013101D01*
X149244339Y-137969094D01*
X149245647Y-137960000D01*
X149225165Y-137817543D01*
X149165377Y-137686627D01*
X149071128Y-137577857D01*
X148950053Y-137500047D01*
X148950051Y-137500046D01*
X148950049Y-137500045D01*
X148950050Y-137500045D01*
X148811963Y-137459500D01*
X148811961Y-137459500D01*
X148668039Y-137459500D01*
X148668036Y-137459500D01*
X148529949Y-137500045D01*
X148408873Y-137577856D01*
X148314623Y-137686626D01*
X148314622Y-137686628D01*
X148254834Y-137817543D01*
X148234353Y-137960000D01*
X145660349Y-137960000D01*
X145575400Y-136531319D01*
X152500000Y-136660000D01*
G37*
%TD.AperFunction*%
%TD*%
%TA.AperFunction,Conductor*%
%TO.N,VIN*%
G36*
X179561593Y-145741150D02*
G01*
X179608654Y-145792794D01*
X179621177Y-145845949D01*
X179629580Y-146745084D01*
X179610522Y-146812305D01*
X179601556Y-146824765D01*
X179211196Y-147301871D01*
X179153509Y-147341291D01*
X179131141Y-147346323D01*
X178303263Y-147453474D01*
X178287347Y-147454500D01*
X176915198Y-147454500D01*
X176843599Y-147484158D01*
X176813939Y-147496443D01*
X176813938Y-147496444D01*
X176671752Y-147638631D01*
X176610429Y-147672116D01*
X176599987Y-147673924D01*
X174926889Y-147890468D01*
X174816345Y-146485641D01*
X175300000Y-146540000D01*
X175446154Y-146541760D01*
X175503167Y-146556423D01*
X175579621Y-146597341D01*
X175647015Y-146615776D01*
X175705059Y-146623022D01*
X177669004Y-146586483D01*
X177695753Y-146584232D01*
X177727719Y-146579423D01*
X177732393Y-146577676D01*
X177777275Y-146569846D01*
X177790000Y-146570000D01*
X177790622Y-146569189D01*
X177822491Y-146540049D01*
X177866273Y-146512255D01*
X177910690Y-146474199D01*
X178512284Y-145787673D01*
X178571268Y-145750229D01*
X178602434Y-145745439D01*
X179494086Y-145723147D01*
X179561593Y-145741150D01*
G37*
%TD.AperFunction*%
%TD*%
%TA.AperFunction,Conductor*%
%TO.N,VIN*%
G36*
X184366818Y-114249529D02*
G01*
X185889396Y-114696884D01*
X185900046Y-114701073D01*
X185964124Y-116166847D01*
X185964124Y-116166848D01*
X185974226Y-116397940D01*
X185957488Y-116465775D01*
X185906732Y-116513792D01*
X185847839Y-116527330D01*
X184369567Y-116497466D01*
X184000000Y-116490000D01*
X183999999Y-116490000D01*
X183995794Y-116642772D01*
X183979397Y-116701067D01*
X183932579Y-116782670D01*
X183932577Y-116782673D01*
X183912165Y-116849489D01*
X183903212Y-116907292D01*
X183903211Y-116907297D01*
X183892627Y-117881044D01*
X183881429Y-117931207D01*
X183864835Y-117967542D01*
X183864834Y-117967543D01*
X183844353Y-118110000D01*
X183864834Y-118252454D01*
X183864834Y-118252455D01*
X183864835Y-118252457D01*
X183876538Y-118278084D01*
X183887737Y-118330942D01*
X183875864Y-119423297D01*
X183875864Y-119423311D01*
X183880165Y-119467402D01*
X183880167Y-119467420D01*
X183880169Y-119467429D01*
X183891004Y-119519469D01*
X183893506Y-119530068D01*
X183900185Y-119542816D01*
X183914299Y-119603773D01*
X183911136Y-119718693D01*
X183889614Y-119785165D01*
X183884311Y-119792366D01*
X183409999Y-120390000D01*
X183410363Y-120512935D01*
X183390877Y-120580033D01*
X183374050Y-120600979D01*
X183369540Y-120605489D01*
X183369535Y-120605496D01*
X183329982Y-120674004D01*
X183329979Y-120674009D01*
X183322881Y-120700500D01*
X183309500Y-120750438D01*
X183309500Y-123349562D01*
X183320032Y-123388867D01*
X183329980Y-123425993D01*
X183329981Y-123425994D01*
X183350146Y-123460920D01*
X183350148Y-123460922D01*
X183369539Y-123494510D01*
X183383165Y-123508136D01*
X183416650Y-123569459D01*
X183419483Y-123595450D01*
X183419999Y-123769998D01*
X183420000Y-123770000D01*
X183915647Y-124047226D01*
X183942794Y-124067765D01*
X184029540Y-124154511D01*
X184085489Y-124210460D01*
X184085491Y-124210461D01*
X184085495Y-124210464D01*
X184154004Y-124250017D01*
X184154011Y-124250021D01*
X184230438Y-124270500D01*
X184282511Y-124270500D01*
X184343042Y-124286278D01*
X184571985Y-124414330D01*
X184589147Y-124427340D01*
X182560000Y-123930000D01*
X182538208Y-123939936D01*
X182541868Y-123248895D01*
X182560134Y-123187881D01*
X182558814Y-123187119D01*
X182575003Y-123159079D01*
X182614354Y-123090921D01*
X182641000Y-122991476D01*
X182641000Y-122888524D01*
X182641000Y-114533122D01*
X182660685Y-114466083D01*
X182677319Y-114445441D01*
X182841941Y-114280819D01*
X182903264Y-114247334D01*
X182929622Y-114244500D01*
X184331863Y-114244500D01*
X184366818Y-114249529D01*
G37*
%TD.AperFunction*%
%TD*%
%TA.AperFunction,Conductor*%
%TO.N,GND*%
G36*
X182891286Y-136490412D02*
G01*
X182937691Y-136542646D01*
X182949541Y-136596000D01*
X182940434Y-139100476D01*
X182920506Y-139167443D01*
X182867536Y-139213006D01*
X182820541Y-139223957D01*
X179620000Y-139330000D01*
X179620777Y-139710850D01*
X179601229Y-139777930D01*
X179548518Y-139823792D01*
X179516174Y-139833576D01*
X179479700Y-139839352D01*
X179479699Y-139839352D01*
X179455548Y-139851658D01*
X179366658Y-139896950D01*
X179366657Y-139896951D01*
X179366652Y-139896954D01*
X179276954Y-139986652D01*
X179276951Y-139986657D01*
X179219352Y-140099698D01*
X179204500Y-140193475D01*
X179204500Y-140656517D01*
X179214342Y-140718656D01*
X179219354Y-140750304D01*
X179276950Y-140863342D01*
X179276952Y-140863344D01*
X179276954Y-140863347D01*
X179366652Y-140953045D01*
X179366654Y-140953046D01*
X179366658Y-140953050D01*
X179479696Y-141010646D01*
X179479698Y-141010647D01*
X179519089Y-141016886D01*
X179582224Y-141046815D01*
X179619155Y-141106127D01*
X179623691Y-141139106D01*
X179629381Y-143927271D01*
X179609833Y-143994350D01*
X179557123Y-144040213D01*
X179507726Y-144051502D01*
X178197351Y-144076285D01*
X178129951Y-144057871D01*
X178083206Y-144005942D01*
X178071008Y-143951829D01*
X178080570Y-141503928D01*
X178100516Y-141436968D01*
X178110848Y-141423221D01*
X178145377Y-141383373D01*
X178205165Y-141252457D01*
X178225647Y-141110000D01*
X178205165Y-140967543D01*
X178145377Y-140836627D01*
X178145375Y-140836625D01*
X178145374Y-140836622D01*
X178113924Y-140800328D01*
X178084898Y-140736773D01*
X178083638Y-140718656D01*
X178099523Y-136651995D01*
X178119469Y-136585035D01*
X178172452Y-136539486D01*
X178221983Y-136528490D01*
X182824010Y-136471558D01*
X182891286Y-136490412D01*
G37*
%TD.AperFunction*%
%TD*%
%TA.AperFunction,Conductor*%
%TO.N,GND*%
G36*
X185743039Y-110019685D02*
G01*
X185788794Y-110072489D01*
X185800000Y-110124000D01*
X185800000Y-111854397D01*
X185780315Y-111921436D01*
X185727511Y-111967191D01*
X185658353Y-111977135D01*
X185656255Y-111976815D01*
X182804255Y-111516815D01*
X182741205Y-111486707D01*
X182704442Y-111427291D01*
X182700000Y-111394397D01*
X182700000Y-110405957D01*
X182719685Y-110338918D01*
X182772489Y-110293163D01*
X182804656Y-110283475D01*
X184590392Y-110001516D01*
X184609731Y-110000000D01*
X185676000Y-110000000D01*
X185743039Y-110019685D01*
G37*
%TD.AperFunction*%
%TD*%
%TA.AperFunction,Conductor*%
%TO.N,VIN*%
G36*
X140920000Y-141020000D02*
G01*
X141126268Y-141020000D01*
X141056798Y-141097982D01*
X140997506Y-141134946D01*
X140964209Y-141139500D01*
X140610691Y-141139500D01*
X140521439Y-141163415D01*
X140521438Y-141163415D01*
X140496115Y-141170199D01*
X140496114Y-141170200D01*
X140393389Y-141229509D01*
X140393383Y-141229513D01*
X139559513Y-142063383D01*
X139559509Y-142063389D01*
X139500201Y-142166112D01*
X139500200Y-142166117D01*
X139469500Y-142280691D01*
X139469500Y-143757275D01*
X139449815Y-143824314D01*
X139397011Y-143870069D01*
X139348806Y-143881231D01*
X137647028Y-143926612D01*
X137579487Y-143908721D01*
X137532341Y-143857156D01*
X137519723Y-143802954D01*
X137510293Y-139814034D01*
X137529819Y-139746949D01*
X137582515Y-139701070D01*
X137634034Y-139689742D01*
X141439289Y-139681830D01*
X140920000Y-141020000D01*
G37*
%TD.AperFunction*%
%TD*%
%TA.AperFunction,Conductor*%
%TO.N,/LBQ*%
G36*
X186531799Y-136552427D02*
G01*
X186598538Y-136573099D01*
X186643509Y-136626573D01*
X186653957Y-136677910D01*
X186647441Y-137217517D01*
X186647441Y-137217518D01*
X186623318Y-139214741D01*
X186623267Y-139217095D01*
X186588283Y-140342776D01*
X186588283Y-140342777D01*
X186568822Y-140969023D01*
X186568822Y-140969027D01*
X186523301Y-142433752D01*
X186501544Y-142500147D01*
X186447344Y-142544240D01*
X186423615Y-142551505D01*
X185949117Y-142646144D01*
X185800000Y-140305000D01*
X185760446Y-140288587D01*
X185760448Y-140288588D01*
X184868567Y-139918513D01*
X184828411Y-139891663D01*
X184808220Y-139871472D01*
X184688126Y-139810281D01*
X184688124Y-139810280D01*
X184688121Y-139810279D01*
X184588491Y-139794499D01*
X184584922Y-139794219D01*
X184547122Y-139785133D01*
X184210615Y-139645504D01*
X183464423Y-139335880D01*
X183410047Y-139292005D01*
X183388023Y-139225697D01*
X183387986Y-139224447D01*
X183387802Y-139217095D01*
X183323224Y-136633987D01*
X183341227Y-136566480D01*
X183392871Y-136519419D01*
X183449015Y-136506905D01*
X186531799Y-136552427D01*
G37*
%TD.AperFunction*%
%TD*%
%TA.AperFunction,Conductor*%
%TO.N,Net-(U5-REGN)*%
G36*
X183628796Y-139822122D02*
G01*
X183695677Y-139842324D01*
X183741021Y-139895481D01*
X183750428Y-139964715D01*
X183738316Y-140002411D01*
X183695279Y-140086876D01*
X183679500Y-140186506D01*
X183679500Y-140753493D01*
X183695279Y-140853121D01*
X183695280Y-140853124D01*
X183695281Y-140853126D01*
X183744064Y-140948867D01*
X183756473Y-140973221D01*
X183756476Y-140973225D01*
X183851774Y-141068523D01*
X183851776Y-141068524D01*
X183851780Y-141068528D01*
X183874827Y-141080271D01*
X183925622Y-141128245D01*
X183940282Y-141167247D01*
X184069111Y-141834483D01*
X184069112Y-141834492D01*
X184070234Y-141840301D01*
X184072033Y-141849618D01*
X184083728Y-141888766D01*
X184102377Y-141934149D01*
X184120440Y-141968057D01*
X184135000Y-142026355D01*
X184135000Y-142144230D01*
X184135932Y-142163768D01*
X184135932Y-142163771D01*
X184135934Y-142163791D01*
X184138183Y-142187299D01*
X184140976Y-142206686D01*
X184140978Y-142206695D01*
X184157251Y-142290977D01*
X184159500Y-142314485D01*
X184159500Y-142665500D01*
X184139815Y-142732539D01*
X184087011Y-142778294D01*
X184035500Y-142789500D01*
X183964500Y-142789500D01*
X183897461Y-142769815D01*
X183851706Y-142717011D01*
X183840500Y-142665500D01*
X183840500Y-141983357D01*
X183840499Y-141983355D01*
X183824806Y-141904460D01*
X183824805Y-141904459D01*
X183824805Y-141904456D01*
X183788154Y-141849605D01*
X183765021Y-141814983D01*
X183756385Y-141806348D01*
X183757184Y-141805548D01*
X183720321Y-141761436D01*
X183710207Y-141718766D01*
X183710000Y-141715000D01*
X183709999Y-141715000D01*
X183709999Y-141714999D01*
X182680000Y-141725000D01*
X182679999Y-141725001D01*
X182541797Y-142481042D01*
X182510378Y-142543450D01*
X182450207Y-142578964D01*
X182421123Y-142582738D01*
X181918544Y-142588028D01*
X181860306Y-142574192D01*
X181856457Y-142572203D01*
X181856447Y-142572199D01*
X181788798Y-142554736D01*
X181788799Y-142554736D01*
X181742204Y-142549599D01*
X181730658Y-142548326D01*
X181730656Y-142548326D01*
X180939439Y-142574431D01*
X180871787Y-142556967D01*
X180824316Y-142505701D01*
X180811353Y-142449593D01*
X180819107Y-141387280D01*
X180839281Y-141320388D01*
X180892417Y-141275020D01*
X180942282Y-141264190D01*
X182330000Y-141255000D01*
X182685431Y-139908102D01*
X182721570Y-139848305D01*
X182784300Y-139817538D01*
X182806283Y-139815746D01*
X183628796Y-139822122D01*
G37*
%TD.AperFunction*%
%TD*%
%TA.AperFunction,Conductor*%
%TO.N,/L1v35*%
G36*
X188543039Y-121519685D02*
G01*
X188588794Y-121572489D01*
X188600000Y-121624000D01*
X188600000Y-123901020D01*
X188580315Y-123968059D01*
X188527511Y-124013814D01*
X188503481Y-124021936D01*
X186400002Y-124499998D01*
X186399996Y-124500001D01*
X186397869Y-124502129D01*
X186368511Y-124523873D01*
X186308414Y-124555899D01*
X186308413Y-124555899D01*
X186307020Y-124557107D01*
X186275914Y-124576820D01*
X186250861Y-124587882D01*
X186250858Y-124587884D01*
X186175386Y-124663356D01*
X186175382Y-124663361D01*
X186154890Y-124709772D01*
X186128925Y-124740510D01*
X186132205Y-124761558D01*
X186129500Y-124784870D01*
X186129500Y-124784877D01*
X186129501Y-125276000D01*
X186109817Y-125343039D01*
X186057013Y-125388794D01*
X186005501Y-125400000D01*
X185994500Y-125400000D01*
X185927461Y-125380315D01*
X185881706Y-125327511D01*
X185870500Y-125276000D01*
X185870499Y-124781298D01*
X185871515Y-124781298D01*
X185881767Y-124727130D01*
X185885689Y-124718627D01*
X185896429Y-124695338D01*
X185921129Y-124667045D01*
X185917907Y-124649119D01*
X185918329Y-124644179D01*
X185918330Y-124644178D01*
X185926122Y-124553055D01*
X185916435Y-124483860D01*
X185911434Y-124459224D01*
X185868724Y-124378353D01*
X185829986Y-124333310D01*
X185801197Y-124269647D01*
X185800000Y-124252456D01*
X185800000Y-123719252D01*
X185805837Y-123681655D01*
X186472508Y-121586403D01*
X186511593Y-121528488D01*
X186575784Y-121500897D01*
X186590671Y-121500000D01*
X188476000Y-121500000D01*
X188543039Y-121519685D01*
G37*
%TD.AperFunction*%
%TD*%
%TA.AperFunction,Conductor*%
%TO.N,/LBQ*%
G36*
X185760446Y-140288587D02*
G01*
X185800000Y-140305000D01*
X185949117Y-142646144D01*
X185801596Y-142675568D01*
X185794024Y-142676836D01*
X184990682Y-142785900D01*
X184921603Y-142775413D01*
X184869161Y-142729244D01*
X184850000Y-142663027D01*
X184850000Y-141926277D01*
X184869685Y-141859238D01*
X184898676Y-141827777D01*
X185360000Y-141475000D01*
X185486522Y-140390520D01*
X185513843Y-140326215D01*
X185571593Y-140286887D01*
X185616142Y-140281059D01*
X185760446Y-140288587D01*
G37*
%TD.AperFunction*%
%TD*%
%TA.AperFunction,Conductor*%
%TO.N,VIN*%
G36*
X173970000Y-135730000D02*
G01*
X174008818Y-136223323D01*
X174008818Y-136223324D01*
X174128867Y-137748960D01*
X174114502Y-137817337D01*
X174065450Y-137867093D01*
X173997285Y-137882431D01*
X173931648Y-137858481D01*
X173911536Y-137839889D01*
X173882550Y-137806437D01*
X173882549Y-137806436D01*
X173761474Y-137728626D01*
X173761472Y-137728625D01*
X173761470Y-137728624D01*
X173761471Y-137728624D01*
X173623384Y-137688079D01*
X173623382Y-137688079D01*
X173479460Y-137688079D01*
X173479457Y-137688079D01*
X173341370Y-137728624D01*
X173220294Y-137806435D01*
X173126044Y-137915205D01*
X173126043Y-137915207D01*
X173066255Y-138046122D01*
X173045774Y-138188579D01*
X173066255Y-138331035D01*
X173126043Y-138461950D01*
X173126044Y-138461952D01*
X173220293Y-138570722D01*
X173341368Y-138648532D01*
X173341371Y-138648533D01*
X173341370Y-138648533D01*
X173448528Y-138679996D01*
X173476701Y-138688269D01*
X173479457Y-138689078D01*
X173479459Y-138689079D01*
X173575588Y-138689079D01*
X173642627Y-138708764D01*
X173663269Y-138725398D01*
X173963331Y-139025460D01*
X174031854Y-139065022D01*
X174108280Y-139085500D01*
X174108282Y-139085500D01*
X174119413Y-139085500D01*
X174186452Y-139105185D01*
X174232207Y-139157989D01*
X174243030Y-139199770D01*
X174816345Y-146485641D01*
X174926889Y-147890469D01*
X174922934Y-147895343D01*
X174865404Y-147934991D01*
X174841004Y-147940368D01*
X171976134Y-148274139D01*
X171907267Y-148262345D01*
X171855708Y-148215190D01*
X171837800Y-148152962D01*
X171834388Y-147940368D01*
X171794412Y-145449925D01*
X171813018Y-145382582D01*
X171865081Y-145335986D01*
X171934071Y-145324934D01*
X171997060Y-145352085D01*
X172113550Y-145447685D01*
X172296046Y-145545232D01*
X172494066Y-145605300D01*
X172494065Y-145605300D01*
X172512529Y-145607118D01*
X172700000Y-145625583D01*
X172905934Y-145605300D01*
X173103954Y-145545232D01*
X173286450Y-145447685D01*
X173446410Y-145316410D01*
X173577685Y-145156450D01*
X173675232Y-144973954D01*
X173735300Y-144775934D01*
X173755583Y-144570000D01*
X173735300Y-144364066D01*
X173675232Y-144166046D01*
X173577685Y-143983550D01*
X173525702Y-143920209D01*
X173446410Y-143823589D01*
X173328677Y-143726969D01*
X173286450Y-143692315D01*
X173103954Y-143594768D01*
X172905934Y-143534700D01*
X172905932Y-143534699D01*
X172905934Y-143534699D01*
X172700000Y-143514417D01*
X172494067Y-143534699D01*
X172296043Y-143594769D01*
X172185898Y-143653643D01*
X172113550Y-143692315D01*
X172113548Y-143692316D01*
X172113547Y-143692317D01*
X171969242Y-143810744D01*
X171904932Y-143838056D01*
X171836065Y-143826265D01*
X171784505Y-143779112D01*
X171766595Y-143716884D01*
X171761690Y-143411288D01*
X171780295Y-143343945D01*
X171797984Y-143321629D01*
X172112633Y-143006980D01*
X172173954Y-142973497D01*
X172243646Y-142978481D01*
X172258764Y-142985304D01*
X172296046Y-143005232D01*
X172494066Y-143065300D01*
X172494065Y-143065300D01*
X172512529Y-143067118D01*
X172700000Y-143085583D01*
X172905934Y-143065300D01*
X173103954Y-143005232D01*
X173286450Y-142907685D01*
X173446410Y-142776410D01*
X173577685Y-142616450D01*
X173675232Y-142433954D01*
X173735300Y-142235934D01*
X173755583Y-142030000D01*
X173735300Y-141824066D01*
X173675232Y-141626046D01*
X173577685Y-141443550D01*
X173525702Y-141380209D01*
X173446410Y-141283589D01*
X173286452Y-141152317D01*
X173286453Y-141152317D01*
X173286450Y-141152315D01*
X173103954Y-141054768D01*
X172905934Y-140994700D01*
X172905932Y-140994699D01*
X172905934Y-140994699D01*
X172700000Y-140974417D01*
X172494067Y-140994699D01*
X172296043Y-141054769D01*
X172192715Y-141110000D01*
X172113550Y-141152315D01*
X172113548Y-141152316D01*
X172113547Y-141152317D01*
X171953591Y-141283588D01*
X171946286Y-141292490D01*
X171888539Y-141331824D01*
X171818695Y-141333693D01*
X171758927Y-141297506D01*
X171728211Y-141234750D01*
X171726449Y-141215822D01*
X171640000Y-135830000D01*
X171390000Y-135670000D01*
X173970000Y-135730000D01*
G37*
%TD.AperFunction*%
%TD*%
%TA.AperFunction,Conductor*%
%TO.N,GND*%
G36*
X139539169Y-145072183D02*
G01*
X139587040Y-145123077D01*
X139600439Y-145178723D01*
X139619575Y-150785577D01*
X139600120Y-150852683D01*
X139547472Y-150898618D01*
X139495576Y-150910000D01*
X137754215Y-150910000D01*
X137687176Y-150890315D01*
X137641421Y-150837511D01*
X137630215Y-150785785D01*
X137639794Y-145248835D01*
X137659595Y-145181830D01*
X137712478Y-145136167D01*
X137758733Y-145125153D01*
X139471385Y-145055249D01*
X139539169Y-145072183D01*
G37*
%TD.AperFunction*%
%TD*%
%TA.AperFunction,Conductor*%
%TO.N,Net-(U5-VBUS)*%
G36*
X181805087Y-142771178D02*
G01*
X181830420Y-142794469D01*
X181834434Y-142794426D01*
X181635053Y-143363492D01*
X181635052Y-143363493D01*
X180920155Y-145403932D01*
X180879411Y-145460692D01*
X180814448Y-145486413D01*
X180798857Y-145486857D01*
X178570000Y-145410000D01*
X177756134Y-146338763D01*
X177697147Y-146376210D01*
X177665181Y-146381019D01*
X175701236Y-146417558D01*
X175633842Y-146399123D01*
X175587112Y-146347180D01*
X175575020Y-146288838D01*
X175645520Y-144447017D01*
X175667754Y-144380783D01*
X175722270Y-144337081D01*
X175767080Y-144327785D01*
X179880000Y-144250000D01*
X179880000Y-142934976D01*
X179899685Y-142867937D01*
X179952489Y-142822182D01*
X179999908Y-142811043D01*
X181737435Y-142753714D01*
X181805087Y-142771178D01*
G37*
%TD.AperFunction*%
%TD*%
%TA.AperFunction,Conductor*%
%TO.N,GND*%
G36*
X135643039Y-107269685D02*
G01*
X135688794Y-107322489D01*
X135700000Y-107374000D01*
X135700000Y-109253173D01*
X135700000Y-109253175D01*
X134175000Y-109299543D01*
X134175000Y-107374000D01*
X134194685Y-107306961D01*
X134247489Y-107261206D01*
X134299000Y-107250000D01*
X135576000Y-107250000D01*
X135643039Y-107269685D01*
G37*
%TD.AperFunction*%
%TD*%
%TA.AperFunction,Conductor*%
%TO.N,VIN*%
G36*
X150610000Y-153730000D02*
G01*
X154800000Y-153760000D01*
X154794878Y-152168367D01*
X155665438Y-152169795D01*
X155732443Y-152189590D01*
X155753073Y-152213477D01*
X155753142Y-152213410D01*
X155789506Y-152249999D01*
X155780000Y-153790000D01*
X154721663Y-153791737D01*
X154721662Y-153791737D01*
X154721662Y-153791736D01*
X150402037Y-153798830D01*
X150334965Y-153779255D01*
X150289123Y-153726527D01*
X150277833Y-153674830D01*
X150277833Y-153439143D01*
X150257353Y-153362713D01*
X150257350Y-153362708D01*
X150217797Y-153294199D01*
X150217791Y-153294191D01*
X150026819Y-153103219D01*
X149993334Y-153041896D01*
X149990500Y-153015538D01*
X149990500Y-152704461D01*
X150010185Y-152637422D01*
X150026814Y-152616785D01*
X150445900Y-152197699D01*
X150507219Y-152164217D01*
X150514020Y-152163491D01*
X150516036Y-152161354D01*
X150516037Y-152161354D01*
X150610000Y-153730000D01*
G37*
%TD.AperFunction*%
%TD*%
%TA.AperFunction,Conductor*%
%TO.N,GND*%
G36*
X188622658Y-129140601D02*
G01*
X188669250Y-129192668D01*
X188681285Y-129244695D01*
X188698701Y-130934064D01*
X188679709Y-131001303D01*
X188627379Y-131047599D01*
X188574059Y-131059340D01*
X186914001Y-131050649D01*
X186847065Y-131030614D01*
X186801588Y-130977571D01*
X186790652Y-130926000D01*
X186799361Y-129271393D01*
X186819398Y-129204459D01*
X186872442Y-129158983D01*
X186921379Y-129148063D01*
X188555315Y-129121989D01*
X188622658Y-129140601D01*
G37*
%TD.AperFunction*%
%TD*%
%TA.AperFunction,Conductor*%
%TO.N,1V*%
G36*
X139606709Y-125000759D02*
G01*
X139616837Y-125006563D01*
X139651664Y-125016758D01*
X139706985Y-125048741D01*
X139706987Y-125048742D01*
X139735022Y-125057407D01*
X139773738Y-125069375D01*
X139831512Y-125078520D01*
X140702259Y-125090871D01*
X140769012Y-125111505D01*
X140814014Y-125164953D01*
X140824500Y-125214859D01*
X140824500Y-125832466D01*
X140826604Y-125861780D01*
X140826606Y-125861803D01*
X140831659Y-125896831D01*
X140862277Y-125978756D01*
X140862281Y-125978764D01*
X140900092Y-126037481D01*
X140900101Y-126037494D01*
X140907284Y-126047278D01*
X140931090Y-126112967D01*
X140931304Y-126118164D01*
X140940000Y-126550000D01*
X141954541Y-126730152D01*
X142017106Y-126761254D01*
X142039070Y-126788244D01*
X142464342Y-127494015D01*
X142481892Y-127550278D01*
X142538252Y-128452046D01*
X142522787Y-128520183D01*
X142472940Y-128569143D01*
X142418624Y-128583712D01*
X140618520Y-128643716D01*
X140614389Y-128643785D01*
X140326078Y-128643785D01*
X139350195Y-128642694D01*
X139283178Y-128622934D01*
X139237482Y-128570079D01*
X139226363Y-128521370D01*
X139183854Y-126550000D01*
X139178242Y-126289751D01*
X139410000Y-126340000D01*
X139710000Y-125160000D01*
X139606708Y-125000758D01*
X139606709Y-125000759D01*
G37*
%TD.AperFunction*%
%TD*%
%TA.AperFunction,Conductor*%
%TO.N,1V35*%
G36*
X183509881Y-112400578D02*
G01*
X183555793Y-112453246D01*
X183565943Y-112522374D01*
X183537108Y-112586016D01*
X183518619Y-112603485D01*
X182547662Y-113348199D01*
X182519660Y-113364363D01*
X182514575Y-113366469D01*
X182410933Y-113426307D01*
X182410927Y-113426311D01*
X182326309Y-113510930D01*
X182326303Y-113510932D01*
X182326305Y-113510934D01*
X182301820Y-113535417D01*
X182289608Y-113546124D01*
X181782915Y-113934753D01*
X181717740Y-113959933D01*
X181708516Y-113960356D01*
X177225067Y-113998923D01*
X177157860Y-113979816D01*
X177111653Y-113927408D01*
X177100000Y-113874928D01*
X177100000Y-112523630D01*
X177119685Y-112456591D01*
X177172489Y-112410836D01*
X177223627Y-112399631D01*
X183442784Y-112381094D01*
X183509881Y-112400578D01*
G37*
%TD.AperFunction*%
%TD*%
%TA.AperFunction,Conductor*%
%TO.N,1V08*%
G36*
X162117061Y-152529174D02*
G01*
X162183964Y-152549308D01*
X162229364Y-152602418D01*
X162240226Y-152652943D01*
X162249774Y-157837385D01*
X162230213Y-157904460D01*
X162177493Y-157950312D01*
X162127395Y-157961602D01*
X159396190Y-157997303D01*
X159328899Y-157978497D01*
X159282458Y-157926295D01*
X159270579Y-157874903D01*
X159267052Y-157599773D01*
X159262088Y-157557439D01*
X159262087Y-157557436D01*
X159250902Y-157507562D01*
X159250900Y-157507556D01*
X159250892Y-157507518D01*
X159248689Y-157498627D01*
X159248687Y-157498624D01*
X159248687Y-157498622D01*
X159204568Y-157415828D01*
X159190000Y-157357514D01*
X159190000Y-155554008D01*
X159209685Y-155486969D01*
X159217744Y-155475837D01*
X160119369Y-154365627D01*
X160145643Y-154341437D01*
X160171414Y-154323823D01*
X160191260Y-154308396D01*
X160244729Y-154234199D01*
X160258102Y-154202570D01*
X160276051Y-154172697D01*
X160530000Y-153860000D01*
X160732824Y-152624616D01*
X160763109Y-152561654D01*
X160822628Y-152525058D01*
X160856013Y-152520711D01*
X162117061Y-152529174D01*
G37*
%TD.AperFunction*%
%TD*%
%TA.AperFunction,Conductor*%
%TO.N,Net-(C12-Pad1)*%
G36*
X187602200Y-147908484D02*
G01*
X187591995Y-147919242D01*
X187531573Y-147954327D01*
X187461774Y-147951175D01*
X187428407Y-147933665D01*
X187412882Y-147922207D01*
X187412880Y-147922206D01*
X187284700Y-147877353D01*
X187254270Y-147874500D01*
X187254266Y-147874500D01*
X186645734Y-147874500D01*
X186645730Y-147874500D01*
X186615300Y-147877353D01*
X186615298Y-147877353D01*
X186487119Y-147922206D01*
X186487117Y-147922207D01*
X186377850Y-148002850D01*
X186297207Y-148112117D01*
X186265474Y-148202804D01*
X186224752Y-148259579D01*
X186172078Y-148283573D01*
X186152960Y-148287286D01*
X186147225Y-148288485D01*
X186064665Y-148327843D01*
X186064662Y-148327845D01*
X186009866Y-148371191D01*
X186009865Y-148371192D01*
X185991146Y-148387959D01*
X185942974Y-148465696D01*
X185942972Y-148465700D01*
X185920308Y-148531790D01*
X185920308Y-148531792D01*
X185912935Y-148570646D01*
X185909402Y-148589262D01*
X185909401Y-148589265D01*
X185865411Y-149571700D01*
X185842747Y-149637792D01*
X185804290Y-149673101D01*
X184770000Y-150280000D01*
X184713094Y-152508796D01*
X184691704Y-152575311D01*
X184637750Y-152619703D01*
X184588756Y-152629630D01*
X181554301Y-152620378D01*
X181487322Y-152600490D01*
X181441728Y-152547546D01*
X181430681Y-152495700D01*
X181440437Y-150715214D01*
X181460487Y-150648287D01*
X181476744Y-150628226D01*
X182195460Y-149909511D01*
X182235022Y-149840988D01*
X182255500Y-149764562D01*
X182255500Y-149685438D01*
X182255500Y-148881357D01*
X182275185Y-148814318D01*
X182327989Y-148768563D01*
X182351431Y-148760576D01*
X183200964Y-148563210D01*
X183270713Y-148567213D01*
X183275549Y-148569298D01*
X183279694Y-148570645D01*
X183279696Y-148570646D01*
X183279697Y-148570646D01*
X183279700Y-148570647D01*
X183373475Y-148585499D01*
X183373481Y-148585500D01*
X183836518Y-148585499D01*
X183930304Y-148570646D01*
X184043342Y-148513050D01*
X184133050Y-148423342D01*
X184151162Y-148387794D01*
X184199131Y-148337001D01*
X184233572Y-148323311D01*
X184420000Y-148280000D01*
X185049512Y-147712406D01*
X185112483Y-147682134D01*
X185132547Y-147680500D01*
X185171962Y-147680500D01*
X185171962Y-147680499D01*
X185310053Y-147639953D01*
X185431128Y-147562143D01*
X185525377Y-147453373D01*
X185585165Y-147322457D01*
X185594146Y-147259988D01*
X185623168Y-147196436D01*
X185633815Y-147185576D01*
X186250000Y-146630000D01*
X187510000Y-146590000D01*
X187602200Y-147908484D01*
G37*
%TD.AperFunction*%
%TD*%
%TA.AperFunction,Conductor*%
%TO.N,VIN*%
G36*
X143870000Y-141020000D02*
G01*
X144734908Y-141003724D01*
X144776954Y-143238167D01*
X144758534Y-143305565D01*
X144706600Y-143352305D01*
X144652976Y-143364500D01*
X144068085Y-143364500D01*
X144001046Y-143344815D01*
X143955291Y-143292011D01*
X143944154Y-143244631D01*
X143870000Y-141020000D01*
X140920000Y-141020000D01*
X141439290Y-139681828D01*
X141471455Y-139681762D01*
X141476687Y-139680055D01*
X141480393Y-139680000D01*
X143850147Y-139680000D01*
X143850148Y-139680000D01*
X143870000Y-141020000D01*
G37*
%TD.AperFunction*%
%TD*%
%TA.AperFunction,Conductor*%
%TO.N,GND*%
G36*
X184465967Y-126524036D02*
G01*
X184496808Y-126586731D01*
X184498458Y-126601411D01*
X184604969Y-128633992D01*
X184588820Y-128701970D01*
X184538482Y-128750425D01*
X184518273Y-128758790D01*
X183240000Y-129159999D01*
X183239999Y-129160001D01*
X183184151Y-130770298D01*
X183162155Y-130836615D01*
X183107797Y-130880512D01*
X183060226Y-130890000D01*
X181766099Y-130890000D01*
X181699060Y-130870315D01*
X181653305Y-130817511D01*
X181646021Y-130796940D01*
X180859073Y-127742831D01*
X180861407Y-127673004D01*
X180901125Y-127615520D01*
X180940807Y-127593972D01*
X184336289Y-126489976D01*
X184406128Y-126487968D01*
X184465967Y-126524036D01*
G37*
%TD.AperFunction*%
%TD*%
%TA.AperFunction,Conductor*%
%TO.N,VIN*%
G36*
X188080000Y-136110000D02*
G01*
X186866213Y-136119775D01*
X186866211Y-136119775D01*
X186866212Y-136119774D01*
X174008819Y-136223323D01*
X173970000Y-135730000D01*
X171390000Y-135670000D01*
X171640000Y-135830000D01*
X171646618Y-136242348D01*
X171646618Y-136242349D01*
X171646617Y-136242349D01*
X159748409Y-136338173D01*
X159681213Y-136319029D01*
X159635034Y-136266595D01*
X159624534Y-136197519D01*
X159624937Y-136194778D01*
X159636778Y-136120021D01*
X159640500Y-136096519D01*
X159640499Y-135939276D01*
X159660183Y-135872237D01*
X159670780Y-135858080D01*
X159726850Y-135793373D01*
X159786638Y-135662457D01*
X159807120Y-135520000D01*
X159786638Y-135377543D01*
X159726850Y-135246627D01*
X159632601Y-135137857D01*
X159511526Y-135060047D01*
X159511524Y-135060046D01*
X159511522Y-135060045D01*
X159511523Y-135060045D01*
X159373436Y-135019500D01*
X159373434Y-135019500D01*
X159229512Y-135019500D01*
X159229509Y-135019500D01*
X159091424Y-135060044D01*
X159091418Y-135060047D01*
X159037317Y-135094816D01*
X158970279Y-135114500D01*
X158808482Y-135114500D01*
X158727519Y-135127323D01*
X158714696Y-135129354D01*
X158601658Y-135186950D01*
X158601657Y-135186951D01*
X158601652Y-135186954D01*
X158511954Y-135276652D01*
X158511951Y-135276657D01*
X158511950Y-135276658D01*
X158508035Y-135284342D01*
X158454352Y-135389698D01*
X158439500Y-135483475D01*
X158439500Y-136078916D01*
X158419815Y-136145955D01*
X158367011Y-136191710D01*
X158297853Y-136201654D01*
X158234297Y-136172629D01*
X158198621Y-136120332D01*
X157997619Y-135553058D01*
X157990499Y-135511644D01*
X157990499Y-135483482D01*
X157990498Y-135483475D01*
X157975646Y-135389696D01*
X157918050Y-135276658D01*
X157918046Y-135276654D01*
X157918045Y-135276652D01*
X157909433Y-135268040D01*
X157880235Y-135221774D01*
X157830000Y-135080000D01*
X157829999Y-135080000D01*
X157829999Y-135079999D01*
X157681102Y-135114697D01*
X157633568Y-135116407D01*
X157621523Y-135114500D01*
X157158482Y-135114500D01*
X157077519Y-135127323D01*
X157064696Y-135129354D01*
X156951658Y-135186950D01*
X156951657Y-135186951D01*
X156951652Y-135186954D01*
X156855049Y-135283558D01*
X156853524Y-135282033D01*
X156808457Y-135316773D01*
X156791632Y-135321978D01*
X156086664Y-135486264D01*
X156058521Y-135489500D01*
X155750433Y-135489500D01*
X155718372Y-135498091D01*
X155648522Y-135496427D01*
X155598199Y-135463234D01*
X155597828Y-135463663D01*
X155594573Y-135460842D01*
X155592571Y-135459522D01*
X155591129Y-135457858D01*
X155591128Y-135457857D01*
X155470053Y-135380047D01*
X155470051Y-135380046D01*
X155470049Y-135380045D01*
X155470050Y-135380045D01*
X155331963Y-135339500D01*
X155331961Y-135339500D01*
X155188039Y-135339500D01*
X155188036Y-135339500D01*
X155049949Y-135380045D01*
X154928873Y-135457856D01*
X154834623Y-135566626D01*
X154834622Y-135566628D01*
X154774835Y-135697541D01*
X154774833Y-135697550D01*
X154772846Y-135711366D01*
X154743818Y-135774921D01*
X154685038Y-135812692D01*
X154678252Y-135814477D01*
X154440000Y-135870000D01*
X154439999Y-135870000D01*
X154061751Y-136237361D01*
X153999945Y-136269947D01*
X153994758Y-136270882D01*
X153909696Y-136284354D01*
X153796658Y-136341950D01*
X153796657Y-136341951D01*
X153796652Y-136341954D01*
X153706954Y-136431652D01*
X153706951Y-136431657D01*
X153649352Y-136544698D01*
X153638368Y-136614050D01*
X153608438Y-136677185D01*
X153602287Y-136683603D01*
X153157334Y-137115751D01*
X153157335Y-137115752D01*
X152500000Y-136660000D01*
X145575400Y-136531319D01*
X145521856Y-135630789D01*
X145516899Y-135596534D01*
X145507490Y-135555987D01*
X145507234Y-135554897D01*
X145466808Y-135472861D01*
X145466807Y-135472860D01*
X145466807Y-135472859D01*
X145422772Y-135418655D01*
X145422734Y-135418612D01*
X145405741Y-135400131D01*
X145405739Y-135400129D01*
X145327382Y-135352973D01*
X145327383Y-135352973D01*
X145327379Y-135352971D01*
X145327376Y-135352970D01*
X145327374Y-135352969D01*
X145260997Y-135331168D01*
X145260999Y-135331168D01*
X145203395Y-135321011D01*
X145203401Y-135321011D01*
X143604260Y-135270244D01*
X143537879Y-135248442D01*
X143494975Y-135195630D01*
X143499829Y-133103665D01*
X143519669Y-133036673D01*
X143522309Y-133033425D01*
X143522373Y-133029874D01*
X188060000Y-132780000D01*
X188080000Y-136110000D01*
G37*
%TD.AperFunction*%
%TD*%
%TA.AperFunction,Conductor*%
%TO.N,/Inductor3vIn*%
G36*
X188643039Y-112819685D02*
G01*
X188688794Y-112872489D01*
X188700000Y-112924000D01*
X188700000Y-114420660D01*
X188680315Y-114487699D01*
X188627963Y-114533247D01*
X187869978Y-114883087D01*
X187818015Y-114894500D01*
X187724000Y-114894500D01*
X187684097Y-114898790D01*
X187670851Y-114899500D01*
X187572385Y-114899500D01*
X187572361Y-114899502D01*
X187548504Y-114902269D01*
X187548501Y-114902269D01*
X187450864Y-114945380D01*
X187450856Y-114945386D01*
X187375386Y-115020856D01*
X187375381Y-115020863D01*
X187332270Y-115118499D01*
X187329500Y-115142375D01*
X187329500Y-115142377D01*
X187329501Y-115676000D01*
X187309817Y-115743039D01*
X187257013Y-115788794D01*
X187205501Y-115800000D01*
X187194500Y-115800000D01*
X187127461Y-115780315D01*
X187081706Y-115727511D01*
X187070500Y-115676000D01*
X187070499Y-115142384D01*
X187070499Y-115142378D01*
X187067730Y-115118502D01*
X187067729Y-115118499D01*
X187024619Y-115020864D01*
X187024617Y-115020861D01*
X187024616Y-115020859D01*
X186949141Y-114945384D01*
X186949138Y-114945383D01*
X186949136Y-114945381D01*
X186851500Y-114902270D01*
X186851501Y-114902270D01*
X186827624Y-114899500D01*
X186827623Y-114899500D01*
X186787784Y-114899500D01*
X186732330Y-114886409D01*
X186001796Y-114521142D01*
X186001782Y-114521135D01*
X185985083Y-114513695D01*
X185985078Y-114513693D01*
X185985069Y-114513689D01*
X185973719Y-114509226D01*
X185973719Y-114509225D01*
X185973699Y-114509218D01*
X185964613Y-114505644D01*
X185947335Y-114499720D01*
X185689044Y-114423830D01*
X185630273Y-114386045D01*
X185601259Y-114322484D01*
X185600000Y-114304859D01*
X185600000Y-113804122D01*
X185619685Y-113737083D01*
X185636319Y-113716441D01*
X186516442Y-112836319D01*
X186577765Y-112802834D01*
X186604123Y-112800000D01*
X188576000Y-112800000D01*
X188643039Y-112819685D01*
G37*
%TD.AperFunction*%
%TD*%
%TA.AperFunction,Conductor*%
%TO.N,GND*%
G36*
X138782890Y-126260369D02*
G01*
X138829274Y-126312621D01*
X138841100Y-126364383D01*
X138858912Y-128377065D01*
X138839822Y-128444276D01*
X138787425Y-128490496D01*
X138737079Y-128502143D01*
X137524185Y-128523298D01*
X137456813Y-128504786D01*
X137453063Y-128502373D01*
X137435314Y-128490496D01*
X137333653Y-128422469D01*
X137314885Y-128407048D01*
X137193357Y-128285388D01*
X137177957Y-128266605D01*
X137165517Y-128247971D01*
X137144666Y-128181287D01*
X137144658Y-128177520D01*
X137168402Y-126380903D01*
X137188971Y-126314131D01*
X137242375Y-126269078D01*
X137290905Y-126258552D01*
X138715621Y-126241489D01*
X138782890Y-126260369D01*
G37*
%TD.AperFunction*%
%TD*%
%TA.AperFunction,Conductor*%
%TO.N,GND*%
G36*
X184121876Y-144915331D02*
G01*
X184168215Y-144967623D01*
X184180000Y-145020385D01*
X184180000Y-145818191D01*
X184175279Y-145842022D01*
X184177577Y-145842480D01*
X184159500Y-145933357D01*
X184159500Y-146696644D01*
X184166190Y-146730277D01*
X184159963Y-146799869D01*
X184131706Y-146842694D01*
X183771205Y-147198726D01*
X183709674Y-147231828D01*
X183684072Y-147234500D01*
X183373482Y-147234500D01*
X183292519Y-147247323D01*
X183279696Y-147249354D01*
X183166658Y-147306950D01*
X183166657Y-147306951D01*
X183166652Y-147306954D01*
X183076954Y-147396652D01*
X183076951Y-147396657D01*
X183019352Y-147509698D01*
X183004500Y-147603475D01*
X183004500Y-147871351D01*
X182984815Y-147938390D01*
X182932011Y-147984145D01*
X182888235Y-147995110D01*
X181986212Y-148051486D01*
X181918075Y-148036021D01*
X181869115Y-147986174D01*
X181854546Y-147923599D01*
X181876834Y-147254975D01*
X181898741Y-147188629D01*
X181953040Y-147144659D01*
X181972530Y-147138365D01*
X182831547Y-146937515D01*
X182883964Y-146936642D01*
X182903360Y-146940500D01*
X182903361Y-146940500D01*
X183096642Y-146940500D01*
X183096643Y-146940499D01*
X183175544Y-146924805D01*
X183265019Y-146865019D01*
X183324805Y-146775544D01*
X183340500Y-146696640D01*
X183340500Y-145933360D01*
X183340500Y-145933357D01*
X183340499Y-145933355D01*
X183324806Y-145854460D01*
X183324805Y-145854456D01*
X183296555Y-145812178D01*
X183275677Y-145745501D01*
X183275659Y-145742720D01*
X183279367Y-145026990D01*
X183299398Y-144960057D01*
X183352439Y-144914576D01*
X183401985Y-144903644D01*
X183567813Y-144901801D01*
X183610000Y-145060000D01*
X183821074Y-144898987D01*
X184054622Y-144896393D01*
X184121876Y-144915331D01*
G37*
%TD.AperFunction*%
%TD*%
%TA.AperFunction,Conductor*%
%TO.N,1V35*%
G36*
X139507648Y-103728607D02*
G01*
X139574458Y-103749053D01*
X139619609Y-103802375D01*
X139630236Y-103852360D01*
X139639759Y-108785366D01*
X139620204Y-108852443D01*
X139567488Y-108898300D01*
X139515365Y-108909604D01*
X136606158Y-108900368D01*
X136539182Y-108880471D01*
X136493595Y-108827522D01*
X136482791Y-108784066D01*
X136370000Y-106970000D01*
X133652141Y-106970000D01*
X133585102Y-106950315D01*
X133539347Y-106897511D01*
X133528155Y-106847873D01*
X133491744Y-104437547D01*
X133494111Y-104411498D01*
X133501348Y-104375105D01*
X133508397Y-104351857D01*
X133574265Y-104192806D01*
X133585714Y-104171382D01*
X133681345Y-104028241D01*
X133696756Y-104009460D01*
X133818477Y-103887726D01*
X133837258Y-103872312D01*
X133980385Y-103776668D01*
X134001808Y-103765217D01*
X134160845Y-103699335D01*
X134184098Y-103692280D01*
X134239926Y-103681173D01*
X134286796Y-103671849D01*
X134312399Y-103669474D01*
X139507648Y-103728607D01*
G37*
%TD.AperFunction*%
%TD*%
%TA.AperFunction,Conductor*%
%TO.N,GND*%
G36*
X154333039Y-154239685D02*
G01*
X154378794Y-154292489D01*
X154390000Y-154344000D01*
X154390000Y-155654062D01*
X154370315Y-155721101D01*
X154317511Y-155766856D01*
X154264078Y-155778047D01*
X153106999Y-155760108D01*
X153093051Y-155759103D01*
X153021237Y-155749836D01*
X152957268Y-155721734D01*
X152927312Y-155677252D01*
X152925076Y-155678392D01*
X152920646Y-155669698D01*
X152920646Y-155669696D01*
X152863050Y-155556658D01*
X152863046Y-155556654D01*
X152863045Y-155556652D01*
X152773347Y-155466954D01*
X152773344Y-155466952D01*
X152773342Y-155466950D01*
X152696517Y-155427805D01*
X152660301Y-155409352D01*
X152566524Y-155394500D01*
X152103482Y-155394500D01*
X152022519Y-155407323D01*
X152009696Y-155409354D01*
X151896658Y-155466950D01*
X151896657Y-155466951D01*
X151896656Y-155466951D01*
X151817722Y-155545885D01*
X151756398Y-155579369D01*
X151714172Y-155581183D01*
X151208891Y-155515985D01*
X151144922Y-155487884D01*
X151137079Y-155480686D01*
X151123347Y-155466954D01*
X151123344Y-155466952D01*
X151123342Y-155466950D01*
X151046517Y-155427805D01*
X151010301Y-155409352D01*
X150916524Y-155394500D01*
X150453477Y-155394500D01*
X150453383Y-155394516D01*
X150453346Y-155394511D01*
X150448620Y-155394883D01*
X150448541Y-155393889D01*
X150384091Y-155385552D01*
X150330644Y-155340550D01*
X150310012Y-155273796D01*
X150310000Y-155272040D01*
X150310000Y-155162476D01*
X150329685Y-155095437D01*
X150340278Y-155081284D01*
X150402710Y-155009234D01*
X150462498Y-154878318D01*
X150482980Y-154735861D01*
X150462498Y-154593404D01*
X150402710Y-154462488D01*
X150370401Y-154425201D01*
X150341377Y-154361647D01*
X150351321Y-154292489D01*
X150397075Y-154239685D01*
X150464115Y-154220000D01*
X154266000Y-154220000D01*
X154333039Y-154239685D01*
G37*
%TD.AperFunction*%
%TD*%
%TA.AperFunction,Conductor*%
%TO.N,Net-(U5-BTST)*%
G36*
X184496589Y-139984904D02*
G01*
X184496718Y-139984371D01*
X184499094Y-139984942D01*
X184513040Y-139988294D01*
X184518606Y-139991492D01*
X184556343Y-139997468D01*
X184556343Y-139997469D01*
X184604431Y-140005085D01*
X184641325Y-140017073D01*
X184675564Y-140034519D01*
X184697948Y-140049162D01*
X184714184Y-140062491D01*
X184714187Y-140062493D01*
X184754343Y-140089343D01*
X184789808Y-140108322D01*
X184999388Y-140195284D01*
X185053765Y-140239159D01*
X185075789Y-140305466D01*
X185075405Y-140320487D01*
X184982365Y-141397617D01*
X184966285Y-141448819D01*
X184908161Y-141549768D01*
X184876027Y-141586394D01*
X184773843Y-141664537D01*
X184747560Y-141688513D01*
X184747554Y-141688519D01*
X184718638Y-141719897D01*
X184717156Y-141721523D01*
X184672512Y-141801336D01*
X184672509Y-141801341D01*
X184652826Y-141868373D01*
X184652825Y-141868378D01*
X184652825Y-141868379D01*
X184647638Y-141904457D01*
X184644500Y-141926280D01*
X184644500Y-142434257D01*
X184624815Y-142501296D01*
X184572011Y-142547051D01*
X184502853Y-142556995D01*
X184439297Y-142527970D01*
X184401523Y-142469192D01*
X184398749Y-142457765D01*
X184342749Y-142167728D01*
X184340500Y-142144220D01*
X184340500Y-141983357D01*
X184340499Y-141983355D01*
X184324806Y-141904457D01*
X184324805Y-141904456D01*
X184292455Y-141856041D01*
X184273806Y-141810658D01*
X184272007Y-141801341D01*
X183955926Y-140164277D01*
X183962544Y-140094723D01*
X184005716Y-140039787D01*
X184066165Y-140017306D01*
X184454833Y-139981074D01*
X184496589Y-139984904D01*
G37*
%TD.AperFunction*%
%TD*%
%TA.AperFunction,Conductor*%
%TO.N,/L5v*%
G36*
X141788199Y-142446556D02*
G01*
X141788379Y-142445732D01*
X141792700Y-142446670D01*
X141792714Y-142446675D01*
X141798644Y-142447527D01*
X141862198Y-142476548D01*
X141899975Y-142535324D01*
X141905000Y-142570265D01*
X141905000Y-142788016D01*
X141912043Y-142841357D01*
X141928754Y-142903528D01*
X141928757Y-142903536D01*
X141949399Y-142953206D01*
X142088436Y-143193157D01*
X142214061Y-143409963D01*
X142214992Y-143411552D01*
X142216181Y-143413560D01*
X142254231Y-143460417D01*
X142285234Y-143488802D01*
X142305764Y-143507598D01*
X142305768Y-143507601D01*
X142305771Y-143507604D01*
X142325304Y-143523405D01*
X142409734Y-143558562D01*
X142416424Y-143560503D01*
X142416376Y-143560668D01*
X142438038Y-143567201D01*
X142518502Y-143602730D01*
X142542377Y-143605500D01*
X143157622Y-143605499D01*
X143181498Y-143602730D01*
X143181498Y-143602729D01*
X143181713Y-143602705D01*
X143250574Y-143614534D01*
X143302108Y-143661715D01*
X143320000Y-143725879D01*
X143320000Y-143744120D01*
X143300315Y-143811159D01*
X143247511Y-143856914D01*
X143181711Y-143867294D01*
X143157627Y-143864500D01*
X142542384Y-143864500D01*
X142542361Y-143864502D01*
X142518504Y-143867269D01*
X142518501Y-143867269D01*
X142420864Y-143910380D01*
X142420856Y-143910386D01*
X142345386Y-143985856D01*
X142345381Y-143985863D01*
X142302270Y-144083499D01*
X142299500Y-144107375D01*
X142299500Y-144187784D01*
X142297500Y-144209967D01*
X142279597Y-144308430D01*
X142248237Y-144370866D01*
X142206098Y-144400368D01*
X141858424Y-144548129D01*
X141809219Y-144558006D01*
X140524481Y-144550707D01*
X140457554Y-144530642D01*
X140412100Y-144477579D01*
X140401191Y-144425523D01*
X140401714Y-144370866D01*
X140418839Y-142581224D01*
X140439164Y-142514379D01*
X140492403Y-142469132D01*
X140541214Y-142458425D01*
X141759382Y-142442605D01*
X141788199Y-142446556D01*
G37*
%TD.AperFunction*%
%TD*%
%TA.AperFunction,Conductor*%
%TO.N,VIN*%
G36*
X156381949Y-152269685D02*
G01*
X156427704Y-152322489D01*
X156438905Y-152375085D01*
X156401242Y-156678005D01*
X156380972Y-156744870D01*
X156327769Y-156790161D01*
X156258526Y-156799499D01*
X156240620Y-156794278D01*
X156240501Y-156794719D01*
X156231501Y-156792270D01*
X156207623Y-156789500D01*
X155592384Y-156789500D01*
X155592361Y-156789502D01*
X155568504Y-156792269D01*
X155568501Y-156792269D01*
X155488983Y-156827381D01*
X155419705Y-156836453D01*
X155356520Y-156806630D01*
X155319489Y-156747380D01*
X155317356Y-156738517D01*
X154721662Y-153791737D01*
X155780000Y-153790000D01*
X155789506Y-152250000D01*
X155789507Y-152250000D01*
X156314910Y-152250000D01*
X156381949Y-152269685D01*
G37*
%TD.AperFunction*%
%TD*%
%TA.AperFunction,Conductor*%
%TO.N,/L1v08*%
G36*
X158471915Y-154980024D02*
G01*
X158517978Y-155032560D01*
X158529486Y-155085238D01*
X158521020Y-157151008D01*
X158501061Y-157217966D01*
X158448070Y-157263505D01*
X158397021Y-157274500D01*
X156365748Y-157274500D01*
X156323345Y-157278924D01*
X156323337Y-157278925D01*
X156270097Y-157290157D01*
X156269899Y-157289220D01*
X156229898Y-157292084D01*
X156207625Y-157289500D01*
X155592384Y-157289500D01*
X155592361Y-157289502D01*
X155559236Y-157293344D01*
X155558991Y-157291238D01*
X155501521Y-157290087D01*
X155443512Y-157251143D01*
X155415766Y-157187018D01*
X155414873Y-157174958D01*
X155414403Y-157156159D01*
X155432406Y-157088652D01*
X155484051Y-157041593D01*
X155513548Y-157031574D01*
X155515649Y-157031144D01*
X155515654Y-157031142D01*
X155515666Y-157031141D01*
X155516246Y-157030978D01*
X155516599Y-157030950D01*
X155520020Y-157030252D01*
X155520106Y-157030673D01*
X155563994Y-157027207D01*
X155568501Y-157027729D01*
X155568502Y-157027730D01*
X155592377Y-157030500D01*
X156207622Y-157030499D01*
X156231498Y-157027730D01*
X156271581Y-157010031D01*
X156305087Y-157000579D01*
X156355234Y-156993817D01*
X156379892Y-156988941D01*
X156460978Y-156946640D01*
X156489693Y-156922195D01*
X156553497Y-156893729D01*
X156560690Y-156892972D01*
X156600000Y-156890000D01*
X156807483Y-155079238D01*
X156834671Y-155014876D01*
X156892341Y-154975430D01*
X156929951Y-154969357D01*
X158404763Y-154960732D01*
X158471915Y-154980024D01*
G37*
%TD.AperFunction*%
%TD*%
%TA.AperFunction,Conductor*%
%TO.N,Net-(U5-VBUS)*%
G36*
X182648802Y-142805540D02*
G01*
X182685966Y-142841664D01*
X182709102Y-142876289D01*
X182729980Y-142942966D01*
X182730000Y-142945180D01*
X182730000Y-143048236D01*
X182718796Y-143099745D01*
X182713303Y-143111772D01*
X182713302Y-143111775D01*
X182711808Y-143122168D01*
X182706115Y-143145463D01*
X182699871Y-143163311D01*
X182697525Y-143162490D01*
X182669748Y-143213256D01*
X182608397Y-143246689D01*
X182582142Y-143249500D01*
X181893357Y-143249500D01*
X181814453Y-143265194D01*
X181812582Y-143265970D01*
X181795227Y-143269708D01*
X181795433Y-143270397D01*
X181780000Y-143275000D01*
X181635053Y-143363491D01*
X181834434Y-142794426D01*
X182581560Y-142786562D01*
X182648802Y-142805540D01*
G37*
%TD.AperFunction*%
%TD*%
%TA.AperFunction,Conductor*%
%TO.N,/L1v*%
G36*
X142378559Y-123026545D02*
G01*
X142426272Y-123077586D01*
X142439500Y-123133313D01*
X142439500Y-123667615D01*
X142439502Y-123667638D01*
X142442269Y-123691495D01*
X142442269Y-123691496D01*
X142467946Y-123749650D01*
X142475405Y-123772157D01*
X142489588Y-123834332D01*
X142519904Y-123897304D01*
X142532161Y-123919224D01*
X142532162Y-123919225D01*
X142532163Y-123919226D01*
X142597480Y-123983241D01*
X142597482Y-123983242D01*
X142597486Y-123983245D01*
X142657001Y-124019811D01*
X142657011Y-124019817D01*
X142710700Y-124043034D01*
X143135463Y-124158458D01*
X143180304Y-124181208D01*
X143326816Y-124298160D01*
X143366930Y-124355367D01*
X143371334Y-124372219D01*
X143461821Y-124854816D01*
X143463925Y-124879904D01*
X143460688Y-125059310D01*
X143460656Y-125062983D01*
X143460656Y-125067393D01*
X143470044Y-125128787D01*
X143470046Y-125128793D01*
X143490925Y-125195470D01*
X143492856Y-125199507D01*
X143505000Y-125253024D01*
X143505000Y-126391186D01*
X143489405Y-126450091D01*
X143489707Y-126450236D01*
X143488946Y-126451825D01*
X143488757Y-126452541D01*
X143487798Y-126454223D01*
X143462557Y-126506975D01*
X143453209Y-126536817D01*
X143414384Y-126594906D01*
X143350317Y-126622784D01*
X143330476Y-126623671D01*
X142141908Y-126581437D01*
X142091115Y-126568553D01*
X142046020Y-126546136D01*
X142046008Y-126546131D01*
X141990469Y-126527816D01*
X141932858Y-126517586D01*
X141870293Y-126486483D01*
X141834476Y-126426492D01*
X141830755Y-126388179D01*
X141843459Y-126173415D01*
X141864156Y-126111829D01*
X141907495Y-126047001D01*
X141932428Y-125981731D01*
X141945312Y-125924679D01*
X142109831Y-123854463D01*
X142131145Y-123794207D01*
X142134611Y-123789145D01*
X142134616Y-123789141D01*
X142177730Y-123691498D01*
X142180500Y-123667623D01*
X142180499Y-123133727D01*
X142200183Y-123066689D01*
X142252987Y-123020934D01*
X142299815Y-123009818D01*
X142310832Y-123009402D01*
X142378559Y-123026545D01*
G37*
%TD.AperFunction*%
%TD*%
%TA.AperFunction,Conductor*%
%TO.N,1V35*%
G36*
X184090558Y-120836927D02*
G01*
X184122461Y-120854542D01*
X185560218Y-121952001D01*
X185601564Y-122008325D01*
X185608964Y-122052617D01*
X185592016Y-123078049D01*
X185571226Y-123144754D01*
X185517673Y-123189630D01*
X185468033Y-123200000D01*
X184044000Y-123200000D01*
X183976961Y-123180315D01*
X183931206Y-123127511D01*
X183920000Y-123076000D01*
X183920000Y-120956333D01*
X183939685Y-120889294D01*
X183956319Y-120868652D01*
X183959543Y-120865428D01*
X184020866Y-120831943D01*
X184090558Y-120836927D01*
G37*
%TD.AperFunction*%
%TD*%
%TA.AperFunction,Conductor*%
%TO.N,GND*%
G36*
X171815304Y-151380690D02*
G01*
X171850731Y-151395364D01*
X171875197Y-151405499D01*
X171875198Y-151405499D01*
X171875200Y-151405500D01*
X172748162Y-151405500D01*
X172815201Y-151425185D01*
X172860956Y-151477989D01*
X172872152Y-151527910D01*
X172920000Y-155259999D01*
X172920000Y-155260000D01*
X173364284Y-155252205D01*
X173431657Y-155270711D01*
X173478331Y-155322704D01*
X173490457Y-155375735D01*
X173499547Y-157875549D01*
X173480107Y-157942660D01*
X173427469Y-157988606D01*
X173375548Y-158000000D01*
X171340553Y-158000000D01*
X171273514Y-157980315D01*
X171252872Y-157963681D01*
X171133756Y-157844565D01*
X171118335Y-157825775D01*
X171022728Y-157682689D01*
X171011272Y-157661258D01*
X171003959Y-157643603D01*
X170994531Y-157597840D01*
X170911691Y-151504408D01*
X170930463Y-151437109D01*
X170982640Y-151390640D01*
X171034412Y-151378730D01*
X171766594Y-151371259D01*
X171815304Y-151380690D01*
G37*
%TD.AperFunction*%
%TD*%
%TA.AperFunction,Conductor*%
%TO.N,VIN*%
G36*
X188665039Y-131337685D02*
G01*
X188710794Y-131390489D01*
X188722000Y-131442000D01*
X188722000Y-139127795D01*
X188702315Y-139194834D01*
X188701101Y-139196687D01*
X188681665Y-139225774D01*
X188666245Y-139244563D01*
X188544566Y-139366242D01*
X188525775Y-139381663D01*
X188458511Y-139426607D01*
X188391834Y-139447485D01*
X188390184Y-139447504D01*
X187840000Y-139450000D01*
X187739999Y-139749999D01*
X187739999Y-139750000D01*
X187808259Y-144635439D01*
X187789513Y-144702747D01*
X187737353Y-144749235D01*
X187685432Y-144761166D01*
X186723400Y-144770173D01*
X186697987Y-144765239D01*
X186697522Y-144767577D01*
X186606643Y-144749500D01*
X186606640Y-144749500D01*
X185924499Y-144749500D01*
X185857460Y-144729815D01*
X185811705Y-144677011D01*
X185800499Y-144625500D01*
X185800499Y-144381098D01*
X185801761Y-144363450D01*
X185801869Y-144362693D01*
X185805133Y-144340000D01*
X185801761Y-144316548D01*
X185800499Y-144298901D01*
X185800499Y-144079000D01*
X185820184Y-144011961D01*
X185872988Y-143966206D01*
X185924499Y-143955000D01*
X186288043Y-143955000D01*
X186288046Y-143955000D01*
X186299013Y-143954707D01*
X186312223Y-143954001D01*
X186323149Y-143953124D01*
X186527713Y-143931206D01*
X186540923Y-143930500D01*
X186606642Y-143930500D01*
X186685661Y-143914782D01*
X186696626Y-143913106D01*
X186758876Y-143906438D01*
X186793275Y-143899748D01*
X186833799Y-143888206D01*
X186835283Y-143887777D01*
X186915128Y-143843179D01*
X186967016Y-143796388D01*
X186984620Y-143778443D01*
X187027678Y-143697758D01*
X187046032Y-143630342D01*
X187053209Y-143572291D01*
X187038393Y-142824061D01*
X187038293Y-142820536D01*
X187038136Y-142816290D01*
X187026535Y-142755415D01*
X187003256Y-142689537D01*
X186993446Y-142666392D01*
X186935480Y-142595652D01*
X186880280Y-142552818D01*
X186859518Y-142538653D01*
X186859516Y-142538652D01*
X186852193Y-142533656D01*
X186852986Y-142532492D01*
X186808413Y-142491663D01*
X186791354Y-142441730D01*
X186790901Y-142437812D01*
X186790095Y-142422116D01*
X186852926Y-137220000D01*
X186866214Y-136119775D01*
X188080000Y-136110000D01*
X188060000Y-132780000D01*
X186436000Y-132789111D01*
X186436000Y-131318000D01*
X186783259Y-131318000D01*
X188598000Y-131318000D01*
X188665039Y-131337685D01*
G37*
%TD.AperFunction*%
%TD*%
%TA.AperFunction,Conductor*%
%TO.N,5V*%
G36*
X143210159Y-144125184D02*
G01*
X143255914Y-144177988D01*
X143266229Y-144214662D01*
X143615593Y-147113435D01*
X143604072Y-147182348D01*
X143603733Y-147183041D01*
X141735454Y-150977982D01*
X141688183Y-151029433D01*
X141620600Y-151047161D01*
X141619779Y-151047134D01*
X140140368Y-150994298D01*
X140074074Y-150972233D01*
X140030233Y-150917830D01*
X140020797Y-150869559D01*
X140029824Y-149506478D01*
X140040975Y-149455905D01*
X140900000Y-147570000D01*
X140851770Y-145283907D01*
X140870036Y-145216469D01*
X140921863Y-145169610D01*
X140927220Y-145167181D01*
X142450000Y-144520000D01*
X142506851Y-144207314D01*
X142538209Y-144144881D01*
X142598346Y-144109309D01*
X142628843Y-144105499D01*
X143143120Y-144105499D01*
X143210159Y-144125184D01*
G37*
%TD.AperFunction*%
%TD*%
%TA.AperFunction,Conductor*%
%TO.N,GND*%
G36*
X187622761Y-148499685D02*
G01*
X187668516Y-148552489D01*
X187679722Y-148604277D01*
X187670583Y-152689138D01*
X187650748Y-152756134D01*
X187634264Y-152776542D01*
X187544562Y-152866244D01*
X187525772Y-152881665D01*
X187451612Y-152931217D01*
X187384934Y-152952095D01*
X187383636Y-152952112D01*
X185085922Y-152969070D01*
X185018739Y-152949880D01*
X184972596Y-152897416D01*
X184961011Y-152844077D01*
X184979446Y-150548885D01*
X184999668Y-150482009D01*
X185038780Y-150444078D01*
X186060000Y-149820000D01*
X186114696Y-148598452D01*
X186137360Y-148532361D01*
X186192158Y-148489014D01*
X186238572Y-148480000D01*
X187555722Y-148480000D01*
X187622761Y-148499685D01*
G37*
%TD.AperFunction*%
%TD*%
%TA.AperFunction,Conductor*%
%TO.N,GND*%
G36*
X187836021Y-105129032D02*
G01*
X187882536Y-105181167D01*
X187894500Y-105234308D01*
X187894500Y-105451851D01*
X187895023Y-105466511D01*
X187896287Y-105484171D01*
X187896564Y-105486745D01*
X187896563Y-105513248D01*
X187896285Y-105515829D01*
X187895023Y-105533483D01*
X187894500Y-105548142D01*
X187894500Y-106151851D01*
X187895023Y-106166511D01*
X187896287Y-106184171D01*
X187896564Y-106186745D01*
X187896563Y-106213248D01*
X187896285Y-106215829D01*
X187895023Y-106233483D01*
X187894500Y-106248142D01*
X187894500Y-107576000D01*
X187874815Y-107643039D01*
X187822011Y-107688794D01*
X187770500Y-107700000D01*
X186224000Y-107700000D01*
X186156961Y-107680315D01*
X186111206Y-107627511D01*
X186100000Y-107576000D01*
X186100000Y-105256720D01*
X186119685Y-105189681D01*
X186172489Y-105143926D01*
X186222196Y-105132734D01*
X187768703Y-105110321D01*
X187836021Y-105129032D01*
G37*
%TD.AperFunction*%
%TD*%
%TA.AperFunction,Conductor*%
%TO.N,1V*%
G36*
X138989670Y-124069685D02*
G01*
X139026660Y-124106518D01*
X139606708Y-125000759D01*
X139710000Y-125160000D01*
X139410000Y-126340000D01*
X139178242Y-126289751D01*
X139178242Y-126289750D01*
X139082539Y-126269001D01*
X139021193Y-126235559D01*
X139000090Y-126207441D01*
X138982957Y-126176196D01*
X138982954Y-126176193D01*
X138982954Y-126176192D01*
X138982952Y-126176190D01*
X138936582Y-126123954D01*
X138936580Y-126123952D01*
X138936573Y-126123944D01*
X138918768Y-126106202D01*
X138918765Y-126106200D01*
X138918764Y-126106199D01*
X138838425Y-126062516D01*
X138838423Y-126062515D01*
X138838422Y-126062514D01*
X138838421Y-126062514D01*
X138771152Y-126043634D01*
X138769428Y-126043407D01*
X138768789Y-126043149D01*
X138766826Y-126042747D01*
X138766889Y-126042437D01*
X138766887Y-126042437D01*
X138766896Y-126042403D01*
X138766899Y-126042387D01*
X138711995Y-126020242D01*
X138707883Y-126017207D01*
X138579696Y-125972353D01*
X138549270Y-125969500D01*
X138549266Y-125969500D01*
X137714450Y-125969500D01*
X137688176Y-125966684D01*
X137571925Y-125941479D01*
X137244978Y-125870592D01*
X137183632Y-125837150D01*
X137150105Y-125775850D01*
X137147301Y-125752851D01*
X137130833Y-125160000D01*
X137109388Y-124388024D01*
X137127203Y-124320467D01*
X137130230Y-124315704D01*
X137178178Y-124243929D01*
X137193576Y-124225162D01*
X137315231Y-124103470D01*
X137334005Y-124088059D01*
X137359663Y-124070909D01*
X137426337Y-124050020D01*
X137428570Y-124050000D01*
X138922631Y-124050000D01*
X138989670Y-124069685D01*
G37*
%TD.AperFunction*%
%TD*%
%TA.AperFunction,Conductor*%
%TO.N,VIN*%
G36*
X184589147Y-124427340D02*
G01*
X184599296Y-124435033D01*
X184600000Y-124435739D01*
X184600000Y-125590000D01*
X184434365Y-125649736D01*
X183379999Y-126030000D01*
X183090233Y-126454724D01*
X183061438Y-126484608D01*
X183002850Y-126527850D01*
X182922206Y-126637118D01*
X182904376Y-126688074D01*
X182863653Y-126744850D01*
X182825676Y-126765041D01*
X180877277Y-127398537D01*
X180842744Y-127413379D01*
X180842742Y-127413380D01*
X180803060Y-127434928D01*
X180803023Y-127434948D01*
X180802978Y-127434973D01*
X180799488Y-127436913D01*
X180799480Y-127436918D01*
X180732055Y-127498703D01*
X180692344Y-127556178D01*
X180679339Y-127577707D01*
X180656023Y-127666134D01*
X180656022Y-127666142D01*
X180653688Y-127735964D01*
X180660071Y-127794097D01*
X180660074Y-127794111D01*
X180742782Y-128115098D01*
X180745177Y-128165439D01*
X180670000Y-128639999D01*
X180670000Y-128640000D01*
X180867864Y-128752221D01*
X180916466Y-128802417D01*
X180926768Y-128829141D01*
X181076308Y-129409497D01*
X181277809Y-130191514D01*
X181336078Y-130417650D01*
X181340000Y-130448590D01*
X181340000Y-131099998D01*
X181340000Y-131100000D01*
X181729894Y-131091960D01*
X181750076Y-131093196D01*
X181766099Y-131095500D01*
X181766100Y-131095500D01*
X183060226Y-131095500D01*
X183100421Y-131091531D01*
X183147992Y-131082043D01*
X183154753Y-131080576D01*
X183168577Y-131073813D01*
X183220508Y-131061226D01*
X183280000Y-131060000D01*
X183280150Y-131055747D01*
X183302199Y-130989450D01*
X183308243Y-130981451D01*
X183309811Y-130979539D01*
X183309820Y-130979532D01*
X183357206Y-130901309D01*
X183379202Y-130834992D01*
X183389528Y-130777421D01*
X183433146Y-129519703D01*
X183455141Y-129453394D01*
X183509499Y-129409497D01*
X183578960Y-129401956D01*
X183581261Y-129402392D01*
X183747705Y-129435499D01*
X183747709Y-129435500D01*
X183747710Y-129435500D01*
X183941576Y-129435500D01*
X183941596Y-129435501D01*
X183947710Y-129435501D01*
X184112292Y-129435501D01*
X184112293Y-129435500D01*
X184273707Y-129403393D01*
X184425759Y-129340411D01*
X184463270Y-129315346D01*
X184524288Y-129294698D01*
X186444745Y-129172588D01*
X186512893Y-129187978D01*
X186561906Y-129237772D01*
X186576218Y-129306160D01*
X186575346Y-129313983D01*
X186554353Y-129459999D01*
X186574835Y-129602457D01*
X186574835Y-129602459D01*
X186580571Y-129615019D01*
X186591774Y-129667181D01*
X186590225Y-129961365D01*
X186588965Y-129978357D01*
X186574353Y-130079998D01*
X186574353Y-130080001D01*
X186587754Y-130173216D01*
X186589014Y-130191514D01*
X186585154Y-130924908D01*
X186589622Y-130968631D01*
X186600560Y-131020212D01*
X186602992Y-131030394D01*
X186645576Y-131111326D01*
X186645581Y-131111333D01*
X186691045Y-131164361D01*
X186691055Y-131164371D01*
X186708555Y-131182421D01*
X186720512Y-131189191D01*
X186769150Y-131239350D01*
X186783412Y-131298051D01*
X186783258Y-131317999D01*
X186783259Y-131318000D01*
X186436000Y-131318000D01*
X186436000Y-132789110D01*
X179188806Y-132829771D01*
X178757978Y-127185919D01*
X178764599Y-127135470D01*
X178904922Y-126735187D01*
X178934252Y-126688540D01*
X179167860Y-126454933D01*
X179167865Y-126454929D01*
X179178068Y-126444725D01*
X179178070Y-126444725D01*
X179262691Y-126360104D01*
X179319908Y-126261002D01*
X179322528Y-126256464D01*
X179353501Y-126140870D01*
X179353501Y-126021198D01*
X179353501Y-126013603D01*
X179353500Y-126013585D01*
X179353500Y-125476697D01*
X179360479Y-125435683D01*
X179362514Y-125429877D01*
X179403266Y-125373125D01*
X179428080Y-125358076D01*
X180808000Y-124728867D01*
X180859444Y-124717693D01*
X180986643Y-124717693D01*
X180986644Y-124717693D01*
X181077806Y-124693265D01*
X181077809Y-124693265D01*
X181091913Y-124689485D01*
X181102239Y-124686719D01*
X181205878Y-124626883D01*
X181290499Y-124542262D01*
X181290499Y-124542260D01*
X181300706Y-124532054D01*
X181300707Y-124532051D01*
X181336049Y-124496709D01*
X181372277Y-124471571D01*
X182560000Y-123930000D01*
X184589147Y-124427340D01*
G37*
%TD.AperFunction*%
%TD*%
%TA.AperFunction,Conductor*%
%TO.N,GND*%
G36*
X188643039Y-124719685D02*
G01*
X188688794Y-124772489D01*
X188700000Y-124824000D01*
X188700000Y-126169301D01*
X188680315Y-126236340D01*
X188627511Y-126282095D01*
X188569482Y-126293130D01*
X188470102Y-126287899D01*
X188420325Y-126274555D01*
X188400302Y-126264353D01*
X188306524Y-126249500D01*
X187743785Y-126249500D01*
X187737268Y-126249329D01*
X186912176Y-126205903D01*
X186846263Y-126182722D01*
X186831012Y-126169755D01*
X186749143Y-126087886D01*
X186749141Y-126087884D01*
X186717056Y-126073717D01*
X186660653Y-126048812D01*
X186623059Y-126023059D01*
X186336319Y-125736319D01*
X186302834Y-125674996D01*
X186300000Y-125648638D01*
X186300000Y-125595973D01*
X186319685Y-125528934D01*
X186321704Y-125525891D01*
X186324612Y-125521644D01*
X186324616Y-125521641D01*
X186367730Y-125423998D01*
X186370500Y-125400123D01*
X186370499Y-124823999D01*
X186390183Y-124756961D01*
X186442987Y-124711206D01*
X186494499Y-124700000D01*
X188576000Y-124700000D01*
X188643039Y-124719685D01*
G37*
%TD.AperFunction*%
%TD*%
%TA.AperFunction,Conductor*%
%TO.N,GND*%
G36*
X143618339Y-141245185D02*
G01*
X143664094Y-141297989D01*
X143675231Y-141345370D01*
X143677773Y-141421643D01*
X143675921Y-141447513D01*
X143350616Y-143274229D01*
X143319483Y-143336779D01*
X143259475Y-143372567D01*
X143189644Y-143370232D01*
X143183029Y-143367686D01*
X143181501Y-143367270D01*
X143157623Y-143364500D01*
X142542384Y-143364500D01*
X142542374Y-143364501D01*
X142513395Y-143367862D01*
X142444535Y-143356030D01*
X142393002Y-143308848D01*
X142391846Y-143306896D01*
X142266243Y-143090129D01*
X142127210Y-142850184D01*
X142110500Y-142788016D01*
X142110500Y-142430249D01*
X142110499Y-142430247D01*
X142098868Y-142371770D01*
X142098867Y-142371769D01*
X142054552Y-142305447D01*
X141988230Y-142261132D01*
X141988229Y-142261131D01*
X141929752Y-142249500D01*
X141929748Y-142249500D01*
X141850612Y-142249500D01*
X141783573Y-142229815D01*
X141743322Y-142187668D01*
X141305441Y-141431971D01*
X141288862Y-141364097D01*
X141311611Y-141298034D01*
X141366465Y-141254758D01*
X141410265Y-141245828D01*
X142433590Y-141225523D01*
X142436050Y-141225500D01*
X143551300Y-141225500D01*
X143618339Y-141245185D01*
G37*
%TD.AperFunction*%
%TD*%
%TA.AperFunction,Conductor*%
%TO.N,VIN*%
G36*
X185052055Y-124437415D02*
G01*
X185086509Y-124442433D01*
X185148039Y-124460500D01*
X185148040Y-124460500D01*
X185291962Y-124460500D01*
X185303002Y-124457257D01*
X185349290Y-124443666D01*
X185384666Y-124438646D01*
X185600398Y-124439445D01*
X185667361Y-124459378D01*
X185712920Y-124512351D01*
X185722607Y-124581546D01*
X185693346Y-124644994D01*
X185687621Y-124651121D01*
X185675386Y-124663356D01*
X185675381Y-124663363D01*
X185632270Y-124760999D01*
X185629500Y-124784875D01*
X185629500Y-125400115D01*
X185629502Y-125400138D01*
X185632269Y-125423995D01*
X185651356Y-125467223D01*
X185660428Y-125536502D01*
X185630605Y-125599687D01*
X185571355Y-125636718D01*
X185538868Y-125641306D01*
X184434368Y-125649735D01*
X184600000Y-125590000D01*
X184600000Y-124435740D01*
X185052055Y-124437415D01*
G37*
%TD.AperFunction*%
%TD*%
%TA.AperFunction,Conductor*%
%TO.N,GND*%
G36*
X159004618Y-157499685D02*
G01*
X159050373Y-157552489D01*
X159061569Y-157602410D01*
X159068403Y-158135451D01*
X159049579Y-158202738D01*
X158997366Y-158249166D01*
X158945446Y-158261037D01*
X155595033Y-158288958D01*
X155527832Y-158269832D01*
X155481639Y-158217412D01*
X155470000Y-158164962D01*
X155470000Y-157654499D01*
X155489685Y-157587460D01*
X155542489Y-157541705D01*
X155593995Y-157530499D01*
X156207622Y-157530499D01*
X156231498Y-157527730D01*
X156284364Y-157504386D01*
X156315667Y-157490566D01*
X156365753Y-157480000D01*
X158937579Y-157480000D01*
X159004618Y-157499685D01*
G37*
%TD.AperFunction*%
%TD*%
%TA.AperFunction,Conductor*%
%TO.N,GND*%
G36*
X141874709Y-123046743D02*
G01*
X141924213Y-123096050D01*
X141939500Y-123155694D01*
X141939500Y-123398868D01*
X141939110Y-123408691D01*
X141740458Y-125908399D01*
X141715525Y-125973669D01*
X141659262Y-126015097D01*
X141599312Y-126021330D01*
X141136464Y-125955209D01*
X141072882Y-125926241D01*
X141035054Y-125867497D01*
X141030000Y-125832455D01*
X141030000Y-124890000D01*
X139834427Y-124873041D01*
X139767674Y-124852407D01*
X139732155Y-124816532D01*
X139657762Y-124701842D01*
X139637794Y-124634887D01*
X139638130Y-124625232D01*
X139654280Y-124407212D01*
X139678863Y-124341812D01*
X139731887Y-124301244D01*
X141110000Y-123750000D01*
X141267380Y-123155450D01*
X141303564Y-123095682D01*
X141366318Y-123064963D01*
X141378141Y-123063518D01*
X141806410Y-123032028D01*
X141874709Y-123046743D01*
G37*
%TD.AperFunction*%
%TD*%
%TA.AperFunction,Conductor*%
%TO.N,3V*%
G36*
X188440186Y-103619685D02*
G01*
X188442163Y-103620981D01*
X188543773Y-103689053D01*
X188562574Y-103704527D01*
X188684335Y-103826676D01*
X188699746Y-103845523D01*
X188779239Y-103965007D01*
X188799984Y-104031725D01*
X188800000Y-104033692D01*
X188800000Y-111676000D01*
X188780315Y-111743039D01*
X188727511Y-111788794D01*
X188676000Y-111800000D01*
X186324000Y-111800000D01*
X186256961Y-111780315D01*
X186211206Y-111727511D01*
X186200000Y-111676000D01*
X186200000Y-108924000D01*
X186219685Y-108856961D01*
X186272489Y-108811206D01*
X186324000Y-108800000D01*
X188100000Y-108800000D01*
X188100000Y-106248145D01*
X188101262Y-106230498D01*
X188105647Y-106200000D01*
X188101262Y-106169500D01*
X188100000Y-106151854D01*
X188100000Y-105548145D01*
X188101262Y-105530498D01*
X188105647Y-105500000D01*
X188101262Y-105469500D01*
X188100000Y-105451854D01*
X188100000Y-104900000D01*
X188099999Y-104899999D01*
X181325797Y-104998176D01*
X181258479Y-104979465D01*
X181211964Y-104927330D01*
X181200000Y-104874189D01*
X181200000Y-103724000D01*
X181219685Y-103656961D01*
X181272489Y-103611206D01*
X181324000Y-103600000D01*
X188373147Y-103600000D01*
X188440186Y-103619685D01*
G37*
%TD.AperFunction*%
%TD*%
%TA.AperFunction,Conductor*%
%TO.N,GND*%
G36*
X144895689Y-103814056D02*
G01*
X144962156Y-103834927D01*
X145018274Y-103872423D01*
X145037054Y-103887836D01*
X145097897Y-103948677D01*
X145158740Y-104009519D01*
X145174158Y-104028306D01*
X145191253Y-104053888D01*
X145212134Y-104120564D01*
X145212151Y-104121899D01*
X145339129Y-121937844D01*
X145319923Y-122005022D01*
X145267446Y-122051152D01*
X145217872Y-122062698D01*
X144724134Y-122073609D01*
X144656676Y-122055410D01*
X144633713Y-122037320D01*
X144568347Y-121971954D01*
X144568344Y-121971952D01*
X144568342Y-121971950D01*
X144455304Y-121914354D01*
X144455303Y-121914353D01*
X144455300Y-121914352D01*
X144330003Y-121894508D01*
X144329997Y-121894508D01*
X144204699Y-121914352D01*
X144204698Y-121914352D01*
X144158594Y-121937844D01*
X144091658Y-121971950D01*
X144091657Y-121971950D01*
X144091653Y-121971953D01*
X144086329Y-121975821D01*
X144020522Y-121999298D01*
X144013448Y-121999500D01*
X143632541Y-121999500D01*
X143565502Y-121979815D01*
X143519747Y-121927011D01*
X143509135Y-121887624D01*
X143503519Y-121830461D01*
X142970000Y-116400000D01*
X142969999Y-116400000D01*
X141464000Y-116400000D01*
X141396961Y-116380315D01*
X141351206Y-116327511D01*
X141340000Y-116276000D01*
X141340000Y-110060000D01*
X141339999Y-110060000D01*
X140043998Y-110083530D01*
X139563164Y-110092261D01*
X139445960Y-110094389D01*
X139443709Y-110094409D01*
X134465326Y-110094409D01*
X134462287Y-110094372D01*
X134459480Y-110094303D01*
X134376224Y-110092261D01*
X134355075Y-110089916D01*
X134274498Y-110073889D01*
X134212587Y-110041504D01*
X134178012Y-109980789D01*
X134174719Y-109955063D01*
X134161495Y-109366542D01*
X134175000Y-109316410D01*
X134175000Y-109299543D01*
X140080000Y-109120000D01*
X140080000Y-103846445D01*
X140099685Y-103779406D01*
X140152489Y-103733651D01*
X140206420Y-103722469D01*
X144895689Y-103814056D01*
G37*
%TD.AperFunction*%
%TD*%
%TA.AperFunction,Conductor*%
%TO.N,GND*%
G36*
X145196874Y-135526408D02*
G01*
X145263253Y-135548210D01*
X145307309Y-135602439D01*
X145316718Y-135642986D01*
X145522226Y-139099270D01*
X145506556Y-139167360D01*
X145456560Y-139216168D01*
X145399041Y-139230629D01*
X143615068Y-139239206D01*
X143615067Y-139239206D01*
X143450000Y-139240000D01*
X143421026Y-135599015D01*
X143440176Y-135531824D01*
X143492615Y-135485650D01*
X143548953Y-135474093D01*
X145196874Y-135526408D01*
G37*
%TD.AperFunction*%
%TD*%
%TA.AperFunction,Conductor*%
%TO.N,VIN*%
G36*
X185909880Y-114704940D02*
G01*
X186760956Y-115130478D01*
X186812113Y-115178064D01*
X186829500Y-115241386D01*
X186829500Y-115757615D01*
X186829502Y-115757638D01*
X186832269Y-115781495D01*
X186832269Y-115781498D01*
X186875381Y-115879137D01*
X186878296Y-115883391D01*
X186899946Y-115949822D01*
X186900000Y-115953473D01*
X186900000Y-115984541D01*
X186880315Y-116051580D01*
X186827511Y-116097335D01*
X186784835Y-116108226D01*
X185964124Y-116166846D01*
X185900046Y-114701073D01*
X185909880Y-114704940D01*
G37*
%TD.AperFunction*%
%TD*%
%TA.AperFunction,Conductor*%
%TO.N,GND*%
G36*
X160207717Y-152219685D02*
G01*
X160253472Y-152272489D01*
X160264586Y-152319235D01*
X160269634Y-152450507D01*
X160268915Y-152469432D01*
X160082665Y-154089813D01*
X160055454Y-154154166D01*
X159997771Y-154193592D01*
X159959087Y-154199652D01*
X157006120Y-154190395D01*
X156939143Y-154170501D01*
X156893554Y-154117554D01*
X156882534Y-154063906D01*
X156904059Y-152993056D01*
X156917558Y-152321508D01*
X156938586Y-152254878D01*
X156992299Y-152210193D01*
X157041533Y-152200000D01*
X160140678Y-152200000D01*
X160207717Y-152219685D01*
G37*
%TD.AperFunction*%
%TD*%
%TA.AperFunction,Conductor*%
%TO.N,GND*%
G36*
X186754297Y-142715171D02*
G01*
X186809497Y-142758005D01*
X186832776Y-142823883D01*
X186832933Y-142828129D01*
X186847749Y-143576359D01*
X186829395Y-143643775D01*
X186777507Y-143690566D01*
X186736983Y-143702108D01*
X186301256Y-143748794D01*
X186288046Y-143749500D01*
X185843357Y-143749500D01*
X185764458Y-143765193D01*
X185764458Y-143765194D01*
X185764456Y-143765194D01*
X185764456Y-143765195D01*
X185733040Y-143786186D01*
X185716532Y-143797217D01*
X185660852Y-143817408D01*
X185170000Y-143870000D01*
X185169998Y-143870001D01*
X183821074Y-144898986D01*
X183821074Y-144898987D01*
X183610000Y-145060000D01*
X183567813Y-144901799D01*
X183569687Y-144899332D01*
X183562269Y-144881012D01*
X183204054Y-143537702D01*
X183205800Y-143467855D01*
X183245032Y-143410040D01*
X183299610Y-143384148D01*
X185313997Y-142982371D01*
X185362437Y-142982360D01*
X185391651Y-142988170D01*
X185403359Y-142990500D01*
X185403360Y-142990500D01*
X185596642Y-142990500D01*
X185596643Y-142990499D01*
X185675544Y-142974805D01*
X185765019Y-142915019D01*
X185765021Y-142915015D01*
X185766678Y-142913359D01*
X185771190Y-142910894D01*
X185775174Y-142908233D01*
X185775412Y-142908589D01*
X185827999Y-142879871D01*
X185829997Y-142879453D01*
X186684706Y-142708979D01*
X186754297Y-142715171D01*
G37*
%TD.AperFunction*%
%TD*%
%TA.AperFunction,Conductor*%
%TO.N,GND*%
G36*
X143435356Y-137399818D02*
G01*
X143450000Y-139240000D01*
X143615068Y-139239206D01*
X143611989Y-139242429D01*
X143597813Y-139299172D01*
X143546919Y-139347041D01*
X143491275Y-139360439D01*
X137884423Y-139379575D01*
X137817317Y-139360120D01*
X137771382Y-139307472D01*
X137760000Y-139255576D01*
X137760000Y-137516213D01*
X137779685Y-137449174D01*
X137832489Y-137403419D01*
X137836448Y-137401693D01*
X137841245Y-137399701D01*
X137889005Y-137390222D01*
X143435356Y-137399818D01*
G37*
%TD.AperFunction*%
%TD*%
%TA.AperFunction,Conductor*%
%TO.N,GND*%
G36*
X185987404Y-116761304D02*
G01*
X186034504Y-116812912D01*
X186047042Y-116870129D01*
X186031096Y-117571755D01*
X186009893Y-117638330D01*
X185996580Y-117654812D01*
X185550000Y-118119999D01*
X185513372Y-119438596D01*
X185491834Y-119505063D01*
X185437780Y-119549334D01*
X185388553Y-119559150D01*
X184204478Y-119550870D01*
X184137578Y-119530717D01*
X184092193Y-119477594D01*
X184081352Y-119425529D01*
X184108700Y-116909528D01*
X184129112Y-116842710D01*
X184182411Y-116797531D01*
X184229497Y-116786920D01*
X185919881Y-116743353D01*
X185987404Y-116761304D01*
G37*
%TD.AperFunction*%
%TD*%
%TA.AperFunction,Conductor*%
%TO.N,VIN*%
G36*
X143494975Y-135195630D02*
G01*
X143493823Y-135194212D01*
X143484216Y-135144077D01*
X143496699Y-134452360D01*
X143494975Y-135195630D01*
G37*
%TD.AperFunction*%
%TA.AperFunction,Conductor*%
G36*
X145122267Y-122840354D02*
G01*
X145168630Y-122892625D01*
X145180439Y-122945003D01*
X145193414Y-126635055D01*
X145215865Y-133020373D01*
X145215866Y-133020372D01*
X145215866Y-133020373D01*
X143522372Y-133029874D01*
X143637784Y-126635051D01*
X143658662Y-126568401D01*
X143698867Y-126508231D01*
X143698868Y-126508229D01*
X143710499Y-126449752D01*
X143710500Y-126449750D01*
X143710500Y-125210249D01*
X143710499Y-125210247D01*
X143698868Y-125151770D01*
X143698867Y-125151768D01*
X143687035Y-125134061D01*
X143666156Y-125067384D01*
X143666156Y-125062992D01*
X143670000Y-124850000D01*
X143520000Y-124050000D01*
X142764588Y-123844725D01*
X142705057Y-123808149D01*
X142674750Y-123745195D01*
X142677029Y-123700804D01*
X142676655Y-123700761D01*
X142677329Y-123694945D01*
X142677455Y-123692507D01*
X142677726Y-123691507D01*
X142677730Y-123691498D01*
X142680500Y-123667623D01*
X142680499Y-123052378D01*
X142677730Y-123028502D01*
X142674769Y-123021798D01*
X142665698Y-122952521D01*
X142695521Y-122889336D01*
X142754770Y-122852305D01*
X142786761Y-122847720D01*
X145055006Y-122821447D01*
X145122267Y-122840354D01*
G37*
%TD.AperFunction*%
%TD*%
%TA.AperFunction,Conductor*%
%TO.N,GND*%
G36*
X145276895Y-144989424D02*
G01*
X145282834Y-144993403D01*
X145762473Y-145335273D01*
X145805638Y-145390213D01*
X145814500Y-145436247D01*
X145814500Y-145526517D01*
X145825292Y-145594657D01*
X145829354Y-145620304D01*
X145886950Y-145733342D01*
X145886952Y-145733344D01*
X145886954Y-145733347D01*
X145976652Y-145823045D01*
X145976654Y-145823046D01*
X145976658Y-145823050D01*
X146089696Y-145880646D01*
X146089698Y-145880647D01*
X146183475Y-145895499D01*
X146183481Y-145895500D01*
X146508793Y-145895499D01*
X146575831Y-145915183D01*
X146580756Y-145918517D01*
X147074869Y-146270704D01*
X147118034Y-146325644D01*
X147126753Y-146377624D01*
X147075916Y-147436720D01*
X147053040Y-147502739D01*
X146998103Y-147545909D01*
X146946694Y-147554659D01*
X144634628Y-147454531D01*
X144568503Y-147431964D01*
X144525076Y-147377230D01*
X144516959Y-147346092D01*
X144237330Y-145118082D01*
X144248513Y-145049115D01*
X144295208Y-144997140D01*
X144359157Y-144978648D01*
X145209668Y-144970391D01*
X145276895Y-144989424D01*
G37*
%TD.AperFunction*%
%TD*%
%TA.AperFunction,Conductor*%
%TO.N,GND*%
G36*
X188743039Y-115119685D02*
G01*
X188788794Y-115172489D01*
X188800000Y-115224000D01*
X188800000Y-117276000D01*
X188780315Y-117343039D01*
X188727511Y-117388794D01*
X188676000Y-117400000D01*
X188324000Y-117400000D01*
X188256961Y-117380315D01*
X188211206Y-117327511D01*
X188200000Y-117276000D01*
X188200000Y-116400000D01*
X187839105Y-116400000D01*
X187831214Y-116399543D01*
X187831205Y-116399707D01*
X187827624Y-116399500D01*
X187827623Y-116399500D01*
X187827621Y-116399500D01*
X187724000Y-116399500D01*
X187656961Y-116379815D01*
X187611206Y-116327011D01*
X187600000Y-116275500D01*
X187600000Y-115224000D01*
X187619685Y-115156961D01*
X187672489Y-115111206D01*
X187724000Y-115100000D01*
X188676000Y-115100000D01*
X188743039Y-115119685D01*
G37*
%TD.AperFunction*%
%TD*%
%TA.AperFunction,Conductor*%
%TO.N,Net-(C12-Pad1)*%
G36*
X186598384Y-144957382D02*
G01*
X186657426Y-144969127D01*
X186657431Y-144969128D01*
X186672872Y-144970430D01*
X186681135Y-144971579D01*
X186681152Y-144971467D01*
X186684230Y-144971905D01*
X186684233Y-144971906D01*
X186725324Y-144975664D01*
X187574235Y-144967716D01*
X187641453Y-144986771D01*
X187687700Y-145039145D01*
X187699392Y-145092123D01*
X187690419Y-147784263D01*
X187670511Y-147851237D01*
X187617555Y-147896815D01*
X187612227Y-147897916D01*
X187602201Y-147908482D01*
X187510000Y-146590000D01*
X186250000Y-146630000D01*
X185889622Y-146954930D01*
X185840762Y-146206331D01*
X185840500Y-146198259D01*
X185840500Y-145933357D01*
X185840499Y-145933355D01*
X185824807Y-145854463D01*
X185824805Y-145854460D01*
X185824805Y-145854456D01*
X185824802Y-145854452D01*
X185824329Y-145853309D01*
X185815151Y-145813928D01*
X185810159Y-145737450D01*
X185809937Y-145732516D01*
X185803185Y-145465827D01*
X185804409Y-145445032D01*
X185805133Y-145440000D01*
X185803011Y-145425249D01*
X185801791Y-145410762D01*
X185800539Y-145361290D01*
X185800499Y-145358154D01*
X185800499Y-145079000D01*
X185820184Y-145011961D01*
X185872988Y-144966206D01*
X185924499Y-144955000D01*
X186574194Y-144955000D01*
X186598384Y-144957382D01*
G37*
%TD.AperFunction*%
%TD*%
%TA.AperFunction,Conductor*%
%TO.N,GND*%
G36*
X179821894Y-122900259D02*
G01*
X179867758Y-122952969D01*
X179877844Y-123022106D01*
X179848951Y-123085722D01*
X179834174Y-123100204D01*
X177070001Y-125389999D01*
X177070000Y-125390000D01*
X177074227Y-126408919D01*
X177071891Y-126426965D01*
X177072774Y-126427082D01*
X177071714Y-126435137D01*
X177071714Y-126564802D01*
X177071715Y-126564815D01*
X177071715Y-127653320D01*
X177052030Y-127720359D01*
X176999226Y-127766114D01*
X176930068Y-127776058D01*
X176928175Y-127775771D01*
X175305196Y-127516786D01*
X175242096Y-127486783D01*
X175205234Y-127427429D01*
X175200739Y-127393479D01*
X175229958Y-123185954D01*
X175230612Y-123174082D01*
X175248516Y-123001007D01*
X175274995Y-122936351D01*
X175332227Y-122896273D01*
X175371599Y-122889769D01*
X179754814Y-122880713D01*
X179821894Y-122900259D01*
G37*
%TD.AperFunction*%
%TD*%
M02*
