M48
; DRILL file {KiCad 8.0.4} date 2024-09-13T22:37:36+0200
; FORMAT={-:-/ absolute / metric / decimal}
; #@! TF.CreationDate,2024-09-13T22:37:36+02:00
; #@! TF.GenerationSoftware,Kicad,Pcbnew,8.0.4
; #@! TF.FileFunction,Plated,1,2,PTH
FMAT,2
METRIC
; #@! TA.AperFunction,Plated,PTH,ViaDrill
T1C0.200
; #@! TA.AperFunction,Plated,PTH,ComponentDrill
T2C0.200
; #@! TA.AperFunction,Plated,PTH,ViaDrill
T3C0.300
; #@! TA.AperFunction,Plated,PTH,ViaDrill
T4C0.400
%
G90
G05
T1
X137.42Y-127.63
X137.42Y-128.19
X137.99Y-124.64
X137.99Y-127.62
X138.0Y-128.19
X138.56Y-128.19
X138.6Y-127.63
X140.97Y-124.41
X141.48Y-124.42
X141.49Y-124.89
X141.52Y-125.33
X141.865Y-119.649
X143.53Y-118.36
X143.54Y-118.94
X143.56Y-119.42
X144.03Y-118.35
X144.06Y-118.93
X144.07Y-119.43
X144.33Y-122.3
X144.51Y-118.35
X144.52Y-118.91
X144.52Y-119.4
X145.01Y-118.35
X145.01Y-119.4
X145.03Y-118.89
X151.5Y-156.08
X156.97Y-157.69
X157.43Y-157.69
X157.89Y-157.69
X158.33Y-157.7
X158.56Y-152.45
X158.59Y-152.87
X158.59Y-153.29
X158.59Y-153.74
X158.8Y-157.68
X160.25Y-157.68
T2
X183.15Y-143.24
X183.15Y-144.34
X183.15Y-145.44
X184.25Y-143.24
X184.25Y-144.34
X184.25Y-145.44
X185.35Y-143.24
X185.35Y-144.34
X185.35Y-145.44
T3
X138.13Y-138.18
X139.16Y-138.95
X139.92Y-138.95
X140.67Y-138.96
X141.4Y-138.92
X141.79Y-141.59
X142.13Y-138.87
X142.44Y-141.55
X142.5Y-142.23
X142.92Y-138.88
X143.18Y-142.26
X143.21Y-141.58
X143.82Y-139.02
X143.85Y-135.91
X143.86Y-138.33
X143.9Y-136.84
X144.49Y-138.99
X144.6Y-138.32
X144.81Y-136.84
X144.85Y-135.93
X144.94Y-145.9
X144.96Y-147.17
X145.15Y-138.86
X145.65Y-147.21
X146.49Y-146.96
X146.73Y-144.3
X147.42Y-142.95
X147.53Y-142.09
X148.73Y-149.82
X148.74Y-137.96
X149.977Y-154.736
X150.45Y-139.02
X151.012Y-154.55
X151.861Y-154.673
X152.6Y-154.73
X153.43Y-156.47
X155.26Y-135.84
X159.301Y-135.52
X171.52Y-153.25
X172.16Y-149.69
X172.38Y-153.25
X172.68Y-147.14
X172.73Y-144.56
X172.93Y-155.99
X172.93Y-156.66
X173.23Y-149.7
X173.551Y-138.189
X174.46Y-150.44
X174.965Y-141.11
X175.16Y-154.0
X175.51Y-125.34
X175.51Y-152.053
X175.76Y-123.85
X175.8Y-126.96
X175.83Y-155.08
X176.67Y-127.0
X176.9Y-123.87
X176.92Y-156.81
X177.09Y-150.69
X177.47Y-112.74
X177.72Y-141.11
X178.24Y-112.72
X178.64Y-149.13
X178.64Y-152.26
X178.67Y-137.17
X178.98Y-112.7
X179.17Y-151.65
X179.44Y-137.25
X179.47Y-148.95
X179.47Y-156.81
X179.615Y-146.48
X180.27Y-137.23
X180.45Y-148.93
X180.5Y-146.47
X180.5Y-148.04
X181.11Y-140.39
X181.13Y-137.23
X181.53Y-113.43
X181.8Y-138.04
X182.15Y-112.77
X183.8Y-127.22
X183.81Y-127.96
X183.83Y-128.6
X184.21Y-121.32
X184.35Y-118.11
X184.8Y-110.3
X184.8Y-110.9
X184.8Y-111.5
X184.8Y-121.78
X184.85Y-122.6
X185.04Y-118.12
X185.1Y-147.18
X185.22Y-123.96
X185.24Y-127.52
X185.491Y-128.389
X185.5Y-110.3
X185.5Y-110.9
X186.04Y-150.22
X186.4Y-120.2
X186.6Y-117.8
X186.73Y-150.17
X186.9Y-105.5
X186.9Y-106.2
X187.06Y-129.46
X187.08Y-130.08
X187.1Y-112.1
X187.1Y-125.1
X187.1Y-125.8
X187.1Y-130.7
X187.4Y-150.17
X187.6Y-105.5
X187.6Y-106.2
X187.8Y-119.9
X188.0Y-125.9
X188.1Y-116.0
X188.5Y-115.4
T4
X178.12Y-153.83
M30
