%TF.GenerationSoftware,KiCad,Pcbnew,8.0.4*%
%TF.CreationDate,2024-09-13T22:37:37+02:00*%
%TF.ProjectId,WiiRegStripLite,57696952-6567-4537-9472-69704c697465,rev?*%
%TF.SameCoordinates,Original*%
%TF.FileFunction,Drillmap*%
%TF.FilePolarity,Positive*%
%FSLAX45Y45*%
G04 Gerber Fmt 4.5, Leading zero omitted, Abs format (unit mm)*
G04 Created by KiCad (PCBNEW 8.0.4) date 2024-09-13 22:37:37*
%MOMM*%
%LPD*%
G01*
G04 APERTURE LIST*
%ADD10C,0.100000*%
%ADD11C,0.200000*%
G04 APERTURE END LIST*
D10*
X18308000Y-10979000D02*
X18188000Y-10979000D01*
X16161581Y-15844024D02*
X15854307Y-15844024D01*
X13788000Y-12387000D02*
X13696000Y-12387000D01*
X14017540Y-12386878D02*
X14027482Y-12386878D01*
X18890000Y-10980000D02*
X18890000Y-13960000D01*
X13446379Y-11009441D02*
G75*
G02*
X13346379Y-10909455I1J100001D01*
G01*
X13696000Y-12864002D02*
X13695966Y-12468753D01*
X13346379Y-10909455D02*
X13346318Y-10465420D01*
X14539251Y-10465406D02*
X14539251Y-13284230D01*
X15854307Y-15844000D02*
X14950000Y-15844000D01*
X14112482Y-11009440D02*
X14112482Y-12301878D01*
X18188000Y-11217000D02*
X17702000Y-11217000D01*
X18599000Y-10347000D02*
X18892000Y-10347000D01*
X18890000Y-13960000D02*
X18790000Y-13960000D01*
X13696000Y-12387000D02*
X13695966Y-12468753D01*
X14032608Y-12864378D02*
X13696000Y-12864002D01*
X18191000Y-11419000D02*
X17669000Y-11419000D01*
X15514175Y-13648542D02*
X17090000Y-13650000D01*
X17090000Y-15240000D02*
X17090000Y-15820000D01*
X18090000Y-12280000D02*
X17667358Y-12280544D01*
X16261581Y-15744024D02*
X16261581Y-15288542D01*
X13446318Y-10365406D02*
X14439251Y-10365406D01*
X18790000Y-15310000D02*
X18090000Y-15310000D01*
X14017540Y-12386878D02*
X13788000Y-12387000D01*
X18108000Y-10346000D02*
X18308000Y-10346000D01*
X17459251Y-13284230D02*
X17459000Y-12280000D01*
X17090000Y-15820000D02*
X18090000Y-15820000D01*
X17669000Y-11217000D02*
X17702000Y-11217000D01*
X18188000Y-11217000D02*
X18188000Y-10979000D01*
X14112482Y-12301878D02*
G75*
G02*
X14027482Y-12386882I-85002J-2D01*
G01*
X15514175Y-15188542D02*
X15514175Y-13648542D01*
X13723000Y-13732000D02*
X13722000Y-15133000D01*
X14539251Y-13284230D02*
X17459251Y-13284230D01*
X17667358Y-12280544D02*
X17459000Y-12280000D01*
X18190000Y-12280000D02*
X18191000Y-11419000D01*
X13446379Y-11009441D02*
X14112482Y-11009441D01*
X18599000Y-10347000D02*
X18308000Y-10346000D01*
X16161581Y-15188542D02*
G75*
G02*
X16261578Y-15288542I-2J-99998D01*
G01*
X16161581Y-15188542D02*
X15514175Y-15188542D01*
X18890000Y-10980000D02*
X18892000Y-10347000D01*
X18790000Y-13960000D02*
X18790000Y-15310000D01*
X16261581Y-15744024D02*
G75*
G02*
X16161581Y-15844031I-99992J-16D01*
G01*
X17669000Y-11419000D02*
X17669000Y-11217000D01*
X18188000Y-10516000D02*
X18108000Y-10516000D01*
X14324358Y-12864378D02*
X14032608Y-12864378D01*
X18599000Y-10515000D02*
X18599000Y-10979500D01*
X14950000Y-15133000D02*
X14950000Y-15844000D01*
X18090000Y-15310000D02*
X18090000Y-15820000D01*
X18090000Y-12280000D02*
X18190000Y-12280000D01*
X18308000Y-10979000D02*
X18599000Y-10979500D01*
X17090000Y-13650000D02*
X17090000Y-15240000D01*
X13722000Y-15133000D02*
X14950000Y-15133000D01*
X14439251Y-10365406D02*
G75*
G02*
X14539254Y-10465406I-1J-100004D01*
G01*
X18108000Y-10516000D02*
X18108000Y-10346000D01*
X14324358Y-13731255D02*
X13723000Y-13732000D01*
X13346318Y-10465420D02*
G75*
G02*
X13446318Y-10365409I100002J10D01*
G01*
X14324358Y-12864378D02*
X14324358Y-13731255D01*
X18188000Y-10516000D02*
X18599000Y-10515000D01*
D11*
X13602095Y-16160515D02*
X13602095Y-15960515D01*
X13602095Y-15960515D02*
X13649714Y-15960515D01*
X13649714Y-15960515D02*
X13678286Y-15970039D01*
X13678286Y-15970039D02*
X13697333Y-15989087D01*
X13697333Y-15989087D02*
X13706857Y-16008134D01*
X13706857Y-16008134D02*
X13716381Y-16046229D01*
X13716381Y-16046229D02*
X13716381Y-16074801D01*
X13716381Y-16074801D02*
X13706857Y-16112896D01*
X13706857Y-16112896D02*
X13697333Y-16131944D01*
X13697333Y-16131944D02*
X13678286Y-16150991D01*
X13678286Y-16150991D02*
X13649714Y-16160515D01*
X13649714Y-16160515D02*
X13602095Y-16160515D01*
X13802095Y-16160515D02*
X13802095Y-16027182D01*
X13802095Y-16065277D02*
X13811619Y-16046229D01*
X13811619Y-16046229D02*
X13821143Y-16036706D01*
X13821143Y-16036706D02*
X13840190Y-16027182D01*
X13840190Y-16027182D02*
X13859238Y-16027182D01*
X13925905Y-16160515D02*
X13925905Y-16027182D01*
X13925905Y-15960515D02*
X13916381Y-15970039D01*
X13916381Y-15970039D02*
X13925905Y-15979563D01*
X13925905Y-15979563D02*
X13935429Y-15970039D01*
X13935429Y-15970039D02*
X13925905Y-15960515D01*
X13925905Y-15960515D02*
X13925905Y-15979563D01*
X14049714Y-16160515D02*
X14030667Y-16150991D01*
X14030667Y-16150991D02*
X14021143Y-16131944D01*
X14021143Y-16131944D02*
X14021143Y-15960515D01*
X14154476Y-16160515D02*
X14135429Y-16150991D01*
X14135429Y-16150991D02*
X14125905Y-16131944D01*
X14125905Y-16131944D02*
X14125905Y-15960515D01*
X14383048Y-16160515D02*
X14383048Y-15960515D01*
X14383048Y-15960515D02*
X14449714Y-16103372D01*
X14449714Y-16103372D02*
X14516381Y-15960515D01*
X14516381Y-15960515D02*
X14516381Y-16160515D01*
X14697333Y-16160515D02*
X14697333Y-16055753D01*
X14697333Y-16055753D02*
X14687810Y-16036706D01*
X14687810Y-16036706D02*
X14668762Y-16027182D01*
X14668762Y-16027182D02*
X14630667Y-16027182D01*
X14630667Y-16027182D02*
X14611619Y-16036706D01*
X14697333Y-16150991D02*
X14678286Y-16160515D01*
X14678286Y-16160515D02*
X14630667Y-16160515D01*
X14630667Y-16160515D02*
X14611619Y-16150991D01*
X14611619Y-16150991D02*
X14602095Y-16131944D01*
X14602095Y-16131944D02*
X14602095Y-16112896D01*
X14602095Y-16112896D02*
X14611619Y-16093849D01*
X14611619Y-16093849D02*
X14630667Y-16084325D01*
X14630667Y-16084325D02*
X14678286Y-16084325D01*
X14678286Y-16084325D02*
X14697333Y-16074801D01*
X14792571Y-16027182D02*
X14792571Y-16227182D01*
X14792571Y-16036706D02*
X14811619Y-16027182D01*
X14811619Y-16027182D02*
X14849714Y-16027182D01*
X14849714Y-16027182D02*
X14868762Y-16036706D01*
X14868762Y-16036706D02*
X14878286Y-16046229D01*
X14878286Y-16046229D02*
X14887810Y-16065277D01*
X14887810Y-16065277D02*
X14887810Y-16122420D01*
X14887810Y-16122420D02*
X14878286Y-16141468D01*
X14878286Y-16141468D02*
X14868762Y-16150991D01*
X14868762Y-16150991D02*
X14849714Y-16160515D01*
X14849714Y-16160515D02*
X14811619Y-16160515D01*
X14811619Y-16160515D02*
X14792571Y-16150991D01*
X14973524Y-16141468D02*
X14983048Y-16150991D01*
X14983048Y-16150991D02*
X14973524Y-16160515D01*
X14973524Y-16160515D02*
X14964000Y-16150991D01*
X14964000Y-16150991D02*
X14973524Y-16141468D01*
X14973524Y-16141468D02*
X14973524Y-16160515D01*
X14973524Y-16036706D02*
X14983048Y-16046229D01*
X14983048Y-16046229D02*
X14973524Y-16055753D01*
X14973524Y-16055753D02*
X14964000Y-16046229D01*
X14964000Y-16046229D02*
X14973524Y-16036706D01*
X14973524Y-16036706D02*
X14973524Y-16055753D01*
M02*
